<?xml version="1.0" encoding="utf-8"?>
<!-- Generator: Adobe Illustrator 27.9.6, SVG Export Plug-In . SVG Version: 9.03 Build 54986)  -->
<svg version="1.1" id="Layer_1" xmlns="http://www.w3.org/2000/svg" xmlns:xlink="http://www.w3.org/1999/xlink" x="0px" y="0px"
	 viewBox="0 0 243 153" style="enable-background:new 0 0 243 153;" xml:space="preserve">
<style type="text/css">
	.st0{fill:url(#SVGID_00000121273163037820788520000005753418098159167646_);}
	.st1{fill:url(#SVGID_00000057844018666872593450000003191291795158213784_);}
	.st2{fill:url(#SVGID_00000098194552288560448920000006098920026048468355_);}
	.st3{fill:url(#SVGID_00000025416839290953347220000017146542954064321190_);}
	.st4{fill:url(#SVGID_00000046332443690093800270000008358914830047805329_);}
	.st5{fill:url(#SVGID_00000121243244431510864170000002060824013180698807_);}
	.st6{fill:url(#SVGID_00000005229713996336463730000014786586752703153282_);}
	.st7{fill:url(#SVGID_00000129897870872111708580000007686417327868792202_);}
	.st8{fill:url(#SVGID_00000100356661872075280760000004542246040045268655_);}
	.st9{fill:url(#SVGID_00000109748007084655652370000016993824088328760989_);}
	.st10{fill:url(#SVGID_00000020394698199825481870000010159677886223044017_);}
	.st11{fill:url(#SVGID_00000172410295146853284400000001545918425311101078_);}
	.st12{fill:url(#SVGID_00000158720772357128366240000009565804142987554694_);}
	.st13{fill:url(#SVGID_00000155113239373613993260000013821024230726318758_);}
	.st14{fill:url(#SVGID_00000089534653201543875640000001769959309426870408_);}
	.st15{fill:url(#SVGID_00000177456678016037820450000003917289768897764029_);}
	.st16{fill:url(#SVGID_00000044176329234746346260000002845770142681706378_);}
	.st17{fill:url(#SVGID_00000098924717811360674360000004683489182954629030_);}
	.st18{fill:url(#SVGID_00000062190171175268917040000017466319567321384893_);}
	.st19{fill:url(#SVGID_00000077319997561897579910000002222985972519487123_);}
	.st20{fill:url(#SVGID_00000007411042840375492740000010969239619968073897_);}
	.st21{fill:url(#SVGID_00000044146067689479755870000008004935612381791908_);}
	.st22{fill:url(#SVGID_00000020386374624044689090000001885785483566092931_);}
	.st23{fill:url(#SVGID_00000129175205347535234080000006742983148733522314_);}
	.st24{fill:url(#SVGID_00000046316904382317032700000018251896090017944754_);}
	.st25{fill:url(#SVGID_00000089573274076024843670000009172017077766240425_);}
	.st26{fill:url(#SVGID_00000009586973175517645190000018109052258773002897_);}
	.st27{fill:url(#SVGID_00000147936634974629061960000004852491748426853274_);}
	.st28{fill:url(#SVGID_00000117647415954589902410000008091993286803679655_);}
	.st29{fill:url(#SVGID_00000067214460183667982130000014056521877606284420_);}
	.st30{fill:url(#SVGID_00000159466488900116233630000000139810547074127240_);}
	.st31{fill:url(#SVGID_00000003069129431598061930000010092355387394631073_);}
	.st32{fill:url(#SVGID_00000150798015244486520090000011916240015150401195_);}
	.st33{fill:url(#SVGID_00000022555902374908471150000000812093581357010092_);}
	.st34{fill:url(#SVGID_00000031921066438387759990000014051863686839189652_);}
	.st35{fill:url(#SVGID_00000141435783099513513780000009356779388267008957_);}
	.st36{fill:#FFFFFF;}
	.st37{fill:url(#SVGID_00000046298108148569833910000017049353200083340198_);}
	.st38{fill:url(#SVGID_00000169551221577038463050000013539239337609917105_);}
	.st39{fill:url(#SVGID_00000073723721976710712480000001380867577282398116_);}
	.st40{fill:url(#SVGID_00000075145007043875611490000002182851266604952998_);}
	.st41{fill:#459BD5;}
	.st42{fill:#BF9F65;}
</style>
<image style="overflow:visible;" width="1084" height="687" xlink:href="A92038A7.png"  transform="matrix(0.24 0 0 0.24 -305.22 -5.34)">
</image>
<g>
	<defs>
		<rect id="SVGID_1_" x="-304.5" y="-6" width="266.1" height="177.4"/>
	</defs>
	<clipPath id="SVGID_00000003791134888409287250000006009266841157336765_">
		<use xlink:href="#SVGID_1_"  style="overflow:visible;"/>
	</clipPath>
	<g style="opacity:0.55;clip-path:url(#SVGID_00000003791134888409287250000006009266841157336765_);">
		
			<image style="overflow:visible;" width="1319" height="1016" xlink:href="A92038A5.png"  transform="matrix(0.24 0 0 0.24 -329.7 -39.18)">
		</image>
	</g>
</g>
<g>
	
		<linearGradient id="SVGID_00000057835964433237462930000000615919040646998696_" gradientUnits="userSpaceOnUse" x1="-72.6038" y1="108.9208" x2="-72.0793" y2="108.3964" gradientTransform="matrix(0 -1 1 0 -130.418 85.8503)">
		<stop  offset="0" style="stop-color:#A69557"/>
		<stop  offset="0.2079" style="stop-color:#BB9D64"/>
		<stop  offset="0.5398" style="stop-color:#D8A975"/>
		<stop  offset="0.8158" style="stop-color:#ECB181"/>
		<stop  offset="1" style="stop-color:#F5B585"/>
	</linearGradient>
	<path style="fill:url(#SVGID_00000057835964433237462930000000615919040646998696_);" d="M-21.8,158c-0.2,0.4-0.4,0.7-0.6,1.1h0.3
		c0.3-0.5,0.5-1,0.8-1.4v-0.4C-21.5,157.5-21.6,157.7-21.8,158z"/>
	
		<linearGradient id="SVGID_00000054947345272191119600000008842492692371972276_" gradientUnits="userSpaceOnUse" x1="-10.6929" y1="110.2022" x2="-8.5517" y2="108.061" gradientTransform="matrix(0 -1 1 0 -130.418 85.8503)">
		<stop  offset="0" style="stop-color:#A69557"/>
		<stop  offset="0.2079" style="stop-color:#BB9D64"/>
		<stop  offset="0.5398" style="stop-color:#D8A975"/>
		<stop  offset="0.8158" style="stop-color:#ECB181"/>
		<stop  offset="1" style="stop-color:#F5B585"/>
	</linearGradient>
	<path style="fill:url(#SVGID_00000054947345272191119600000008842492692371972276_);" d="M-21.5,94.2c-0.2,1.1-0.1,2.3,0.2,3.4
		v-1.1c-0.1-0.7-0.1-1.4,0-2.1v-1.1C-21.4,93.6-21.4,93.9-21.5,94.2z"/>
	
		<linearGradient id="SVGID_00000075158656000386423880000018256562959135903618_" gradientUnits="userSpaceOnUse" x1="-13.6644" y1="112.3343" x2="-7.259" y2="105.9289" gradientTransform="matrix(0 -1 1 0 -130.418 85.8503)">
		<stop  offset="0" style="stop-color:#A69557"/>
		<stop  offset="0.2079" style="stop-color:#BB9D64"/>
		<stop  offset="0.5398" style="stop-color:#D8A975"/>
		<stop  offset="0.8158" style="stop-color:#ECB181"/>
		<stop  offset="1" style="stop-color:#F5B585"/>
	</linearGradient>
	<path style="fill:url(#SVGID_00000075158656000386423880000018256562959135903618_);" d="M-21.3,90.2v-0.3c-1.2,1.4-2,3.3-2.2,5.2
		c-0.2,2.5,0.6,5.1,2.2,7.6v-0.4c-1.4-2.3-2.2-4.8-2-7.2C-23.1,93.3-22.4,91.6-21.3,90.2z"/>
	
		<linearGradient id="SVGID_00000008858244114802982940000009204500176259229857_" gradientUnits="userSpaceOnUse" x1="-15.5424" y1="113.6573" x2="-6.3468" y2="104.4617" gradientTransform="matrix(0 -1 1 0 -130.418 85.8503)">
		<stop  offset="0" style="stop-color:#A69557"/>
		<stop  offset="0.2079" style="stop-color:#BB9D64"/>
		<stop  offset="0.5398" style="stop-color:#D8A975"/>
		<stop  offset="0.8158" style="stop-color:#ECB181"/>
		<stop  offset="1" style="stop-color:#F5B585"/>
	</linearGradient>
	<path style="fill:url(#SVGID_00000008858244114802982940000009204500176259229857_);" d="M-24,90.7c-0.8,1.4-1.3,3.1-1.4,4.8
		c-0.1,3.8,1.7,7.2,3.2,9.3c0.3,0.4,0.6,0.8,0.9,1.2v-0.3c-0.3-0.3-0.5-0.6-0.8-1c-1.5-2.1-3.3-5.4-3.2-9.1c0.1-3.1,1.7-5.9,4-7.4
		v-0.3C-22.4,88.5-23.3,89.5-24,90.7z"/>
	
		<linearGradient id="SVGID_00000106832677826138667790000010712108381170195858_" gradientUnits="userSpaceOnUse" x1="-71.2158" y1="108.2797" x2="-69.9591" y2="107.0229" gradientTransform="matrix(0 -1 1 0 -130.418 85.8503)">
		<stop  offset="0" style="stop-color:#A69557"/>
		<stop  offset="0.2079" style="stop-color:#BB9D64"/>
		<stop  offset="0.5398" style="stop-color:#D8A975"/>
		<stop  offset="0.8158" style="stop-color:#ECB181"/>
		<stop  offset="1" style="stop-color:#F5B585"/>
	</linearGradient>
	<path style="fill:url(#SVGID_00000106832677826138667790000010712108381170195858_);" d="M-24.4,159.1h0.2c0.7-1.8,1.7-3.5,2.8-5
		v-0.3C-22.6,155.3-23.6,157.1-24.4,159.1z"/>
	
		<linearGradient id="SVGID_00000016762476517843445870000003765864533112582282_" gradientUnits="userSpaceOnUse" x1="-70.1631" y1="107.8359" x2="-68.3049" y2="105.9778" gradientTransform="matrix(0 -1 1 0 -130.418 85.8503)">
		<stop  offset="0" style="stop-color:#A69557"/>
		<stop  offset="0.2079" style="stop-color:#BB9D64"/>
		<stop  offset="0.5398" style="stop-color:#D8A975"/>
		<stop  offset="0.8158" style="stop-color:#ECB181"/>
		<stop  offset="1" style="stop-color:#F5B585"/>
	</linearGradient>
	<path style="fill:url(#SVGID_00000016762476517843445870000003765864533112582282_);" d="M-21.3,151.3V151c-1,1.2-1.9,2.4-2.6,3.8
		c-0.8,1.4-1.4,2.8-1.9,4.3h0.2C-24.7,156.2-23.2,153.6-21.3,151.3z"/>
	
		<linearGradient id="SVGID_00000040541348795741718190000016767998180795906712_" gradientUnits="userSpaceOnUse" x1="17.7064" y1="126.0905" x2="52.721" y2="91.0758" gradientTransform="matrix(0 -1 1 0 -130.418 85.8503)">
		<stop  offset="0" style="stop-color:#A69557"/>
		<stop  offset="0.2079" style="stop-color:#BB9D64"/>
		<stop  offset="0.5398" style="stop-color:#D8A975"/>
		<stop  offset="0.8158" style="stop-color:#ECB181"/>
		<stop  offset="1" style="stop-color:#F5B585"/>
	</linearGradient>
	<path style="fill:url(#SVGID_00000040541348795741718190000016767998180795906712_);" d="M-24.5,18.7c-3.5,2.8-6.4,5.9-8.5,9
		c-2.2,3.3-3.9,7-5,11.2c-1,3.8-1.6,7.9-1.6,12.2c0,0,0,0,0,0c0,3.9,0.6,7.7,1.8,11.5c1.2,3.7,2.8,7.3,5,10.6
		c3,4.6,6.9,8.6,11.5,11.8v-0.3c-4.5-3.2-8.4-7.2-11.4-11.7c-4.4-6.6-6.7-14.4-6.7-22c0,0,0,0,0,0c0-8.9,2.3-16.9,6.5-23.2
		c2.8-4.1,6.7-7.9,11.6-11.3v-0.2C-22.4,17.1-23.5,17.9-24.5,18.7z"/>
	
		<linearGradient id="SVGID_00000065774031816070931100000003420299884451240321_" gradientUnits="userSpaceOnUse" x1="-69.3073" y1="107.1151" x2="-67.3148" y2="105.1226" gradientTransform="matrix(0 -1 1 0 -130.418 85.8503)">
		<stop  offset="0" style="stop-color:#A69557"/>
		<stop  offset="0.2079" style="stop-color:#BB9D64"/>
		<stop  offset="0.5398" style="stop-color:#D8A975"/>
		<stop  offset="0.8158" style="stop-color:#ECB181"/>
		<stop  offset="1" style="stop-color:#F5B585"/>
	</linearGradient>
	<path style="fill:url(#SVGID_00000065774031816070931100000003420299884451240321_);" d="M-21.3,149.4v-0.3
		c-1.6,1.7-3.1,3.7-4.2,5.8c-0.7,1.3-1.4,2.7-1.9,4.1h0.2C-25.9,155.5-23.9,152.2-21.3,149.4z"/>
	
		<linearGradient id="SVGID_00000014607095146336477030000016106490631257761203_" gradientUnits="userSpaceOnUse" x1="-68.2388" y1="106.3904" x2="-65.8692" y2="104.0208" gradientTransform="matrix(0 -1 1 0 -130.418 85.8503)">
		<stop  offset="0" style="stop-color:#A69557"/>
		<stop  offset="0.2079" style="stop-color:#BB9D64"/>
		<stop  offset="0.5398" style="stop-color:#D8A975"/>
		<stop  offset="0.8158" style="stop-color:#ECB181"/>
		<stop  offset="1" style="stop-color:#F5B585"/>
	</linearGradient>
	<path style="fill:url(#SVGID_00000014607095146336477030000016106490631257761203_);" d="M-21.3,147v-0.3c-2.4,2.2-4.5,4.8-6,7.7
		c-0.8,1.5-1.4,3.1-1.9,4.6h0.2C-27.6,154.4-24.9,150.2-21.3,147z"/>
	
		<linearGradient id="SVGID_00000124882926672231415580000014284232921799765692_" gradientUnits="userSpaceOnUse" x1="-67.4124" y1="105.6563" x2="-64.8927" y2="103.1366" gradientTransform="matrix(0 -1 1 0 -130.418 85.8503)">
		<stop  offset="0" style="stop-color:#A69557"/>
		<stop  offset="0.2079" style="stop-color:#BB9D64"/>
		<stop  offset="0.5398" style="stop-color:#D8A975"/>
		<stop  offset="0.8158" style="stop-color:#ECB181"/>
		<stop  offset="1" style="stop-color:#F5B585"/>
	</linearGradient>
	<path style="fill:url(#SVGID_00000124882926672231415580000014284232921799765692_);" d="M-28.8,154.2c-0.8,1.6-1.5,3.2-2,4.9h0.2
		c1.5-5.1,4.6-9.9,9.3-13.9v-0.3C-24.5,147.7-27.1,150.8-28.8,154.2z"/>
	
		<linearGradient id="SVGID_00000102535105120316609520000003426147693462055076_" gradientUnits="userSpaceOnUse" x1="26.8484" y1="117.3193" x2="43.2239" y2="100.9439" gradientTransform="matrix(0 -1 1 0 -130.418 85.8503)">
		<stop  offset="0" style="stop-color:#A69557"/>
		<stop  offset="0.2079" style="stop-color:#BB9D64"/>
		<stop  offset="0.5398" style="stop-color:#D8A975"/>
		<stop  offset="0.8158" style="stop-color:#ECB181"/>
		<stop  offset="1" style="stop-color:#F5B585"/>
	</linearGradient>
	<path style="fill:url(#SVGID_00000102535105120316609520000003426147693462055076_);" d="M-25.7,41.5c1.1-2.5,2.6-4.8,4.4-6.7v-0.3
		c-1.8,2-3.5,4.3-4.6,7c-2.2,5.3-2.2,11.8,0.1,17.8c1,2.7,2.5,5.4,4.4,7.9c0,0,0,0,0,0.1v-0.3c-1.8-2.5-3.3-5-4.3-7.7
		C-27.9,53.2-27.9,46.7-25.7,41.5z"/>
	
		<linearGradient id="SVGID_00000128449451265184609600000004527719576314469818_" gradientUnits="userSpaceOnUse" x1="28.914" y1="115.8604" x2="42.3715" y2="102.4029" gradientTransform="matrix(0 -1 1 0 -130.418 85.8503)">
		<stop  offset="0" style="stop-color:#A69557"/>
		<stop  offset="0.2079" style="stop-color:#BB9D64"/>
		<stop  offset="0.5398" style="stop-color:#D8A975"/>
		<stop  offset="0.8158" style="stop-color:#ECB181"/>
		<stop  offset="1" style="stop-color:#F5B585"/>
	</linearGradient>
	<path style="fill:url(#SVGID_00000128449451265184609600000004527719576314469818_);" d="M-24.2,57.6c-2-5.2-2-10.9-0.1-15.6
		c0.7-1.8,1.8-3.5,3-4.9v-0.3c-1.4,1.5-2.5,3.3-3.2,5.2c-1,2.4-1.5,5.1-1.4,7.9c0,2.6,0.6,5.4,1.5,7.9c0.8,2,1.8,4,3.1,5.9v-0.4
		C-22.5,61.5-23.5,59.6-24.2,57.6z"/>
	
		<linearGradient id="SVGID_00000160173770643994193700000009009882666713165493_" gradientUnits="userSpaceOnUse" x1="18.8814" y1="125.0095" x2="51.0102" y2="92.8807" gradientTransform="matrix(0 -1 1 0 -130.418 85.8503)">
		<stop  offset="0" style="stop-color:#A69557"/>
		<stop  offset="0.2079" style="stop-color:#BB9D64"/>
		<stop  offset="0.5398" style="stop-color:#D8A975"/>
		<stop  offset="0.8158" style="stop-color:#ECB181"/>
		<stop  offset="1" style="stop-color:#F5B585"/>
	</linearGradient>
	<path style="fill:url(#SVGID_00000160173770643994193700000009009882666713165493_);" d="M-33.6,35.2c-3.9,9.3-4.1,20-0.7,29.5
		c2.6,7.1,7.2,13.5,13.1,18.2v-0.3c-5.8-4.7-10.4-10.9-12.9-18c-3.4-9.4-3.1-20.1,0.7-29.3c2.6-6.3,6.9-11.8,12.1-16.1V19
		C-26.7,23.2-31,28.9-33.6,35.2z"/>
	
		<linearGradient id="SVGID_00000120549050119825852160000015755824990004940450_" gradientUnits="userSpaceOnUse" x1="-44.6429" y1="127.3147" x2="66.2791" y2="16.3926" gradientTransform="matrix(0 -1 1 0 -130.418 85.8503)">
		<stop  offset="0" style="stop-color:#A69557"/>
		<stop  offset="0.2079" style="stop-color:#BB9D64"/>
		<stop  offset="0.5398" style="stop-color:#D8A975"/>
		<stop  offset="0.8158" style="stop-color:#ECB181"/>
		<stop  offset="1" style="stop-color:#F5B585"/>
	</linearGradient>
	<path style="fill:url(#SVGID_00000120549050119825852160000015755824990004940450_);" d="M-56.6-5.7h-0.3c1.2,1.4,2.5,2.7,3.9,3.9
		c-0.2,0.7-0.4,1.4-0.6,2.1c-2.2-1.8-4.2-3.8-6-6h-0.3c1.9,2.3,4,4.4,6.3,6.2c-0.2,0.7-0.3,1.3-0.4,2c-3-2.4-5.8-5.1-8.2-8.3h-0.3
		c2.5,3.2,5.3,6.1,8.4,8.5c-0.1,0.7-0.3,1.5-0.4,2.2c-3.7-2.9-7-6.4-9.8-10.7h-0.3c2.9,4.4,6.2,8.1,10.1,11
		c-0.1,0.7-0.2,1.4-0.2,2.1c-4.2-3.6-7.8-8-10.9-13.1h-0.2c0.4,0.7,0.8,1.4,1.3,2c2.8,4.4,6.1,8.2,9.8,11.3c0,0.3-0.1,0.7-0.1,1
		c0,0.1,0,0.3,0,0.4c-4.4-4.4-8.2-9.4-11.3-14.8h-0.5c0.1,0.2,0.3,0.5,0.4,0.7C-70-1.3-73,3.3-75.1,8.2c-2.1,5-3.2,10.5-3.1,15.9
		c0.1,5.4,1.2,10.6,3.3,15.6c2.1,4.9,5.2,9.2,9,12.9c-0.1,0.4-0.2,0.8-0.3,1.3c-8.3-7.6-13.1-18.4-13.2-29.6
		c-0.1-11,4.4-22.1,12.1-29.9h-0.3c-3.7,3.7-6.7,8.3-8.8,13.3c-2.2,5.3-3.3,11-3.3,16.6c0.1,5.7,1.3,11.2,3.6,16.4
		c2.3,5.2,5.6,9.7,9.8,13.5c-0.1,0.4-0.2,0.7-0.2,1.1c-8.5-7.3-13.7-17.7-14.3-28.7c-0.4-7.7,0.9-14.8,3.9-20.9c0,0,0,0,0,0
		c1.1-2.2,2.3-4.2,3.8-6.2c1.5-1.8,3.2-3.5,5-5h-0.6c-0.1,0.1-0.2,0.2-0.3,0.3c-0.2-0.1-0.4-0.2-0.6-0.3H-70
		c0.3,0.2,0.5,0.3,0.8,0.4c-0.4,0.3-0.7,0.7-1.1,1c0,0,0,0,0,0C-71-4.7-71.5-5.2-72-5.7h-0.3c0.5,0.6,1.1,1.2,1.8,1.6
		c-0.2,0.2-0.4,0.4-0.6,0.6c-0.8-0.6-1.4-1.4-2-2.2h-0.3c0.6,0.9,1.3,1.7,2.1,2.4c-0.4,0.4-0.7,0.7-1,1.1c-1-1-1.8-2.2-2.4-3.5h-0.2
		c0.6,1.3,1.5,2.6,2.5,3.6c-0.3,0.3-0.6,0.7-0.9,1c-1.2-1.4-2.1-3-2.7-4.7h-0.2c0.6,1.8,1.6,3.4,2.8,4.8c-0.3,0.3-0.5,0.7-0.8,1
		c-1.5-1.9-2.6-3.8-3.3-5.8h-0.2c0.1,0.2,0.1,0.4,0.2,0.7c0.7,1.8,1.7,3.6,3.1,5.3c-0.3,0.3-0.5,0.7-0.8,1c-1.7-2.1-3-4.5-3.7-7.1
		H-79c0.7,2.6,2,5.1,3.8,7.2c-0.2,0.3-0.4,0.6-0.6,0.8c-1.9-2.4-3.2-5.1-4-8.1H-80c0.7,3,2.1,5.9,4.1,8.3c-0.2,0.3-0.4,0.6-0.5,0.8
		c-2.2-2.6-3.7-5.8-4.5-9.1h-0.2c0.8,3.4,2.4,6.6,4.6,9.3C-76.7,3.8-76.8,4-77,4.2c-2.6-2.8-4.4-6.2-5.4-9.9h-0.2
		c0.2,0.8,0.4,1.5,0.7,2.3c1.1,2.9,2.7,5.6,4.8,7.8c-0.1,0.2-0.2,0.4-0.3,0.5c-2.8-3-4.8-6.7-5.8-10.6h-0.2c1,4,3.1,7.8,5.9,10.8
		c-0.1,0.3-0.3,0.5-0.4,0.8c-2.9-3.3-4.9-7.4-6-11.6h-0.2C-83-1.4-80.9,2.7-78,6c-0.2,0.3-0.3,0.6-0.5,0.9C-81,3.8-83,1.1-83.9-2.4
		c-0.3-1.1-0.6-2.2-0.8-3.4h-0.2c0.2,1.1,0.5,2.3,0.8,3.4c1,3.6,3,6.3,5.6,9.5c0,0,0,0,0,0c-0.2,0.3-0.3,0.7-0.5,1
		c-3.5-4-5.9-8.8-7-13.9h-0.2c0.3,1.2,0.6,2.4,1,3.5c1.3,3.9,3.4,7.5,6.2,10.6c-0.1,0.3-0.3,0.6-0.4,1c-3.7-4.7-6.2-9.8-7.5-15.1
		h-0.2c1.2,5.4,3.8,10.5,7.6,15.3c0,0,0,0,0,0c-0.1,0.3-0.2,0.5-0.3,0.8c-3.7-4.6-6-9.3-7.7-15.7c0-0.1-0.1-0.3-0.1-0.4h-0.2
		c0,0.2,0.1,0.3,0.1,0.5c1.7,6.4,4,11.2,7.8,15.9c-0.1,0.1-0.1,0.3-0.1,0.4c-0.3-0.3-0.6-0.7-0.8-1c0,0,0,0,0,0c0,0,0,0,0,0
		c0,0-0.1-0.1-0.1-0.1c-3.7-4.6-6.1-9.9-7.3-15.6h-0.4c0.3,1.7,0.8,3.3,1.3,4.9c0.3,0.7,0.5,1.4,0.8,2.2c-2.2,2.2-4,4.8-5.3,7.8
		c-1.3,2.9-2.1,6-2.3,9.2c-0.2,3.2,0.1,6.3,1,9.2c0.9,3,2.3,5.7,4.1,8.2c-0.6,1.7-0.9,3.5-1,5.2c-0.4,5.8,1.5,11.5,5.2,15.6
		c-0.1,0.3-0.2,0.6-0.3,1c-1.6,4.9-2.4,10.3-2.1,15.5c0,0.9,0.1,1.8,0.2,2.7c-0.1,0-0.1,0-0.2,0.1c-1.5,1.7-2.8,3.9-3.7,6.3
		c-0.9,2.3-1.5,4.8-1.6,7.2c-0.3,4.5,1.1,9.3,3.9,13.6c-0.3,1.4-0.4,2.8-0.4,4.2c0,0,0,0,0,0c0,5.5,1.1,10.3,3.7,15.6
		c-1.5,2.8-2.4,5.8-2.7,8.9c-0.3,3.4,0.1,6.9,1.2,10.3c0.6,1.7,1.3,3.3,2.3,4.8c-2.9,2.4-5.1,5.6-6.5,9.4c-0.3,1-0.6,2-0.8,3h0.4
		c0.9-4.2,3-8.2,6.1-11.1c-2,2.3-3.7,5-4.8,7.9c-0.4,1-0.8,2.1-1,3.2h0.2c1.2-4.5,3.5-8.6,6.7-11.9c0.1,0.2,0.3,0.4,0.4,0.6
		c-3.2,3.1-5.5,6.9-6.7,11.3h0.2c1.2-4.3,3.4-8.1,6.6-11.1c0.2,0.3,0.4,0.5,0.6,0.8c-3,2.8-5.2,6.3-6.5,10.4h0.2
		c1.3-3.9,3.5-7.5,6.4-10.2c0.3,0.4,0.6,0.7,0.9,1.1c-2.7,1.7-4.8,4.2-6.2,7.2c-0.3,0.6-0.5,1.2-0.8,1.9h0.2c1.3-3.7,3.7-6.9,6.9-9
		c0.2,0.2,0.4,0.5,0.6,0.7c0,0,0,0,0,0.1c-2.7,1.8-4.9,4.8-6.3,8.2h0.2c1.3-3.2,3.4-6.1,6-7.9c-0.1,0.6-0.3,1.3-0.4,1.9
		c-1.9,1.6-3.4,3.7-4.5,6h0.2c1-2.1,2.4-4.1,4.2-5.7c-0.1,0.6-0.2,1.2-0.2,1.8c-1.3,1-2.4,2.3-3.2,3.9h0.2c0.8-1.4,1.7-2.7,3-3.6
		c0,0.5-0.1,1-0.1,1.4c0,0,0,0,0,0c-0.7,0.6-1.3,1.4-1.8,2.2h0.3c0.5-0.7,1-1.3,1.6-1.9c0,0.5,0,1,0,1.5c-0.1,0.1-0.2,0.2-0.4,0.4
		h0.3c0,0,0,0,0.1-0.1c0,0,0,0,0,0.1h0.4c-0.1-6.8,2-13.7,5.9-19.3c0,0,0,0,0.1,0c0,0,0-0.1,0-0.1c0.9-1.2,1.9-2.4,3-3.5
		c0.1,0.1,0.1,0.3,0.2,0.4c-3.3,4-5.7,8.8-7.1,14c-0.7,2.8-1.2,5.7-1.2,8.6h0.2c0.2-8.1,3.1-16,8.2-22.3c0.2,0.4,0.4,0.9,0.6,1.3
		c-4.8,5.9-7.6,13.3-8.2,21h0.2c0.6-7.6,3.4-14.9,8.1-20.8c0.2,0.5,0.5,0.9,0.8,1.4c0,0,0,0,0,0c-4.3,5.4-7.1,12.3-7.9,19.4h0.2
		c0.8-7,3.5-13.8,7.8-19.2c0.3,0.5,0.5,0.9,0.8,1.4c-2.7,3.7-4.8,7.6-6.2,11.5c-0.7,2-1.2,4.1-1.6,6.3h0.2c1-6.3,3.6-12.1,7.7-17.6
		c0.3,0.4,0.6,0.9,0.8,1.3c-4,4.6-6.6,10.3-7.7,16.3h0.2c1.1-5.9,3.7-11.5,7.6-16.1c0.3,0.5,0.6,0.9,0.9,1.4
		c-2.7,2.9-4.9,6.4-6.3,10.2c-0.5,1.5-0.9,3-1.2,4.5h0.2c1.1-5.4,3.6-10.5,7.5-14.5c0.3,0.4,0.6,0.8,0.9,1.2
		c-2.9,3.1-5.1,6.4-6.4,9.8c-0.4,1.2-0.8,2.3-1,3.5h0.2c0.9-4.6,3.4-9,7.3-13.2c0.3,0.4,0.7,0.9,1,1.3c-3.5,3.1-6.1,7.3-7.2,11.9
		h0.2c1.2-4.5,3.7-8.6,7.1-11.7c0.3,0.3,0.5,0.6,0.8,0.9c-2.6,2.7-4.6,5.6-5.9,8.4c-0.4,0.8-0.7,1.6-0.9,2.4h0.2
		c1.2-3.6,3.4-7.2,6.8-10.6c0.3,0.4,0.6,0.7,0.9,1.1c-2.3,2.2-4.1,4.7-5.5,7.7c-0.3,0.6-0.5,1.3-0.8,1.9h0.2
		c1.3-3.6,3.4-6.8,6.1-9.4c0.3,0.3,0.6,0.7,1,1c-2.6,2.3-4.6,5.1-6,8.4h0.2c1.4-3.2,3.4-6,5.9-8.2c0.3,0.3,0.6,0.7,1,1
		c-1.9,2-3.6,4.3-4.9,6.7c-0.1,0.2-0.2,0.3-0.3,0.5h0.2c1.3-2.6,3-5,5-7.1c0.4,0.3,0.7,0.7,1.1,1c-1.9,1.7-3.6,3.8-4.9,6.1h0.3
		c1.3-2.2,2.9-4.3,4.8-5.9c0.4,0.3,0.7,0.7,1.1,1c-1.9,1.3-3.5,3-4.7,4.9h0.3c1.2-1.9,2.8-3.6,4.6-4.8c0.4,0.3,0.8,0.6,1.2,0.9
		c-1.7,1-3.2,2.3-4.4,3.9h0.3c1.2-1.5,2.7-2.8,4.3-3.7c0.5,0.4,0.9,0.7,1.4,1c-1.4,0.7-2.6,1.6-3.7,2.7h0.3c1.1-1,2.3-1.9,3.6-2.5
		c0.4,0.3,0.8,0.5,1.1,0.8c-0.9,0.5-1.8,1.1-2.6,1.7h0.3c0.8-0.6,1.6-1.1,2.5-1.6c0.3,0.2,0.7,0.5,1,0.7c-0.5,0.3-1,0.6-1.5,0.9h0.4
		c0.4-0.3,0.9-0.5,1.3-0.8c0.1,0.1,0.2,0.1,0.3,0.2c0,0,0,0,0,0c0,0.2,0,0.4,0,0.6h0.4c-0.1-2.4,0-4.8,0.3-7.2c0,0,0,0,0,0
		c0,0,0,0,0,0c0.8-6.8,2.8-13.4,6-19.2c0,0,0,0,0,0c0,0,0,0,0,0c0,0,0,0,0,0c1.1-2,2.4-4,3.8-5.8c0.1,0,0.1,0,0.1-0.1c0,0,0,0,0,0
		c0,0,0,0,0,0c0.3-0.4,0.7-0.8,1-1.3c0.2,0.2,0.3,0.5,0.5,0.7c-4.5,5.8-7.7,12.3-9.5,19.2c-1.1,4.5-1.7,9.1-1.6,13.9h0.2
		c-0.2-12.1,3.6-23.3,11.1-32.9c0.3,0.4,0.5,0.7,0.8,1.1c0,0,0.1,0.1,0.1,0.1c-4.8,5.9-7.6,11.2-9.7,18.5c-1.1,4-1.4,9-1.4,11.6
		c0,0.6,0,1.1,0,1.6h0.2c0-0.5,0-1,0-1.6c0-2.6,0.3-7.5,1.4-11.5c2.1-7.2,4.9-12.5,9.6-18.3c0.4,0.5,0.7,1,1.1,1.4c0,0,0,0,0,0
		c-2.3,2.5-4.3,5.3-6,8.3c-1.6,2.9-2.9,6.1-3.8,9.3c-0.9,3.2-1.5,6.6-1.6,10c0,0.8-0.1,1.6-0.1,2.4h0.2c0-11.2,4-21.8,11.4-29.9
		c0.3,0.4,0.7,0.8,1,1.2c-2.4,2.3-4.4,4.9-6.1,7.8c-1.6,2.8-2.9,5.9-3.9,9.1c-1.1,3.8-1.7,7.7-1.7,11.7h0.2
		c0.1-11,4.2-21.3,11.6-28.5c0.3,0.4,0.7,0.7,1,1.1c-4.6,4.8-8,10.4-9.9,16.5c-1.1,3.5-1.7,7.1-1.9,10.9h0.2
		c0.5-10.4,4.5-19.7,11.8-27.3c0.4,0.4,0.8,0.8,1.2,1.2c-4.7,4.9-8,10.2-10,15.7c-1.2,3.3-1.8,6.8-2,10.3h0.2
		c0.5-9.4,4.5-18.1,11.9-25.9c0.4,0.4,0.8,0.8,1.2,1.1c-4.5,4.2-7.7,9.2-9.8,15c-1,2.8-1.6,5.7-2,8.7c0,0.3-0.1,0.7-0.1,1h0.2
		c0.8-9.5,4.9-18.1,11.8-24.6c0.4,0.4,0.8,0.7,1.2,1.1c-2.2,1.9-4.1,4-5.7,6.4c-1.6,2.3-3,4.9-4,7.5c-1,2.6-1.7,5.4-2.1,8.3
		c-0.1,0.4-0.1,0.9-0.2,1.3h0.2c0.9-9.2,5.1-17.4,11.9-23.3c0.4,0.3,0.8,0.7,1.2,1c-2.1,1.8-4,3.9-5.6,6.2c-1.6,2.2-2.9,4.7-3.9,7.3
		c-1.1,2.8-1.9,5.7-2.4,8.8h0.2c1.3-8.8,5.5-16.6,11.8-22.2c0.4,0.3,0.8,0.7,1.2,1c-4,3.8-7.1,8.3-9.2,13.4c-1,2.5-1.8,5.1-2.4,7.8
		h0.2c1.8-8.4,5.7-15.4,11.6-21c0.1,0.1,0.2,0.2,0.4,0.3c0.3,0.2,0.6,0.5,0.9,0.7c-1.8,1.5-3.4,3.4-4.8,5.5c-1.2,1.9-2.4,4-3.6,6.8
		c-1.1,2.6-2,5.2-2.7,7.7h0.2c0.7-2.5,1.6-5.1,2.7-7.7c1.8-4,4.2-8.6,8.3-12.2c0.4,0.3,0.8,0.6,1.2,0.9c-4.4,3.9-7.3,9.2-8.7,12
		c-1.1,2.2-1.8,4.6-2.3,7h0.2c0.6-2.4,1.3-4.7,2.3-6.9c1.3-2.8,4.3-8.1,8.7-12c0.3,0.2,0.5,0.4,0.8,0.5c-5,5-8.6,11.3-10.6,18.4h0.2
		c2-7,5.6-13.3,10.5-18.2c0.3,0.2,0.6,0.4,0.9,0.6c-5.1,6.2-8.4,11.8-10.1,17.6h0.2c1.7-5.7,5-11.4,10.1-17.5c0.3,0.2,0.7,0.4,1,0.6
		c-4.5,4.7-7.7,10.4-9.4,16.9h0.2c1.7-6.4,4.9-12.1,9.3-16.8c0.4,0.3,0.9,0.5,1.3,0.8c-3.1,2.9-5.6,6.6-7.4,10.5
		c-0.8,1.7-1.4,3.6-1.9,5.4h0.2c1.6-6,4.8-11.5,9.3-15.8c0.3,0.2,0.7,0.4,1,0.6v-0.4c-3-1.7-5.8-3.6-8.4-5.7c0,0,0,0,0,0
		c0,0,0,0-0.1,0c-4-3.2-7.5-6.8-10.4-10.6c-1.8-2.5-3.4-5.1-4.7-7.8c0,0,0,0,0,0c0,0,0,0,0,0c0,0,0-0.1-0.1-0.1
		c-1.6-3.3-2.8-6.8-3.6-10.3c0,0,0-0.1,0-0.1c0,0,0,0,0,0c-0.2-0.8-0.3-1.6-0.5-2.4c0,0,0,0,0,0c0,0,0-0.1,0-0.2c0,0,0,0,0,0
		c-0.1-0.7-0.2-1.5-0.3-2.2c0,0,0-0.1,0-0.1c0,0,0-0.1-0.1-0.1c0,0,0,0,0,0c-0.2-1.9-0.2-3.7-0.1-5.6c0.1-2.2,0.4-4.3,0.8-6.4
		c0,0,0.1,0,0.1,0c0,0,0-0.1,0-0.1c0,0,0,0,0,0c0.1-0.5,0.2-1,0.4-1.5c0,0,0,0,0,0c0,0,0-0.1,0-0.1c0.2-0.6,0.3-1.2,0.5-1.9
		c0,0,0,0,0.1,0c0,0,0-0.1,0-0.1c1.6-4.9,4.2-9.4,7.5-13c0,0,0,0,0,0c1.2-1.2,2.4-2.4,3.7-3.4c0.2,0.4,0.5,0.9,0.8,1.3
		c-3.8,2.9-7,6.8-9.2,11.3c-2.2,4.4-3.4,9.3-3.5,14.3c-0.1,4.8,0.7,9.8,2.4,14.7c1.6,4.6,4.1,9.2,7.1,13.2
		c4.2,5.5,9.9,10.5,17.6,15.2v-0.2c-7.6-4.7-13.3-9.6-17.4-15.1c-6.2-8.3-9.7-18.4-9.5-27.7c0.2-10.1,5-19.6,12.6-25.4
		c0.4,0.7,0.8,1.3,1.3,1.9c-1.9,1.2-3.7,2.8-5.2,4.5c-1.5,1.7-2.8,3.6-3.8,5.7c-2,4.1-3.2,8.8-3.3,13.5c-0.2,8.8,3.2,18.1,9.4,26
		c2.8,3.5,6.1,6.8,10,9.9c1.8,1.4,3.7,2.8,5.8,4.1v-0.2c-6.5-4.2-11.6-8.8-15.6-13.9c-6.2-7.9-9.6-17.1-9.4-25.9
		c0.2-10,4.8-18.8,12.2-23.6c0.3,0.5,0.7,1,1.1,1.5c-3.6,2.1-6.6,5.3-8.7,9.3c-2,3.8-3.1,8.2-3.1,12.7c0,0.2,0,0.4,0,0.5
		c0,8,3.2,16.4,9.1,23.8c2.6,3.3,5.6,6.3,9.3,9.3c1.6,1.3,3.3,2.6,5.2,4v-0.3c-6.1-4.3-10.8-8.6-14.4-13.2c-6-7.5-9.2-16.1-9-24.2
		c0.2-9.5,4.7-17.8,11.8-21.9c0.4,0.6,0.9,1.1,1.4,1.7c0,0,0,0,0,0c-5.8,3.4-9.3,7.9-11,14.1c-0.8,3-1.1,6.1-0.9,9.3
		c0.2,3.1,1,6.2,2.3,9.1c1.2,2.7,2.8,5.5,4.8,8.1c1.8,2.4,3.9,4.7,6.3,7c2.8,2.6,5.8,5,8.8,7.3v-0.3c-3-2.3-5.9-4.6-8.7-7.2
		c-5.1-4.8-8.8-9.9-11.1-15.1c-2.5-5.8-3-12.3-1.4-18.2c1.7-6.2,5.2-10.6,10.9-14c0,0,0,0,0,0c0.3,0.4,0.7,0.8,1,1.1
		c-2.9,2.1-5.4,4.5-7.2,7.2c-2.1,3-3.4,6.2-3.8,9.5c-0.4,3.7,0,7.5,1.3,10.9c1,2.8,2.5,5.7,4.4,8.4c1.7,2.5,3.7,5,6,7.4
		c2.6,2.7,5.5,5.3,8.4,7.7v-0.3c-2.9-2.4-5.7-4.9-8.3-7.6c-4.9-5.1-8.4-10.4-10.4-15.7c-1.3-3.4-1.7-7.2-1.3-10.8
		c0.7-6.2,4.6-12.1,10.9-16.6c0.3,0.3,0.5,0.6,0.8,0.8c-7,4.7-10.8,13.5-9.4,21.9c0.5,2.9,1.6,5.9,3.2,8.9c1.4,2.5,3.2,5,5.6,7.7
		c2.7,3.1,5.6,6,8.8,8.6v-0.3c-3.1-2.6-6-5.4-8.6-8.5c-5.1-5.9-7.9-11.1-8.8-16.5c-1.4-8.4,2.4-17.1,9.3-21.7
		c0.3,0.3,0.5,0.5,0.8,0.8c-1.9,2.1-3.5,3.9-5,6c-1.7,2.4-2.8,4.7-3.4,7c-1,4-0.4,8.7,1.6,13.2c1.6,3.5,4,6.9,7.8,11
		c2,2.1,4,4.1,6.2,6v-0.3c-2.1-1.9-4.1-3.8-6.1-5.9c-3.8-4-6.2-7.4-7.8-10.9c-2-4.4-2.6-9.1-1.6-13c1.3-5.1,5-9.2,8.3-12.9
		c0.4,0.4,0.8,0.7,1.2,1.1c-3,3.1-6.4,6.5-7.7,11c-0.9,3-0.8,6.4,0.2,9.9c0.8,2.9,2.3,5.8,4.5,8.9c2.5,3.6,5.6,6.8,9,9.6v-0.3
		c-3.3-2.7-6.3-5.9-8.8-9.4c-2.2-3.1-3.7-6-4.5-8.8c-1-3.4-1.1-6.8-0.2-9.8c1.3-4.4,4.7-7.8,7.7-10.9c0.4,0.4,0.8,0.7,1.3,1.1
		c-3.3,1.9-6,5-7.3,8.6c-1.3,3.6-1.3,7.7,0,11.3c1.3,3.7,4,6.8,6.4,9.3c1.7,1.8,3.6,3.6,5.4,5.2v-0.3c-1.8-1.6-3.6-3.3-5.3-5.1
		c-2.4-2.5-5.1-5.6-6.4-9.3c-1.3-3.6-1.3-7.6,0-11.2c1.3-3.5,4-6.6,7.3-8.5c0,0,0,0,0,0c0.3,0.3,0.6,0.5,1,0.8
		c-2.5,2-4.5,4.1-5.8,6.4c-1.6,2.8-2.2,5.9-1.7,8.6c0.6,3.3,2.7,6.2,4.7,8.6c1.9,2.3,3.9,4.4,6.1,6.4v-0.3c-2.1-2-4.1-4.1-5.9-6.3
		c-2-2.4-4.1-5.3-4.7-8.5c-0.5-2.7,0.1-5.7,1.6-8.5C-29,89.1-27,87-24.5,85c0.3,0.2,0.7,0.5,1,0.7c-1.9,1.9-3.2,3.6-4.2,5.2
		c-1.3,2.2-2,4.3-2,6.4c0,0,0,0,0,0.1c0,4.5,2.9,8.3,5.1,10.9c1,1.2,2.1,2.3,3.3,3.5v-0.3c-1.1-1.1-2.1-2.2-3.1-3.3
		c-2.2-2.5-5.1-6.4-5.1-10.8c0-4.8,3.5-8.8,6.2-11.5c0.3,0.2,0.7,0.5,1,0.7c-2.9,1.9-4.7,5.1-4.9,9.1c-0.2,3.6,1,7.3,3.4,10.6
		c0.7,1,1.5,2,2.5,2.9v-0.3c-0.9-0.9-1.6-1.8-2.3-2.7c-2.4-3.3-3.6-7-3.4-10.5c0.2-4,1.9-7.2,4.9-9c0.3,0.2,0.6,0.4,0.8,0.5v-0.4
		c-6.2-3.9-11.3-9.4-14.9-15.7c0,0,0-0.1,0-0.1c0,0,0,0,0,0c-1.7-3-3-6.3-3.9-9.6c-1-3.7-1.5-7.5-1.4-11.3c0,0,0,0,0,0c0,0,0,0,0,0
		c0-1.3,0.1-2.5,0.2-3.8c0,0,0-0.1,0-0.1c0.2-2,0.5-3.9,1-5.8c0,0,0-0.1,0-0.1c1.3-5.5,3.7-10.7,7-15.2c2.2-3,4.9-5.8,8.1-8.6
		c0,0,0,0,0,0c0.1,0,0.1,0,0.1-0.1c0,0,0,0,0,0c1.2-1,2.4-1.9,3.7-2.9c0,0,0,0,0,0c0,0,0.1,0,0.1,0v-0.7c0,0.1,0,0.2-0.1,0.2
		c-0.7,0.5-1.3,0.9-1.9,1.4c0.4-1.9,1.1-3.8,2-5.5V8.3c-1,1.9-1.8,4-2.2,6.2c-0.5,0.4-1.1,0.9-1.6,1.3c0.2-4.1,1.6-8.1,3.8-11.5V3.8
		c-0.3,0.5-0.6,1-0.9,1.5c-1.9,3.3-3,6.9-3.1,10.6c-0.6,0.5-1.2,1-1.8,1.6c0.1-6,2.2-12.1,5.8-17V0.2c-0.8,1.1-1.6,2.3-2.3,3.5
		c-2.4,4.4-3.7,9.2-3.8,14c-0.4,0.4-0.9,0.8-1.3,1.2c-0.2-7.9,2.5-15.7,7.4-21.8v-0.3c-1.4,1.7-2.6,3.6-3.7,5.6
		c-2.8,5.3-4.1,11.1-3.9,16.8c-0.5,0.5-0.9,0.9-1.4,1.4c-1.7-6.3-0.3-13.7,3.8-20.3c1.4-2.2,2.9-4.2,4.6-6h-0.3
		c-1.8,1.9-3.3,3.9-4.5,5.9c-4.2,6.7-5.6,14.2-3.8,20.6c0,0,0,0,0,0c-0.3,0.3-0.6,0.7-0.9,1c-3-6.6-1.9-15,3.1-22.6
		c1.1-1.7,2.4-3.3,3.7-4.9h-0.3c-1.4,1.6-2.6,3.2-3.6,4.8c-2.3,3.6-3.9,7.5-4.5,11.3c-0.7,4.2-0.2,8.1,1.5,11.6
		c-0.4,0.5-0.8,1-1.2,1.5c-3-4.5-3.7-10.7-1.7-16.7c1.4-4.2,3.8-8.2,7.7-12.5h-0.3c-3.8,4.3-6.2,8.3-7.6,12.4
		c-0.9,2.9-1.3,5.9-1,8.8c0.3,3,1.2,5.9,2.8,8.2c-0.3,0.4-0.6,0.7-0.9,1.1c-0.1,0.2-0.3,0.4-0.4,0.6c-2.6-5.1-3.5-11-2.6-16.6
		c0.8-4.9,3.1-9.8,6.6-14.4h-0.3c-1.2,1.6-2.2,3.1-3.1,4.7c-1.8,3.2-2.9,6.4-3.5,9.7c-1,5.7,0,11.7,2.6,16.8c-0.3,0.5-0.7,1-1,1.5
		C-39,21.4-40,14.2-38.1,6.7c1-4.2,3-8.4,5.7-12.4h-0.3c-2.7,4-4.6,8.1-5.7,12.3c-1.9,7.6-0.9,14.9,2.9,20.6c0,0,0,0,0,0
		c-0.4,0.6-0.7,1.2-1.1,1.8c-3.3-3.9-5.1-9.4-4.8-15.3c0.2-4.9,1.8-10.2,4.8-15.9c0.6-1.2,1.3-2.4,2-3.5h-0.2
		c-0.7,1.1-1.3,2.3-1.9,3.4c-3,5.8-4.6,11.1-4.8,16c-0.3,6,1.5,11.6,4.9,15.5c-0.4,0.8-0.8,1.5-1.2,2.3c-4.7-6.9-6.2-16.4-4-25.5
		c1-4,2.6-8,4.8-11.8h-0.2C-39.5-1.9-41.1,2.1-42,6c-1.1,4.4-1.3,9.1-0.6,13.4c0.7,4.6,2.3,8.8,4.8,12.3c-0.2,0.5-0.4,1-0.6,1.5
		c-4.1-4.5-6.4-10.7-6.5-18C-45.2,9-43.5,2.4-40.2-4.4c0.2-0.4,0.4-0.9,0.7-1.3h-0.2c-0.2,0.4-0.4,0.8-0.6,1.2
		c-3.3,6.8-4.9,13.4-4.8,19.7c0.1,3.6,0.6,6.9,1.7,9.9c1.1,3.2,2.8,6,5,8.4c-0.3,0.6-0.5,1.3-0.7,1.9c-6.4-7-9.1-17.6-7.4-28.4
		c0.8-4.7,2.3-8.9,4.2-12.7h-0.2c-2.1,4.1-3.5,8.4-4.2,12.6c-0.9,5.2-0.7,10.5,0.5,15.4c0.6,2.5,1.5,4.9,2.7,7.2
		c1.2,2.3,2.6,4.3,4.3,6.1c-0.2,0.6-0.4,1.2-0.6,1.8c-7.6-8.8-10.7-17.8-9.6-28.4c0.5-4.9,2-9.9,4.3-14.7h-0.2
		C-47.9-0.9-49.3,4-49.8,9c-1.1,10.7,2,19.8,9.7,28.7c-0.2,0.7-0.4,1.4-0.6,2.1c-4.9-6.5-9.3-13-10.6-21.3c-0.9-6-0.4-12.5,1.4-18.3
		c0.7-2.1,1.4-4.1,2.1-5.9h-0.2C-48.7-3.9-49.4-2-50,0.1C-50.9,3-51.5,6-51.8,9.2c-0.2,3.2-0.1,6.3,0.3,9.3c0.6,3.8,1.9,7.6,4,11.5
		c1.9,3.6,4.4,6.9,6.7,10c-0.2,0.8-0.3,1.5-0.5,2.3c0,0,0,0.1,0,0.1c-5.4-5.7-9-12.4-11.1-20.7c-1-3.9-1.3-8.1-1.1-12.2
		c0.3-4.1,1-8.1,2.1-11.1c0.5-1.4,1-2.8,1.6-4.1h-0.2C-50.5-4.4-51-3-51.5-1.6c-1,3-1.8,7.1-2.1,11.2c-0.3,4.1,0.1,8.3,1.1,12.2
		c1.1,4.2,2.5,7.9,4.3,11.3c1.9,3.5,4.1,6.7,6.9,9.6c-0.2,1-0.3,2-0.4,3c-4.6-5-8-10.9-10.2-17.3c0,0,0,0,0,0c0,0,0-0.1,0-0.1
		C-55.5,17.7-55.6,6-51.7-4.6c0.1-0.4,0.3-0.8,0.4-1.1h-0.4c-0.1,0.3-0.3,0.7-0.4,1c0,0.1-0.1,0.2-0.1,0.3c-0.5-0.4-1-0.8-1.4-1.3
		h-0.3c0.5,0.5,1.1,1,1.7,1.5C-52.5-3.5-52.8-2.8-53-2C-54.2-3.2-55.5-4.4-56.6-5.7z M-56.5,8c-3.6,2.4-6.7,4.7-8.3,8.3
		c-0.8,1.7-1.1,3.7-1,5.7c0.1,1.9,0.6,3.9,1.5,5.7c1.5,3.2,3.6,5.9,7,8.9c-0.4,0.5-0.9,1-1.3,1.5c-3.3-2.7-5.5-5.9-7.1-10.2
		c-1.7-4.6-1.6-8.7,0.1-12.3c1.9-4,5-6.9,7.9-9.1C-57.3,7.1-56.9,7.6-56.5,8z M-57.9,6.5c-2.8,2.3-6,5.2-7.9,9.2
		c-0.9,1.9-1.4,4-1.3,6.2c0,2,0.5,4.1,1.2,6.3c1.6,4.3,3.8,7.6,7.1,10.3c-0.4,0.5-0.7,1-1.1,1.5c-3.7-3.4-6.1-7.4-7.4-11.8
		c-1.4-4.9-1-9.3,1-13.5c1.9-3.8,4.9-7.2,7.1-9.4c0,0,0,0,0,0C-58.7,5.6-58.3,6-57.9,6.5z M-59.2,4.9C-59.2,4.9-59.2,5-59.2,4.9
		c-2.2,2.2-5.3,5.6-7.1,9.5c-2.1,4.3-2.4,8.7-1.1,13.7c1.3,4.5,3.8,8.5,7.5,12c-0.3,0.4-0.6,0.8-0.8,1.3c-4.2-3.7-7-9-7.8-15
		c-0.8-5.8,0.6-11.9,3.8-16.8c1.2-1.8,2.7-3.5,4.8-5.7C-59.8,4.2-59.5,4.6-59.2,4.9z M-60.2,3.7c-2.1,2.1-3.6,3.9-4.8,5.7
		c-3.2,4.9-4.6,11.1-3.8,17c0.4,3,1.3,5.8,2.7,8.4c1.4,2.6,3.1,4.9,5.3,6.7c-0.3,0.5-0.6,1-0.9,1.5c-5.4-5-8.4-12.3-8.3-20.1
		C-70,15.1-66.6,7.6-61,2.8C-60.7,3.1-60.5,3.4-60.2,3.7z M-61.1,2.6c-2.8,2.4-5.1,5.6-6.7,9.1c-1.6,3.5-2.4,7.4-2.5,11.2
		c-0.1,3.9,0.6,7.6,2,11.1c1.4,3.6,3.6,6.6,6.3,9.2c-0.3,0.5-0.6,1.1-0.9,1.6c-5.5-5.4-8.6-13-8.6-21.2c0-0.2,0-0.4,0-0.6
		c0.1-8.3,3.6-16.1,9.6-21.4C-61.6,2-61.4,2.3-61.1,2.6z M-62,1.5c-3,2.7-5.4,6-7.1,9.7c-1.6,3.7-2.5,7.7-2.6,11.8
		c-0.1,8.4,3,16.4,8.7,21.9c-0.2,0.4-0.4,0.9-0.6,1.3c-3.9-4.4-6.9-9.7-8.3-14.7c-1.4-5.1-1.4-10.5,0.2-16.2c1.5-5.7,4.3-9.7,8.9-15
		C-62.5,0.8-62.2,1.1-62,1.5z M-62.9,0.2c-1.9,2.2-3.9,4.7-5.5,7.2c-1.6,2.6-2.7,5.1-3.5,7.9c-1.6,5.7-1.6,11.2-0.2,16.3
		c1.4,5,4.5,10.4,8.4,14.8c-0.1,0.2-0.2,0.4-0.3,0.6c-0.1,0.2-0.2,0.4-0.2,0.6c-4.7-5.4-8.1-10.3-9.3-16.6c-1.2-6.5-0.9-12.9,1-18
		c2.2-6,5.1-10,8.7-14.1C-63.4-0.6-63.2-0.2-62.9,0.2z M-63.8-1.2c-3.7,4.1-6.6,8.1-8.8,14.2c-1.9,5.1-2.2,11.5-1,18.1
		c1.2,6.4,4.6,11.4,9.4,16.8c-0.2,0.4-0.3,0.9-0.5,1.3c-7-6.6-11.1-16.2-11-25.8c0.1-10.1,4.1-19.5,11.1-25.7c0,0,0,0,0,0
		C-64.4-2-64.1-1.6-63.8-1.2z M-64.7-2.6C-64.8-2.6-64.8-2.5-64.7-2.6C-71.8,3.8-75.9,13.2-76,23.4c0,4.8,1,9.7,2.9,14.2
		c1.9,4.5,4.8,8.5,8.2,11.8c-0.2,0.5-0.3,1-0.5,1.4c-7.2-7.1-11.5-17.3-11.5-27.4c0,0,0,0,0,0c0-10.2,4.2-20,11.4-27.1
		C-65.2-3.3-65-2.9-64.7-2.6z M-78,24.1c0-0.1,0-0.2,0-0.4c0-10.5,4.4-21.1,11.8-28.5c0.2,0.3,0.4,0.7,0.6,1
		c-3.7,3.5-6.5,7.7-8.5,12.4c-2,4.7-3,9.7-3,14.9c0,0,0,0,0,0c0,5.1,1.1,10.3,3.1,15c2,4.7,5,9.1,8.6,12.6c-0.1,0.4-0.3,0.8-0.4,1.2
		C-73.4,44.9-77.9,34.7-78,24.1z M-77.1,5.2c0.2-0.4,0.5-0.8,0.7-1.2C-76.6,4.4-76.8,4.8-77.1,5.2C-77,5.2-77.1,5.2-77.1,5.2z
		 M-77.2,5.4C-77.2,5.4-77.2,5.4-77.2,5.4c-2.9,6.2-4.3,13.3-3.8,21c0.3,5.6,1.7,11,4.3,16c2.5,5,5.9,9.3,10.2,13
		c0,0.2-0.1,0.5-0.1,0.7c-0.1,0-0.1-0.1-0.2-0.1c0,0,0,0-0.1-0.1c-1.7-1.3-3.2-2.7-4.7-4.3c0,0,0,0,0-0.1c0,0,0,0-0.1,0
		c-6.6-7.2-10.5-16.9-10.5-26.6c0,0,0-0.1,0-0.1c0-0.6,0-1.3,0-1.9c0,0,0,0,0,0c0,0,0-0.1,0-0.1c0.1-2.6,0.5-5.1,1.1-7.6
		c0,0,0.1-0.1,0.1-0.1c0,0,0,0,0,0c0,0,0,0,0,0c0.3-1.1,0.6-2.2,1-3.2c0,0,0.1,0,0.1,0c0.1-0.1,0.1-0.2,0-0.3c0,0,0,0,0,0
		C-79.1,9.3-78.2,7.3-77.2,5.4z M-68,70.1c0,0.6,0.4,1.1,1,1.2c0.1,0.4,0.1,0.8,0.2,1.2c-0.7-0.5-1.5-1.3-1.6-2.2
		c-0.1-0.8,0.3-1.8,1-2.6c0,0.4,0.1,0.8,0.1,1.1C-67.7,69.1-68,69.6-68,70.1z M-67.3,69.1c0.1,0.7,0.2,1.3,0.2,2
		c-0.4-0.2-0.7-0.6-0.7-1C-67.8,69.7-67.6,69.3-67.3,69.1z M-68.6,70.3c0.1,1.1,1.1,2,1.8,2.5c0,0,0,0,0,0c0.1,0.4,0.2,0.8,0.2,1.2
		c-1.3-0.4-2.2-1.6-2.4-3.3c-0.2-1.6,0.3-3.6,1.4-4.4c0,0.4,0,0.8,0.1,1.1c0,0,0,0-0.1,0C-68.3,68.3-68.7,69.4-68.6,70.3z
		 M-69.1,70.7c0.2,1.8,1.2,3.1,2.6,3.5c0,0,0,0,0,0c0.1,0.5,0.2,1,0.4,1.6c-2-0.9-3.6-3-3.8-5.2c-0.3-2.2,0.7-4.6,2.4-6.1
		c0,0.5,0,1,0,1.6C-68.8,66.9-69.3,69.1-69.1,70.7z M-70.2,70.6c0.3,2.3,1.9,4.5,4.1,5.4c0.1,0.5,0.3,1,0.4,1.5
		c-2.8-1.2-4.9-3.9-5.3-6.9c-0.3-3,1-6.1,3.4-7.9c0,0.5,0,1,0,1.6C-69.4,65.7-70.5,68.2-70.2,70.6z M-71.1,70.6
		c0.4,3.2,2.6,6,5.6,7.2c0.2,0.5,0.3,1,0.5,1.6c-3.7-1.4-6.4-4.9-6.8-8.7c-0.4-3.8,1.4-7.6,4.5-9.7c0,0.5-0.1,1-0.1,1.6
		C-70,64.2-71.5,67.5-71.1,70.6z M-71,64.8c-0.9,1.8-1.3,3.9-1.1,5.8c0.2,2,1,3.8,2.3,5.5c1.3,1.6,2.9,2.8,4.8,3.5c0,0,0,0,0,0
		c0.1,0.2,0.1,0.4,0.2,0.7c-0.1,0-0.1,0-0.2,0.1c-0.1,0.2-0.3,0.3-0.4,0.5c-4.2-1.7-7.2-6-7.5-10.5c-0.3-4.4,2-8.8,5.7-11.1
		c-0.1,0.5-0.1,0.9-0.1,1.4C-68.9,61.6-70.1,63-71,64.8z M-73.1,70.3c0.3,4.6,3.3,8.8,7.5,10.6c-0.3,0.3-0.6,0.7-0.8,1
		c-4.4-2.2-7.4-7-7.5-12.3c-0.1-4.9,2.7-9.9,6.9-12.4c-0.1,0.5-0.2,1.1-0.2,1.6C-71,61.3-73.4,65.8-73.1,70.3z M-74.1,69.7
		C-74,75-71,79.9-66.5,82.1c-0.2,0.3-0.5,0.6-0.7,0.9c0,0,0-0.1-0.1-0.1c-4.6-2.5-7.7-8-7.6-13.7c0-5.3,3.2-10.6,7.8-13.1
		c0.1,0.1,0.2,0.2,0.3,0.3c0,0.2-0.1,0.4-0.1,0.6C-71.3,59.5-74.1,64.6-74.1,69.7z M-72.9,61.5c-1.5,2.4-2.2,5.1-2.3,7.8
		c0,2.7,0.7,5.6,2.1,8c1.4,2.6,3.4,4.6,5.7,5.9c0,0,0,0,0.1,0c-0.3,0.3-0.5,0.7-0.8,1c-4.8-3-7.9-8.7-7.9-14.5
		c0-6,2.9-11.6,7.6-14.6c0.4,0.3,0.8,0.6,1.2,0.9C-69.5,57.3-71.5,59.2-72.9,61.5z M-85.2,71.5c-0.4-9.5,2.6-18.5,8.7-25.9
		c0.1,0.2,0.2,0.4,0.3,0.6c-2.9,3.4-5.1,7.3-6.5,11.7c-1.4,4.3-2,8.8-1.8,13.3c0.2,4.6,1.2,9,3,13.1c1.8,4.2,4.3,7.9,7.5,11
		c-0.2,0.6-0.4,1.1-0.6,1.7C-81.1,90.2-84.9,81.2-85.2,71.5z M-74.8,97.2c-0.2,0.5-0.3,1-0.5,1.5C-81.8,91.4-85.6,82-86,71.9
		c-0.4-10.6,2.6-19.8,9-27.1c0.1,0.2,0.2,0.3,0.3,0.5c-3,3.7-5.3,7.8-6.8,12.2c-1.5,4.5-2.2,9.1-2,13.9
		C-85.1,81.3-81.3,90.4-74.8,97.2z M-84.4,71.1c-0.4-9.1,2.6-18.2,8.3-24.8c0.2,0.3,0.3,0.5,0.5,0.8c-2.7,3.2-4.8,6.9-6.2,11
		c-1.4,4.1-2,8.3-1.8,12.6c0.2,4.4,1.2,8.6,2.9,12.5c1.8,4,4.2,7.6,7.3,10.5c-0.2,0.5-0.4,1-0.6,1.5C-80.2,88.9-84,80.2-84.4,71.1z
		 M-83.4,70.7c-0.4-8.5,2.4-17,7.9-23.4c0.2,0.3,0.5,0.7,0.7,1c-2.8,2.7-4.9,6.2-6.2,10.2c-1.3,3.8-1.8,7.9-1.5,12.1
		c0.5,7.8,4,15.6,9.7,21.7c-0.2,0.4-0.4,0.8-0.6,1.2C-79.3,87.8-82.9,79.5-83.4,70.7z M-82.3,70.5c-0.6-8.7,2.2-16.7,7.6-22.1
		c0.3,0.4,0.5,0.7,0.8,1c-2.7,2.6-4.7,5.8-6,9.5c-1.2,3.5-1.7,7.4-1.5,11.3c0.5,7.4,3.7,14.5,9.2,20.4c0,0,0,0,0,0
		c-0.2,0.4-0.4,0.9-0.6,1.3C-78.4,85.9-81.8,78.2-82.3,70.5z M-81.1,70.3c-0.5-8,2.2-15.6,7.4-20.7c0.3,0.4,0.6,0.7,0.9,1.1
		c-5.1,5.1-7.9,12.4-7.6,19.5c0.2,3.6,1.1,7.2,2.6,10.5c1.6,3.3,3.8,6.2,6.5,8.4c-0.3,0.4-0.5,0.9-0.7,1.4
		C-77.5,84.7-80.7,77.7-81.1,70.3z M-80.2,70.3c-0.3-7.1,2.5-14.3,7.5-19.4c0.2,0.3,0.5,0.5,0.7,0.8c-4.9,4.8-7.6,11.7-7.3,18.6
		c0.2,3.5,1,6.9,2.5,9.9c1.5,3.1,3.6,5.8,6.3,7.8c-0.2,0.3-0.4,0.7-0.6,1C-76.4,84.6-79.8,77.6-80.2,70.3z M-79.1,70.2
		c-0.3-6.8,2.4-13.7,7.2-18.4c0.3,0.3,0.6,0.7,1,1c-2.3,2.1-4.2,4.8-5.5,7.8c-1.3,3-1.9,6.3-1.8,9.5c0.1,3.2,0.9,6.4,2.4,9.3
		c1.4,2.9,3.5,5.4,6,7.4c-0.2,0.3-0.4,0.7-0.6,1C-75.6,83.7-78.7,77.5-79.1,70.2z M-78,70.1c-0.2-6.4,2.5-12.8,7.3-17.1
		c0.3,0.3,0.5,0.5,0.8,0.8c-4.7,3.6-7.4,9.4-7.4,15.6c0,0.1,0,0.1,0,0.2c0,3,0.8,6.1,2.3,8.9c1.5,2.8,3.6,5.2,6,7
		c-0.2,0.4-0.5,0.7-0.7,1.1C-74.7,82.7-77.8,76.6-78,70.1z M-77.1,69.6c-0.1-6.2,2.7-12.1,7.4-15.7c0.4,0.4,0.8,0.7,1.2,1
		c-2.4,1.5-4.3,3.7-5.7,6.3c-1.3,2.6-2,5.5-2,8.4c0,2.9,0.8,5.8,2.2,8.4c1.4,2.6,3.4,4.7,5.8,6.2c-0.2,0.3-0.4,0.6-0.6,0.9
		C-73.8,81.7-77.1,75.5-77.1,69.6z M-88.3,41.8c0.5-4.7,2.6-8.9,6.1-12.2c0,0.3,0.1,0.6,0.1,0.9c-3.3,3-5.3,7.2-5.6,11.7
		c-0.1,2.2,0.1,4.3,0.8,6.3c0.7,2,1.7,3.8,3.1,5.5c-0.1,0.2-0.2,0.5-0.3,0.7C-87.2,50.7-88.8,45.9-88.3,41.8z M-84.2,54.9
		c-0.1,0.2-0.2,0.4-0.2,0.6c-3.3-4-4.8-8.7-4.4-13.9c0.4-5.2,2.7-9.9,6.5-13.2c0,0.3,0.1,0.6,0.1,1c-3.6,3.3-5.7,7.6-6.3,12.4
		c-0.2,2.3,0.1,4.7,1,7.2C-86.8,51.1-85.6,53.1-84.2,54.9z M-87.5,42.1c0.3-4.3,2.3-8.5,5.4-11.4c0.1,0.4,0.1,0.7,0.2,1.1
		c-2.9,2.7-4.7,6.4-5,10.3c-0.3,4,1,8,3.5,11c-0.1,0.2-0.2,0.4-0.3,0.6C-86.5,50.4-87.8,46.5-87.5,42.1z M-86.7,42.2
		c0.3-3.8,2.1-7.5,4.9-10.1c0.1,0.3,0.1,0.6,0.2,0.8c-1.4,1.2-2.5,2.8-3.3,4.6c-0.8,1.8-1.2,3.7-1.3,5.5c0,0.1,0,0.2,0,0.2
		c0,3.4,1.2,6,3.2,9.1c-0.1,0.2-0.2,0.4-0.3,0.6C-85.8,50-87,46-86.7,42.2z M-86,43.3c0-0.1,0-0.2,0-0.2c0.1-3.7,1.8-7.5,4.4-9.9
		c0.1,0.4,0.2,0.8,0.3,1.1c-1.3,1.2-2.3,2.4-3,3.7c-0.7,1.4-1.1,2.9-1.1,4.6c0,3.5,0.9,6.5,2.8,8.9c-0.1,0.2-0.2,0.4-0.3,0.7
		C-84.9,49.2-86,46.6-86,43.3z M-85.2,42.6c0-3.1,1.3-5.7,3.9-8.1c0.1,0.3,0.2,0.6,0.3,1c-2.2,1.8-3.6,4.6-3.8,7.5
		c-0.2,3,0.7,5.6,2.7,7.7c-0.1,0.2-0.2,0.4-0.4,0.7C-84.3,48.9-85.3,46-85.2,42.6z M-84.6,43c0.2-2.8,1.5-5.5,3.7-7.3
		c0.1,0.2,0.1,0.4,0.2,0.7c-1.9,1.7-3.1,4.1-3.3,6.6c-0.2,2.5,0.6,5.1,2.3,7c-0.1,0.1-0.2,0.3-0.3,0.4C-83.9,48.4-84.8,45.9-84.6,43
		z M-83.8,43c0.2-2.4,1.3-4.8,3.1-6.4c0.1,0.3,0.2,0.5,0.3,0.8c-1.7,1.2-2.7,3.2-2.8,5.6c-0.2,2.4,0.6,4.6,2.1,6
		c-0.2,0.3-0.3,0.5-0.5,0.8C-83.2,47.9-84,45.4-83.8,43z M-83,43c0.2-2.3,1.1-4.2,2.7-5.4c0.1,0.2,0.1,0.4,0.2,0.6c0,0,0,0,0,0
		c-1.3,1.1-2.1,2.9-2.2,5c-0.1,2.1,0.5,3.8,1.7,5c-0.1,0.2-0.3,0.4-0.4,0.6C-82.5,47.4-83.2,45.3-83,43z M-82.1,43.2
		c0.1-2,0.8-3.7,2.1-4.8c0.1,0.2,0.2,0.5,0.3,0.7c-1,1-1.6,2.4-1.7,4.1c-0.1,1.7,0.4,3.1,1.4,4.2c-0.1,0.2-0.3,0.4-0.4,0.6
		C-81.7,46.8-82.2,45.2-82.1,43.2z M-81.3,43.2c0.1-1.6,0.6-3,1.5-3.9c0.1,0.2,0.1,0.4,0.2,0.5c-0.8,1-1.2,2.2-1.1,3.5
		c0,1.1,0.2,2.3,1.1,3.3c-0.2,0.2-0.3,0.4-0.4,0.6C-80.9,46.2-81.3,44.8-81.3,43.2z M-80.4,43.3c0-1.2,0.3-2.3,1-3.3
		c0.1,0.3,0.2,0.5,0.3,0.8c-1.1,1.4-1,3.6,0.2,5c-0.2,0.2-0.3,0.4-0.5,0.6C-80.2,45.6-80.4,44.5-80.4,43.3z M-79,41
		c0.1,0.2,0.2,0.4,0.3,0.6c-0.5,1.1-0.4,2.5,0.3,3.6c-0.1,0.1-0.2,0.3-0.3,0.4C-79.8,44.4-79.9,42.4-79,41z M-78.5,41.9
		c0.1,0.2,0.2,0.4,0.3,0.5c0.1,0.1,0.1,0.2,0.2,0.4c-0.3,0.6-0.2,1.3,0.2,1.8c-0.1,0.2-0.3,0.3-0.4,0.5
		C-78.8,44.2-78.9,42.9-78.5,41.9z M-78,43.1c0.2,0.3,0.4,0.7,0.5,1c-0.1,0.1-0.2,0.2-0.3,0.3C-78,44.1-78.1,43.6-78,43.1z
		 M-81.8,16.6c-0.7,0.5-1.2,1.3-1.4,2.2c-0.1,0.9,0.1,1.8,0.7,2.4c0,0,0,0,0.1,0c0,0.4-0.1,0.8-0.1,1.2c-1-1-1.6-2.4-1.4-3.8
		c0.2-1.4,1.2-2.6,2.4-3.2C-81.5,15.7-81.6,16.1-81.8,16.6C-81.7,16.5-81.8,16.5-81.8,16.6z M-82.7,18.8c-0.1,0.5,0,1,0.4,1.4
		c0,0,0,0,0,0c0,0.2-0.1,0.5-0.1,0.7c-0.5-0.6-0.7-1.4-0.6-2.2c0.1-0.8,0.6-1.5,1.2-2c-0.1,0.3-0.1,0.7-0.2,1
		C-82.4,18-82.6,18.4-82.7,18.8z M-82,18.1c-0.1,0.6-0.2,1.2-0.3,1.9c-0.2-0.3-0.3-0.7-0.2-1.1C-82.4,18.5-82.3,18.2-82,18.1z
		 M-84.1,18.5c-0.2,1.5,0.4,3.2,1.6,4.1c0,0.4,0,0.9,0,1.3c-1.7-1.2-2.6-3.5-2.2-5.9c0.4-2.4,1.8-4.2,3.8-4.7
		c-0.2,0.6-0.3,1.1-0.4,1.7C-82.8,15.6-83.8,17-84.1,18.5z M-84.9,18.1c-0.2,1.2-0.1,2.5,0.3,3.5c0.4,1.1,1.1,2,2,2.6
		c0,0.2,0,0.3,0,0.5c0,0,0,0.1,0,0.1c0,0.3,0,0.6,0,0.9c-1.4-1.6-2.4-3.3-2.8-5.1c-0.5-2.1-0.3-4.2,0.7-5.9c1.1-2,2.5-3.1,4.3-3.2
		c-0.2,0.5-0.3,1-0.5,1.5C-83,13.6-84.5,15.5-84.9,18.1z M-80.4,11.4c-1.8,0.1-3.3,1.2-4.5,3.3c-1,1.7-1.2,3.9-0.7,6
		c0.5,1.9,1.5,3.7,3,5.3c0,0,0,0,0,0c-0.3,0.3-0.6,0.6-0.9,0.9c-2-2.7-3-5.9-2.8-9c0.2-3.4,2.2-6.4,5-7.6
		C-81,10.6-80.7,11-80.4,11.4z M-81.5,10.1c-2.8,1.3-4.8,4.3-5,7.8c-0.2,3.2,0.8,6.4,2.9,9.2c0,0,0,0,0,0c-0.2,0.2-0.4,0.4-0.6,0.6
		c-2.1-2.8-3.1-6.4-2.7-9.9c0.5-3.8,2-6.8,4.6-8.8C-82,9.3-81.8,9.7-81.5,10.1z M-82.4,8.8c-2.7,2.1-4.2,5.1-4.7,8.9
		c-0.2,1.8-0.1,3.7,0.4,5.4c0.5,1.7,1.3,3.3,2.3,4.7c-0.3,0.4-0.6,0.7-0.9,1.1c-2.1-3.2-3.1-7.1-2.6-10.9c0.4-3.8,2.3-7.4,5.1-10
		C-82.8,8.3-82.6,8.5-82.4,8.8z M-83,7.9c-2.8,2.6-4.7,6.3-5.2,10.1c-0.5,3.8,0.5,7.9,2.7,11.1c-0.2,0.2-0.3,0.5-0.5,0.7
		c-2.8-3-3.4-8.2-3.1-11.8c0.4-4.3,2.9-8.1,5.3-11.3C-83.5,7.1-83.3,7.5-83,7.9z M-83.9,6.6c-2.5,3.2-5,7.1-5.4,11.5
		c-0.2,2,0,4.2,0.4,6.2c0.5,2.4,1.5,4.3,2.8,5.8c-0.2,0.3-0.4,0.6-0.6,0.8c-2.6-4-3.9-8.7-3.3-12.9c0.5-4.2,2.4-8.4,5.5-12.4
		C-84.3,5.9-84.1,6.2-83.9,6.6z M-84.6,5.4c-3.1,4-5,8.3-5.6,12.6c-0.3,2.2-0.1,4.6,0.5,6.9c0.6,2.1,1.6,4.2,2.8,6.1
		c-0.2,0.4-0.4,0.7-0.7,1.1c-2.7-4.4-3.9-9.4-3.5-14c0.4-4.7,2.6-9.6,6-13.5C-84.9,4.9-84.7,5.2-84.6,5.4z M-85.1,4.4
		c-3.4,3.9-5.7,8.9-6.1,13.7c-0.2,2.4,0,5,0.7,7.5c0.6,2.3,1.6,4.6,2.9,6.7c-0.1,0.1-0.1,0.2-0.2,0.3c-0.1,0.2-0.2,0.5-0.4,0.8
		c-3-5.1-4.2-9.9-3.8-15c0.4-5.4,2.7-10.9,6.2-15.1C-85.5,3.7-85.3,4.1-85.1,4.4z M-85.8,3.2c-3.6,4.3-5.9,9.9-6.3,15.3
		c-0.2,2.7,0,5.3,0.7,7.9c0.6,2.4,1.7,4.8,3.2,7.3c-0.1,0.3-0.2,0.5-0.3,0.8c-3.4-5.8-4.8-10.7-4.4-16.1c0.5-5.8,2.8-11.5,6.7-16.2
		C-86.1,2.6-85.9,2.9-85.8,3.2z M-93.8,18.3c0.4-6.1,3-12.2,7.3-16.6c0,0.1,0.1,0.2,0.1,0.3c-4,4.7-6.4,10.5-6.8,16.4
		c-0.2,2.9,0.1,5.7,0.9,8.5c0.7,2.5,1.9,5.1,3.6,7.8c0,0,0,0,0,0c-0.1,0.2-0.1,0.3-0.2,0.5C-92.4,30.4-94.1,24.6-93.8,18.3z
		 M-89.6,40.9c0.1-1.7,0.5-3.5,1-5.1c0.1,0,0.1-0.1,0.1-0.2c1.2-3.5,3.3-6.7,6.1-9.1c0,0.2,0,0.3,0,0.5c-2.1,1.8-3.7,3.9-4.8,6.3
		c-1.1,2.3-1.9,4.9-2.1,7.7c-0.2,2.1-0.1,4.2,0.3,6.3C-89.6,45.2-89.8,43.1-89.6,40.9z M-86.6,53.6c-2.1-3.8-3.1-8.2-2.7-12.5
		c0.5-5.6,2.8-10.2,6.8-13.7c0,0.3,0,0.6,0.1,0.9c-1.9,1.7-3.5,3.7-4.6,6c-1.1,2.3-1.8,4.8-2,7.5c-0.2,2.6,0.1,5.1,0.8,7.5
		c0.8,2.4,2,4.6,3.7,6.7c-0.1,0.1-0.1,0.3-0.2,0.4C-85.4,55.3-86,54.5-86.6,53.6z M-77.2,44.5c0,0.1,0.1,0.1,0.1,0.2
		c-6.4,7.4-9.5,16.6-9.1,27.3c0.4,10.1,4.2,19.7,10.8,26.9c-0.1,0.3-0.2,0.6-0.3,1c0,0.2-0.1,0.3-0.1,0.5
		c-4.9-5.9-8.2-12.8-9.8-20.7c-1.4-6.7-1.2-13.9,0.4-20.8C-83.6,53.4-80.9,48.5-77.2,44.5z M-86.9,73c-0.2-3.3,0-6.5,0.6-9.6
		c-0.8,5.5-0.6,11,0.5,16.2c0.8,3.9,2.1,7.6,3.7,11.1c1.7,3.5,3.8,6.8,6.2,9.8c-0.1,0.4-0.2,0.8-0.3,1.2c0,0,0,0,0,0
		c-0.4-0.5-0.7-1-1.1-1.6c0,0,0,0,0,0c0,0,0,0,0-0.1c0,0,0,0-0.1-0.1c-1.3-1.9-2.5-3.9-3.5-5.9c0,0,0,0,0-0.1c0,0,0,0,0,0
		c-1.4-2.6-2.5-5.3-3.4-8c0,0,0-0.1,0-0.1c-0.6-1.9-1.1-3.7-1.5-5.6c0,0,0,0,0,0c0,0,0-0.1,0-0.1c0,0,0,0,0-0.1c0,0,0,0-0.1,0
		C-86.5,77.8-86.8,75.4-86.9,73z M-77.7,107.3c0,0.3,0,0.5,0.3,0.6c0,0.2-0.1,0.4-0.1,0.6c-0.5-0.3-0.8-0.9-0.7-1.4
		c0.1-0.6,0.5-1.2,1.1-1.3c0,0.2-0.1,0.5-0.1,0.8C-77.5,106.6-77.7,107-77.7,107.3z M-77.3,106.8c0,0.3-0.1,0.6-0.1,0.9
		c-0.1-0.1-0.1-0.2-0.1-0.4C-77.5,107.1-77.4,106.9-77.3,106.8z M-78.4,107c-0.1,0.7,0.3,1.3,0.9,1.7c0,0.3-0.1,0.6-0.1,1
		c-0.9-0.5-1.5-1.7-1.4-2.9c0.1-1.1,1.1-2.2,2.2-2.4c-0.1,0.4-0.2,0.8-0.2,1.2C-77.8,105.6-78.4,106.3-78.4,107z M-79.2,106.7
		c-0.1,0.7,0,1.3,0.3,1.9c0.3,0.6,0.7,1,1.2,1.3c0,0.4-0.1,0.8-0.1,1.3c-1.5-1.4-2.3-3.3-2.1-5.1c0.2-2,1.6-3.7,3.4-4.1
		c0,0,0,0.1,0.1,0.1c0,0,0.1,0.1,0.1,0.1c-0.2,0.6-0.3,1.3-0.4,1.9C-78,104.4-79.1,105.5-79.2,106.7z M-80.1,106.1
		c-0.2,1.9,0.7,4,2.3,5.4c0,0.4-0.1,0.9-0.1,1.3c-2-1.2-3.3-3.5-3.3-6.1c0,0,0,0,0,0c0-2.5,1.4-5,3.5-6.3c0.3,0.5,0.7,1,1,1.4
		C-78.5,102.3-79.9,104-80.1,106.1z M-87.6,106.6c0.4-5,2.5-9.7,5.8-13.4c0,0.1,0.1,0.2,0.1,0.3c-3.2,3.6-5.1,8.1-5.4,12.9
		c-0.3,4.9,0.9,9.5,3.5,13.3c-0.2,0.3-0.4,0.6-0.6,0.9C-86.9,116.5-88.1,111.6-87.6,106.6z M-84.3,120.8c-0.2,0.3-0.4,0.5-0.5,0.8
		c-2.5-4.3-3.8-10.6-3.3-16.2c0.5-5.4,2.7-8.9,6-12.8c0.1,0.1,0.1,0.3,0.2,0.4c-1.7,1.8-3,3.9-4,6.2c-1,2.4-1.7,4.8-1.9,7.3
		c-0.2,2.5,0,5.1,0.6,7.5C-86.7,116.5-85.7,118.7-84.3,120.8z M-86.8,106.4c0.3-4.7,2.2-9.2,5.3-12.7c0.1,0.2,0.2,0.4,0.3,0.6
		c-1.4,1.6-2.6,3.4-3.4,5.5c-0.9,2.1-1.4,4.3-1.5,6.5c-0.2,4.6,1,8.9,3.4,12.4c-0.3,0.3-0.5,0.6-0.7,0.9
		C-86,115.8-87.1,111.2-86.8,106.4z M-85.9,106.3c0.2-4.3,1.9-8.5,4.8-11.8c0.1,0.3,0.3,0.6,0.4,0.8c-2.7,2.7-4.2,6.3-4.5,10.9
		c-0.1,2.1,0.1,4.1,0.7,6c0.6,1.9,1.5,3.7,2.8,5.3c-0.3,0.3-0.6,0.6-0.8,0.9C-85,115.1-86.1,110.9-85.9,106.3z M-85,106.2
		c0.2-4.5,1.7-8,4.4-10.7c0.2,0.4,0.4,0.8,0.6,1.1c-1.3,1.2-2.4,2.7-3.1,4.4c-0.8,1.7-1.2,3.6-1.2,5.4c0,1.8,0.3,3.7,1,5.5
		c0.7,1.6,1.7,3.2,2.9,4.4c-0.4,0.3-0.7,0.7-1.1,1.1C-84,114.3-85.2,110.4-85,106.2z M-84.1,106.4c0.1-3.6,1.7-7.1,4.3-9.6
		c0.2,0.3,0.4,0.6,0.5,0.9c-1.2,1-2.2,2.3-3,3.8c-0.7,1.6-1.1,3.3-1.1,5c0,1.7,0.4,3.4,1.2,4.9c0.7,1.5,1.8,2.7,3,3.7
		c-0.4,0.3-0.7,0.6-1.1,0.9C-82.8,113.6-84.2,110-84.1,106.4z M-83.2,106.5c0-3.2,1.5-6.5,4-8.6c0.2,0.3,0.4,0.6,0.5,0.9
		c-2.5,1.8-4,4.9-3.8,8c0.2,3,1.9,5.9,4.6,7.5c0,0,0,0,0,0c0,0,0,0,0,0c-0.4,0.3-0.7,0.5-1.1,0.8C-81.5,113-83.1,109.8-83.2,106.5z
		 M-82.3,106.8c-0.2-3,1.3-6,3.7-7.8c0.3,0.4,0.5,0.8,0.8,1.2c-1,0.6-1.9,1.5-2.6,2.6c-0.7,1.2-1.1,2.5-1.1,3.8
		c0,1.3,0.3,2.6,0.9,3.7c0.6,1.1,1.5,2,2.5,2.6c0,0.3,0,0.7,0,1C-80.4,112.5-82.1,109.7-82.3,106.8z M-91,89.5
		c0.2-4,1.9-7.6,4.6-9.9c0.1,0.3,0.1,0.5,0.2,0.8c-2.5,2.2-4.1,5.4-4.2,8.6c-0.2,3.3,1,6.7,3.3,9.1c-0.2,0.4-0.4,0.8-0.5,1.2
		C-90.2,96.8-91.3,93.5-91,89.5z M-87.8,99.6c-0.1,0.3-0.2,0.6-0.3,0.9c-2.7-3.1-3.9-6.7-3.6-11.1c0.4-4.7,2.1-8.3,5.1-10.8
		c0,0.2,0.1,0.5,0.1,0.7c-1.4,1.2-2.6,2.7-3.4,4.6c-0.8,1.7-1.3,3.7-1.4,5.6c-0.1,2,0.1,3.8,0.7,5.5C-90,96.7-89.1,98.3-87.8,99.6z
		 M-90.3,89.1c0.2-3.2,1.7-6.3,4.1-8.4c0.1,0.2,0.1,0.5,0.2,0.7c-2.2,2-3.6,4.9-3.7,7.9c-0.1,3,1,5.7,3.1,7.7
		c-0.2,0.3-0.3,0.6-0.5,1C-89.3,95.6-90.5,92.3-90.3,89.1z M-89.6,89.3c0.1-2.9,1.4-5.7,3.5-7.7c0.1,0.2,0.1,0.5,0.2,0.7
		c-1.8,1.8-2.8,4.3-2.8,6.8c0,2.5,0.9,5,2.6,6.8c-0.2,0.3-0.3,0.6-0.5,0.8C-88.6,94.8-89.6,92.2-89.6,89.3z M-88.5,89.1
		c0-2.4,1-4.8,2.7-6.6c0.1,0.4,0.2,0.7,0.3,1.1c-1.4,1.6-2,3.1-2,5.5c0,2.1,0.8,4.1,2.2,5.6c-0.2,0.3-0.5,0.7-0.7,1
		C-87.6,94-88.5,91.6-88.5,89.1z M-87.3,89.1c0-2.3,0.5-3.8,1.8-5.3c0.1,0.4,0.2,0.8,0.4,1.2c-1,1.2-1.5,2.9-1.3,4.7
		c0.2,1.9,0.7,3.2,1.8,4.1c-0.2,0.2-0.4,0.4-0.5,0.7C-86.5,93.1-87.2,91.1-87.3,89.1z M-86.2,89.8c-0.1-1.7,0.3-3.3,1.2-4.4
		c0.1,0.3,0.2,0.6,0.3,0.9c-0.7,1.1-1,2.4-0.8,3.7c0.2,1.5,0.7,2.5,1.7,3.2c-0.2,0.2-0.4,0.4-0.6,0.7C-85.5,92.8-86,91.6-86.2,89.8z
		 M-85.3,89.9c-0.2-1.2,0.1-2.4,0.7-3.4c0.1,0.3,0.2,0.6,0.3,0.9c-0.3,1.1-0.3,2-0.2,2.9c0.1,1,0.6,1.8,1.3,2.4
		c-0.1,0.1-0.3,0.3-0.4,0.4C-84.6,92.2-85.1,91.3-85.3,89.9z M-84.2,87.7c0.1,0.2,0.1,0.4,0.2,0.6c0.1,0.3,0.2,0.5,0.3,0.8
		c-0.1,1.1,0.2,2.1,0.9,3c-0.1,0.1-0.2,0.2-0.3,0.3C-84.5,91.3-84.5,89.3-84.2,87.7z M-83.4,89.6c0.3,0.8,0.6,1.5,1,2.2
		c-0.1,0-0.1,0.1-0.2,0.1C-83.1,91.3-83.4,90.5-83.4,89.6z M-87,76.1c0,0.3,0.1,0.6,0.1,0.9c-0.9,0.9-1.7,1.6-2.5,2.6
		C-88.7,78.3-87.9,77.1-87,76.1z M-92.2,89.4c0.2-2.8,0.9-5.7,2.1-8.2c0.9-1.6,2-2.7,3.3-3.9c0.1,0.4,0.1,0.7,0.2,1.1
		c-3.1,2.5-4.9,6.2-5.2,11c-0.3,4.5,0.9,8.2,3.7,11.4c-0.1,0.2-0.1,0.5-0.2,0.7c-1.1-1.1-1.7-2-2.3-3.1
		C-91.9,95.4-92.4,92.3-92.2,89.4z M-90,99.9c0.4,0.6,0.9,1.2,1.6,1.8c-0.1,0.2-0.1,0.5-0.2,0.7C-89.2,101.6-89.6,100.8-90,99.9z
		 M-88.8,107.2C-88.8,107.2-88.8,107.2-88.8,107.2c0-3.2,0.7-6.2,1.9-8.9c0,0,0,0,0,0c0,0,0,0,0-0.1c1.1-2.3,2.5-4.3,4.4-5.9
		c0,0,0,0,0.1,0c0,0,0,0,0-0.1c0,0,0.1-0.1,0.1-0.1c0,0.1,0.1,0.1,0.1,0.2c-3.4,3.9-5.7,7.5-6.2,13c-0.2,2.7-0.1,5.7,0.5,8.6
		c0.6,3,1.6,5.7,2.9,7.9c0,0,0,0,0,0c-0.1,0.2-0.2,0.3-0.3,0.5C-87.7,117.3-88.8,112.6-88.8,107.2z M-81.5,150.4
		c-1-1.1-1.9-2.2-2.7-3.5c0,0,0,0,0,0c0,0,0-0.1,0-0.1c0,0,0,0-0.1,0c-2.8-4.4-4.1-9.8-3.5-15c0.3-3,1.2-6,2.7-8.7c0,0,0,0,0,0
		c0.1,0,0.1-0.1,0.1-0.2c1.3-2.3,2.9-4.5,4.9-6.3c0,0,0,0,0.1,0c0,0,0,0,0,0c0.4-0.4,0.8-0.7,1.2-1c0,0,0.1,0,0.1,0c0,0,0,0,0,0
		c0.3-0.2,0.6-0.4,0.9-0.6c0,0.3,0,0.5,0,0.8c-2.6,1.9-4.8,4.4-6.4,7.2c-1.6,2.8-2.6,6-3,9.3c-0.7,6.6,1.4,13.2,5.8,18.1
		C-81.5,150.1-81.5,150.3-81.5,150.4z M-81.2,149.2c-0.1,0.2-0.1,0.4-0.2,0.6c-4.3-4.9-6.3-11.3-5.6-17.8c0.7-6.5,3.9-12.3,9.1-16.2
		c0,0.5,0,1.1,0.1,1.6c0,0,0,0,0,0c-4.8,3.3-7.9,8.9-8.7,15.3C-87.3,138.7-85.4,144.5-81.2,149.2C-81.3,149.2-81.2,149.2-81.2,149.2
		z M-81.2,149c-4-4.6-5.9-10.4-5.2-16.3c0.7-6.3,3.8-11.8,8.5-15.1c0,0.6,0.1,1.2,0.1,1.8c-4.5,3.1-7.6,8.3-8.2,13.9
		c-0.6,5.6,1.1,10.9,5,15C-81,148.5-81.1,148.8-81.2,149z M-80.9,148c-3.7-4-5.5-9.3-4.9-14.7c0.6-5.5,3.6-10.6,8-13.7
		c0.1,0.6,0.1,1.2,0.2,1.8c-4.6,3.3-7.1,7-7.7,11.7c-0.7,5.5,1.1,10.8,4.7,13.9C-80.6,147.4-80.7,147.7-80.9,148z M-80.4,146.8
		c-3.5-3.1-5.2-8.3-4.5-13.7c0.6-4.6,3-8.3,7.5-11.5c0,0.1,0,0.3,0.1,0.4c0,0.3,0.1,0.5,0.1,0.8c0,0,0,0-0.1,0
		c-4.1,3-6.3,6.4-6.9,10.7c-0.3,2.2-0.1,4.5,0.7,6.7c0.8,2.1,2,4,3.6,5.4C-80.1,146-80.3,146.4-80.4,146.8z M-79.8,145.4
		c-3.2-3-4.8-7.5-4.2-11.8c0.6-4.2,2.7-7.6,6.8-10.5c0.1,0.4,0.1,0.8,0.2,1.2c-1.6,1-2.9,2.4-4,4c-1.1,1.7-1.7,3.6-1.9,5.5
		c-0.2,1.9,0,3.9,0.7,5.8c0.6,1.8,1.6,3.4,2.9,4.8C-79.5,144.7-79.7,145-79.8,145.4z M-79.3,144.1c-2.6-2.7-3.9-6.6-3.5-10.3
		c0.4-3.7,2.6-7.3,5.7-9.3c0.1,0.4,0.1,0.7,0.2,1.1c0,0,0,0,0,0c-1.4,1-2.6,2.2-3.5,3.5c-0.9,1.4-1.4,3-1.6,4.7
		c-0.3,3.4,0.8,6.9,3.1,9.4C-78.9,143.4-79.1,143.8-79.3,144.1z M-78.6,142.9c-2.2-2.4-3.4-5.8-3-9.1c0.3-3.2,2-6,5-8
		c0.1,0.5,0.2,0.9,0.3,1.4c-2.6,1.5-4.2,4-4.5,6.8c-0.3,3.1,0.7,6,2.8,7.9C-78.2,142.2-78.4,142.5-78.6,142.9z M-77.9,141.6
		c-2-1.8-3-4.6-2.7-7.7c0.3-2.8,1.8-5.1,4.3-6.6c0.1,0.4,0.2,0.7,0.3,1.1c-1.9,1.2-3.2,3.3-3.4,6c-0.2,2.4,0.5,4.6,2.3,6.2
		C-77.4,140.9-77.7,141.2-77.9,141.6z M-77.1,140.3c-1.7-1.5-2.4-3.6-2.2-6c0.3-2.5,1.4-4.6,3.3-5.8c0.1,0.4,0.2,0.7,0.3,1.1
		c-1.5,0.9-2.5,2.7-2.7,4.8c-0.2,1.8,0.5,3.8,1.8,5.1C-76.7,139.8-76.9,140.1-77.1,140.3z M-76.4,139.4c-1.2-1.3-1.9-3.1-1.7-4.9
		c0.2-2,1.1-3.7,2.5-4.6c0.1,0.3,0.2,0.6,0.3,0.8c-1.1,0.7-1.7,1.9-1.9,3.8c-0.2,1.5,0.3,3.1,1.3,4.2
		C-76.1,138.9-76.3,139.1-76.4,139.4z M-75.3,137.9c-0.2,0.2-0.4,0.4-0.5,0.7c-1-1.1-1.4-2.6-1.3-4c0.2-1.8,0.8-3,1.8-3.6
		c0.1,0.2,0.2,0.5,0.2,0.7c-0.8,0.9-1.3,2.1-1.3,3.3C-76.3,136.2-76.1,137.1-75.3,137.9z M-75.1,137.7c-0.8-0.8-1-1.6-1-2.8
		c0-1.1,0.4-2.2,1.2-3c0.1,0.4,0.3,0.7,0.4,1.1c-0.6,0.5-1,1.3-1,2.1c0,0.8,0.3,1.6,0.9,2.2C-74.8,137.4-75,137.5-75.1,137.7z
		 M-74.1,136.6c-0.1,0.2-0.3,0.3-0.4,0.5c-0.5-0.5-0.8-1.3-0.8-2c0-0.7,0.4-1.4,0.9-1.9c0.1,0.3,0.2,0.6,0.4,0.9
		c-0.4,0.3-0.5,0.9-0.5,1.4C-74.6,136-74.5,136.3-74.1,136.6z M-74,136.4c-0.3-0.3-0.5-0.5-0.4-0.9c0-0.4,0.1-0.9,0.4-1.2
		c0.1,0.3,0.2,0.5,0.3,0.8c-0.1,0.1-0.2,0.2-0.2,0.4c0,0.2,0.1,0.4,0.3,0.6C-73.7,136.2-73.8,136.3-74,136.4z M-73.6,135.3
		c0.1,0.2,0.2,0.3,0.2,0.5c0,0-0.1,0.1-0.1,0.1c-0.2-0.1-0.2-0.3-0.2-0.4C-73.7,135.4-73.6,135.3-73.6,135.3z M-53.6,157.4
		c0,0.2,0,0.5,0,0.7c-6.8-4.3-12.4-10.1-16.5-16.9c0,0,0,0,0,0c0,0,0-0.1,0-0.1c0,0,0,0,0,0c-1-1.7-1.9-3.4-2.8-5.2c0,0,0-0.1,0-0.1
		c-2-4.3-3.4-9-4.1-13.7c-0.6-4.4-0.7-8.8-0.2-13.1c0,0,0,0,0.1-0.1c0,0,0-0.1,0-0.1c1.2-10.2,5.4-20,12.2-27.7
		c-4.3,5.4-7.5,11.9-9.5,18.9c-2,7.2-2.5,14.8-1.5,21.8c0.5,3.6,1.4,7.2,2.7,10.6c1.2,3.4,2.8,6.6,4.7,9.7c1.9,3,4.1,5.9,6.6,8.5
		C-59.4,153-56.6,155.3-53.6,157.4C-53.6,157.4-53.6,157.4-53.6,157.4z M-53.5,156.2c0,0.3,0,0.6,0,0.9c-12-8.1-20-21-22.2-35.5
		c-2.1-14.1,2.2-29.8,11.1-40.9c0.1,0.2,0.1,0.4,0.2,0.6c-2.2,2.8-4,5.8-5.6,9c-1.5,3.1-2.8,6.5-3.6,9.9c-0.9,3.4-1.4,6.9-1.6,10.4
		c-0.2,3.5,0,7.1,0.5,10.6c1,7.1,3.4,13.7,7,19.7C-64.1,146.9-59.3,152.1-53.5,156.2C-53.5,156.2-53.5,156.2-53.5,156.2z M-53.5,156
		c-11.5-8.3-19-20.6-21-34.8c-2-14.1,1.7-28.6,10.2-39.6c0.1,0.2,0.2,0.5,0.3,0.7c-2.1,2.7-3.8,5.6-5.3,8.7
		c-1.5,3.1-2.6,6.4-3.4,9.8c-0.8,3.3-1.3,6.8-1.4,10.3c-0.1,3.5,0,7,0.6,10.4c1,6.7,3.3,13,6.7,18.6c3.3,5.4,7.8,10.5,13.4,15
		C-53.5,155.4-53.5,155.7-53.5,156z M-53.5,154.8c-11.4-9.3-17.9-20.2-19.9-33.4c-2.1-14,1.3-28.2,9.5-38.9c0.1,0.3,0.2,0.5,0.3,0.8
		c-3.8,5.3-6.5,11.2-8,17.6c-1.5,6.3-1.7,12.8-0.8,19.5c0.5,3.2,1.3,6.4,2.3,9.5c1.1,3.1,2.4,6.1,4.1,8.9
		c3.3,5.7,7.6,10.6,12.7,14.6C-53.4,153.8-53.5,154.3-53.5,154.8z M-53.4,153.1c-10.1-7.9-17-19.8-18.8-32.7
		c-1.9-13.3,1.2-26.4,8.7-36.8c0.2,0.4,0.3,0.8,0.5,1.2c-6.9,10.7-9.7,23.4-7.8,35.6c1,6.2,3,12.1,6,17.5c3,5.3,6.9,10,11.6,14
		C-53.3,152.2-53.3,152.6-53.4,153.1z M-53.2,151.5c-9.4-7.9-15.5-18.9-17.4-31.2c-1.9-12.1,0.9-24.6,7.7-35.3
		c0.2,0.5,0.5,1,0.7,1.5c0,0,0,0,0,0c0,0-0.1,0-0.1,0c-2.1,2.8-3.7,5.9-5,9.4c-1.1,3.2-1.9,6.6-2.4,10.4c-0.9,7.8,0.2,16,3.4,23.9
		c2.9,7.1,7.3,13.8,13.2,20.1C-53.1,150.7-53.2,151.1-53.2,151.5z M-53,150.1c-5.8-6.2-10.2-12.9-13-19.9
		c-3.2-7.9-4.4-16.1-3.4-23.8c1-7.9,3.4-14.4,7.3-19.7c0,0,0-0.1,0-0.1c0.1,0.2,0.2,0.5,0.3,0.7c0.1,0.3,0.3,0.6,0.5,0.9
		c-2.7,4.7-4.6,9.8-5.7,15.2c-1.1,5.5-1.2,11-0.4,16.5c0.8,5.5,2.5,10.7,5,15.6c2.5,4.9,5.8,9.2,9.8,12.9
		C-52.8,148.8-52.9,149.4-53,150.1z M-52.4,146.6c-0.1,0.5-0.2,0.9-0.3,1.4c-7.8-7.3-13-17.3-14.6-28.3c-1.6-10.8,0.5-21.9,6-31.4
		c0.2,0.5,0.5,0.9,0.7,1.4c-2.4,4.4-4.1,9.2-5,14.3c-0.9,5-1,10.1-0.3,15.3C-64.4,129.4-59.7,139.2-52.4,146.6
		C-52.4,146.6-52.4,146.6-52.4,146.6z M-52.3,146.1c0,0.1,0,0.1,0,0.2c-7.2-7.4-11.9-17-13.2-27.2c-1.4-10.4,0.4-20.5,5.2-29.3
		c0.3,0.5,0.6,1,0.9,1.5c-1.9,4.5-3.3,9.1-4.1,13.7c-0.9,4.9-1,9.7-0.5,14.3c1.1,10.1,5.5,18.9,12.2,25
		C-52,145-52.2,145.5-52.3,146.1z M-51.8,144.1c-6.7-6-11-14.8-12.1-24.8c-1-8.8,0.6-18.3,4.5-27.7c0.4,0.7,0.9,1.4,1.3,2
		c0,0,0,0,0,0c-2.2,3.7-3.7,7.9-4.5,12.2c-0.8,4.2-0.9,8.6-0.3,13.1c0.6,4.4,1.9,8.6,3.9,12.6c2,4,4.6,7.5,7.7,10.6
		C-51.5,142.8-51.7,143.5-51.8,144.1z M-51.2,142c-6.2-6.2-10.3-14.3-11.4-23c-1.2-9.1,0.4-17.8,4.7-25.1c0.4,0.6,0.8,1.1,1.1,1.6
		c-1.9,3.7-3.2,7.6-4,11.5c-0.8,4.1-1,8.2-0.6,12.2c0.4,4.3,1.6,8.2,3.4,11.7c1.9,3.7,4.4,6.8,7.5,9.2
		C-50.8,140.7-51,141.3-51.2,142z M-50.5,139.9c-6-4.6-9.8-12-10.7-20.7c-0.8-7.8,0.8-15.9,4.6-23.5c0.5,0.6,0.9,1.2,1.4,1.8
		c-1.8,3.5-3.1,7-4,10.4c-1,3.8-1.3,7.6-1,11.2c0.3,3.8,1.4,7.6,3.1,10.8c1.8,3.4,4.3,6.3,7.3,8.4
		C-50.1,138.9-50.3,139.4-50.5,139.9z M-49.9,138.1c-5.8-4-9.6-11.1-10.2-19c-0.5-6.7,1.2-14.1,4.9-21.4c0.3,0.4,0.6,0.8,0.9,1.1
		c-1.8,3.3-3.1,6.5-3.9,9.8c-0.9,3.6-1.3,7.1-1,10.5c0.5,6.7,3.8,12.3,10.1,17C-49.3,136.8-49.6,137.5-49.9,138.1z M-48.9,135.9
		c-6.2-4.7-9.5-10.2-10-16.8c-0.5-6.4,1.1-13.2,4.8-20.1c0.3,0.4,0.6,0.7,0.9,1.1c0,0,0,0,0,0c-3.3,6.3-4.7,12.3-4.2,18.3
		c0.2,3.3,1.2,6.5,2.8,9.2c1.6,2.9,3.9,5.1,6.6,6.5C-48.4,134.7-48.6,135.3-48.9,135.9z M-48,134c-5.2-2.7-8.7-8.7-9.2-15.6
		c-0.4-5.9,0.9-11.8,4.2-18.1c0.3,0.4,0.7,0.8,1,1.2c-2.3,4-4.9,10.2-4.2,16.8c0.3,3,1.3,5.9,2.8,8.4c1.6,2.5,3.7,4.5,6.2,5.7
		C-47.4,132.9-47.7,133.4-48,134z M-47.1,132.3c-4.8-2.4-8.3-7.9-8.9-14c-0.6-6.6,1.9-12.7,4.2-16.7c0.4,0.4,0.7,0.8,1.1,1.2
		c-1.6,2.3-2.7,4.8-3.5,7.2c-0.8,2.8-1.1,5.5-0.9,8.1c0.3,2.7,1.3,5.4,2.8,7.7c1.6,2.3,3.7,4.1,6.1,5
		C-46.5,131.3-46.8,131.8-47.1,132.3z M-45.4,119.1c-0.5-0.1-0.9-0.5-1.2-0.9c-0.3-0.5-0.3-1.2,0-1.7
		C-46.2,117.3-45.8,118.2-45.4,119.1z M-46.6,116.2c-0.4,0.6-0.4,1.4-0.1,2c0.3,0.6,0.8,1,1.5,1.1c0.2,0.4,0.4,0.8,0.6,1.2
		c-1.1-0.1-2.2-0.8-2.6-1.8c-0.5-1-0.3-2.2,0.4-3.1C-46.8,115.8-46.7,116-46.6,116.2z M-47,115.4c-0.8,0.9-1,2.3-0.5,3.4
		c0.5,1.1,1.7,1.9,2.9,1.9c0.2,0.5,0.5,0.9,0.8,1.4c-1.2-0.2-2.3-0.7-3.1-1.4c-1.1-0.8-1.7-2-1.8-3.2c-0.1-1.1,1-3.1,1.2-3.4
		c0,0,0,0,0,0c0,0,0,0,0,0C-47.3,114.6-47.1,115-47,115.4z M-47.7,113.4c0.1,0.2,0.1,0.4,0.2,0.5c0,0,0,0,0,0
		c-0.2,0.1-0.6,0.9-0.8,1.4c-0.2,0.5-0.6,1.5-0.6,2.2c0.1,1.3,0.8,2.5,1.9,3.4c0.9,0.7,2.1,1.2,3.4,1.4c0.3,0.5,0.5,0.9,0.8,1.4
		c-1.7-0.4-3.2-1.1-4.4-2.1c-1.4-1.2-2.3-2.9-2.5-4.6c-0.2-1.8,0.5-3.6,1.8-4.7C-47.9,112.7-47.8,113.1-47.7,113.4z M-48.1,112.2
		c-1.4,1.1-2.1,3-1.9,4.9c0.2,1.7,1.1,3.4,2.6,4.7c1.2,1.1,2.9,1.8,4.7,2.2c0.2,0.3,0.4,0.6,0.6,0.9c0,0,0,0,0,0
		c-3.4,0.2-6.7-1.8-8.1-4.9c-1.4-3.1-0.7-6.9,1.7-9.4c0,0,0,0,0,0C-48.4,111.1-48.2,111.6-48.1,112.2z M-48.5,110.5c0,0-0.1,0-0.1,0
		c-1.2,1.2-2,2.8-2.3,4.5c-0.3,1.7-0.1,3.5,0.6,5c0.7,1.5,1.9,2.9,3.4,3.8c1.4,0.9,3.1,1.3,4.7,1.3c-0.3,0.4-0.7,0.8-1,1.2
		c-3.7-0.6-7-3.4-8.1-6.9c-1.1-3.5-0.1-7.7,2.5-10.3C-48.7,109.6-48.6,110-48.5,110.5z M-48.9,108.9c-1.3,1.3-2.3,2.9-2.8,4.8
		c-0.5,2-0.5,4,0.1,5.8c0.6,1.8,1.7,3.5,3.3,4.8c1.4,1.2,3.1,2,4.9,2.3c-0.4,0.5-0.7,1-1,1.4c-4-1.6-7.2-5.3-8.2-9.5
		c-0.9-4.2,0.4-8.8,3.2-11.9C-49.2,107.4-49.1,108.2-48.9,108.9z M-49.4,106.4c-1.5,1.5-2.5,3.4-3.2,5.5c-0.6,2.2-0.7,4.5-0.3,6.7
		c0.5,2.2,1.5,4.2,3,5.9c1.4,1.6,3.2,2.9,5.2,3.7c-0.3,0.4-0.5,0.8-0.8,1.2c-4.3-2.1-7.5-6.4-8.4-11.2c-0.8-4.8,0.7-9.9,4.1-13.3
		C-49.5,105.4-49.5,105.9-49.4,106.4z M-49.7,103.8c0,0.3,0.1,0.5,0.1,0.8c-1.7,1.7-3,3.9-3.8,6.3c-0.8,2.4-1,5-0.5,7.4
		c0.4,2.4,1.5,4.7,3,6.8c1.5,1.9,3.4,3.5,5.5,4.5c-0.2,0.4-0.5,0.7-0.7,1.1c-4.7-1.9-8.2-6.9-8.7-12.6c-0.5-4.8,1.1-10.2,4.3-15.1
		C-50.3,103.2-50,103.5-49.7,103.8z M-36.6,71.1c-0.2,0.2-0.4,0.3-0.6,0.5c-0.3-0.5-0.2-0.8,0.2-1.3C-36.9,70.6-36.7,70.8-36.6,71.1
		z M-37.1,70.1c-0.4,0.5-0.6,0.9-0.3,1.6c-0.2,0.2-0.5,0.4-0.7,0.6c-0.6-1-0.4-2.4,0.5-3.1C-37.4,69.5-37.3,69.8-37.1,70.1z
		 M-37.6,69.1c-1,0.8-1.3,2.4-0.6,3.4c-0.3,0.3-0.6,0.5-0.9,0.8c-1.2-1.9-0.9-4.3,0.7-5.9C-38.2,68-37.9,68.5-37.6,69.1z
		 M-38.5,67.2c-0.9,0.8-1.4,1.9-1.6,3c-0.1,1.1,0.1,2.3,0.8,3.2c-0.3,0.3-0.7,0.7-1,1c-0.9-1.7-1.2-3-1.2-4.4c0-1.6,1-3.4,2.4-4.3
		C-38.9,66.2-38.7,66.7-38.5,67.2z M-39.2,65.5c-1.4,0.9-2.5,2.8-2.5,4.5c0,1.5,0.3,2.8,1.3,4.6c-0.3,0.4-0.7,0.7-1,1.1
		c-1.3-1.8-1.9-4.1-1.6-6.3c0.3-2.1,1.5-4.1,3.2-5.5C-39.6,64.4-39.4,65-39.2,65.5z M-39.8,63.7c-1.8,1.4-3,3.4-3.3,5.6
		c-0.3,2.3,0.3,4.7,1.7,6.5c-0.2,0.2-0.3,0.4-0.5,0.6c-0.1,0.1-0.2,0.2-0.3,0.3c-2.1-2.1-3-4.8-2.7-7.7c0.3-2.9,2-5.7,4.5-7.3
		C-40.3,62.4-40.1,63.1-39.8,63.7z M-40.5,61.5C-40.5,61.5-40.5,61.5-40.5,61.5c-1.2,0.9-2.3,2-3.1,3.3c-0.8,1.3-1.3,2.8-1.5,4.3
		c-0.3,3,0.6,5.7,2.8,7.9c-0.3,0.4-0.6,0.7-0.8,1.1c-2.6-2.1-3.9-5.6-3.5-9.4c0.4-3.5,2.7-6.6,5.9-8.1
		C-40.7,60.9-40.6,61.2-40.5,61.5z M-40.8,60.4c-3.3,1.5-5.6,4.7-6.1,8.3c-0.5,3.8,0.9,7.5,3.5,9.6c-0.2,0.3-0.5,0.7-0.7,1.1
		c0,0,0,0,0,0c-3-2.4-4.6-6.6-4-10.9c0.5-4,3.3-7.6,7-9.3C-41,59.6-40.9,60-40.8,60.4z M-41.1,58.9c-3.8,1.7-6.6,5.4-7.1,9.5
		c-0.3,2.1-0.1,4.2,0.6,6.1c0.7,2,1.9,3.7,3.5,5c0,0,0,0,0.1,0c-0.2,0.3-0.4,0.7-0.6,1c-3.6-3-5.5-8-4.8-12.7
		c0.7-4.8,3.8-8.9,8.1-10.7C-41.3,57.7-41.2,58.3-41.1,58.9z M-41.5,56.9c-2.1,0.9-4.1,2.4-5.5,4.3c-1.4,1.9-2.4,4.2-2.8,6.6
		c-0.7,4.8,1.2,9.8,4.9,12.9c-0.3,0.5-0.6,1-0.9,1.6c-4.1-3.7-6.3-9.5-5.5-15c0.8-5.5,4.5-10.5,9.4-12.9
		C-41.7,55.3-41.6,56.1-41.5,56.9z M-41.8,54.2c-2.5,1.2-4.7,3-6.4,5.3c-1.7,2.3-2.9,5-3.3,7.8c-0.4,2.8-0.1,5.7,1,8.4
		c1,2.7,2.6,5,4.6,6.8c-0.1,0.2-0.2,0.4-0.3,0.5c-0.1,0.2-0.2,0.5-0.3,0.7c0,0,0,0,0,0c-4.9-3.8-7.2-9.8-6.3-16.4
		c0.8-6.3,5.1-11.9,10.8-14.5C-41.9,53.3-41.8,53.7-41.8,54.2z M-41.9,52.6c-2.8,1.3-5.4,3.3-7.3,5.8c-2,2.6-3.3,5.7-3.7,8.8
		c-0.4,3.2-0.1,6.4,1,9.2c1.1,3,2.9,5.5,5.4,7.4c0,0,0,0,0.1,0c-0.2,0.5-0.4,1-0.6,1.5c-5.3-4.6-8.1-12.1-7.1-19.1
		c1-7,5.8-13.2,12.2-16.1C-42,51-42,51.8-41.9,52.6z M-42,50c-6.5,2.9-11.4,9.3-12.4,16.3c-1.1,7.1,1.8,14.6,7.2,19.3
		c-0.2,0.6-0.5,1.3-0.7,1.9c-5.9-5.3-8.8-13.6-7.6-21.7c1.2-7.9,6.3-14.6,13.6-18C-42,48.6-42,49.3-42,50z M-41.8,46.2
		c0,0.5-0.1,1-0.1,1.4c-3.6,1.7-6.8,4.2-9.2,7.3c-2.4,3.2-4,6.9-4.6,10.9c-0.6,4-0.2,8.2,1.2,12.1c1.4,3.8,3.6,7.2,6.6,9.9
		c-0.2,0.6-0.4,1.2-0.5,1.8c-6.7-5.7-10.3-14.9-9-23.6c1.3-9.5,7.1-17.7,14.7-21C-42.5,45.4-42.1,45.8-41.8,46.2z M-43,44.9
		c-3.9,1.7-7.3,4.6-10,8.5c-2.5,3.7-4.2,8.1-4.8,12.6c-1.2,8.8,2.4,18.1,9.2,23.8c-0.1,0.5-0.2,0.9-0.3,1.4
		c-7.2-6-11.2-15.5-10.3-25.1c0.9-10,6.5-18.9,14.6-23.3C-44.1,43.5-43.6,44.2-43,44.9z M-44.8,42.6c-4.1,2.2-7.6,5.6-10.2,9.8
		c-2.5,4.1-4.1,8.8-4.5,13.7c-0.4,4.8,0.3,9.7,2.2,14.1c1.8,4.4,4.7,8.2,8.3,11.2c-0.1,0.5-0.2,0.9-0.3,1.4
		c-7.9-6.2-12.3-16.1-11.7-26.6c0.6-10.8,6.2-20.7,14.6-25.8C-45.9,41.2-45.3,41.9-44.8,42.6z M-46.5,40.3
		c-4.3,2.6-7.9,6.4-10.5,11.1c-2.5,4.5-4,9.6-4.2,14.9c-0.6,10.6,3.8,20.6,11.9,26.8c-0.1,0.6-0.2,1.3-0.3,1.9
		c-8.5-6.5-13.5-17.6-13.2-28.9c0.3-10.2,5.5-20.2,14.9-28.1C-47.5,38.7-47,39.5-46.5,40.3z M-48.1,37.7c-4.5,3.8-8,8-10.6,12.6
		c-2.8,5-4.3,10.3-4.4,15.7c-0.1,5.6,1,11.2,3.3,16.3c2.3,5.1,5.8,9.6,10.1,12.9c-0.1,0.6-0.1,1.3-0.2,1.9
		c-6.9-5.5-11.8-13.6-13.6-22.3c-1.7-8.7-0.3-18.1,3.9-25.8c2.7-5,6.5-9.3,10.2-13.5C-48.9,36.3-48.5,37-48.1,37.7z M-49.5,35.1
		c0,0.1,0.1,0.1,0.1,0.2c0,0,0,0,0,0c-3.7,4.2-7.5,8.6-10.3,13.6c-2.1,3.9-3.5,8.2-4.2,12.6c-0.7,4.5-0.6,9,0.3,13.3
		c0.9,4.4,2.5,8.5,4.9,12.4c2.4,3.9,5.3,7.2,8.8,10c0,0,0.1,0,0.1,0c0,0.3,0,0.5,0,0.8c0,0.4,0,0.9,0,1.3c-7.9-7.3-13-16-14.6-25.1
		c-1.9-10.4,0-21,5.3-28.9c3.1-4.6,5.7-7.9,9.2-11.5C-49.9,34.3-49.7,34.7-49.5,35.1z M-50.2,33.7c-3.5,3.7-6.1,6.9-9.2,11.6
		c-2.7,4.1-4.5,8.8-5.4,14c-0.8,4.9-0.8,10.1,0.1,15.1c1.7,9.2,6.8,17.9,14.9,25.3c0,0.6,0,1.1,0,1.7C-59.9,92-65.5,80.2-66.1,67.3
		c-0.6-14,5.2-27,15.4-34.7C-50.5,32.9-50.4,33.3-50.2,33.7z M-50.8,32.4c-2.6,2-4.9,4.3-7,6.9c-2,2.6-3.7,5.4-5,8.5
		c-2.6,6-3.8,12.8-3.5,19.5c0.3,6.6,1.9,12.9,4.8,18.9c2.8,5.7,6.7,10.9,11.7,15.5c0,0.5,0.1,1.1,0.1,1.6
		c-4.6-4.7-8.4-9.9-11.3-15.3c0,0,0,0,0,0c0-0.1,0-0.1,0-0.1c0,0,0,0-0.1,0c-2-3.8-3.5-7.7-4.5-11.7c0,0,0,0,0,0c0,0,0,0,0,0
		c0,0,0-0.1-0.1-0.1c-0.6-2.3-1-4.7-1.2-7.1c0,0,0-0.1,0-0.1c0,0,0-0.1-0.1-0.1c0-0.4-0.1-0.9-0.1-1.3c-0.2-2.3-0.1-4.6,0.1-6.8
		c0,0,0,0,0,0c0,0,0.1-0.1,0-0.1c0,0,0,0,0,0c0-0.5,0.1-1,0.2-1.5c0,0,0-0.1,0-0.1c0.1-0.6,0.2-1.2,0.3-1.8c0,0,0.1-0.1,0-0.1
		c0,0,0,0,0,0c1.8-10.2,7.3-19.5,15.1-25.1c0.1,0,0.1,0,0.1-0.1c0,0,0,0,0,0c0,0,0.1,0,0.1-0.1C-51,31.8-50.9,32.1-50.8,32.4z
		 M-53.9,22.2c0.1,0.7,0.3,1.4,0.5,2.1c-0.5-0.3-0.9-0.7-1-1.3c-0.1-0.6,0-1.2,0.4-1.7C-54.1,21.7-54,22-53.9,22.2z M-54.1,21.2
		C-54.2,21.2-54.2,21.2-54.1,21.2c-0.5,0.6-0.7,1.3-0.5,2c0.2,0.7,0.7,1.2,1.3,1.5c0,0,0,0,0,0c0.1,0.4,0.2,0.9,0.3,1.3
		c-1.1-0.4-2-1.4-2.3-2.5c-0.3-1.2,0.1-2.5,1-3.3C-54.3,20.5-54.2,20.8-54.1,21.2z M-54.4,19.8c-1,0.9-1.5,2.3-1.2,3.6
		c0.3,1.3,1.3,2.3,2.6,2.7c0.2,0.7,0.4,1.3,0.6,2c-2.5-1-4.2-3.6-4.1-6.3c0-1.2,0.6-2.8,1.9-3.4C-54.5,18.9-54.5,19.4-54.4,19.8z
		 M-54.6,18.1c-1.5,0.6-2,2.4-2.1,3.7c-0.1,2.8,1.8,5.6,4.4,6.6c0.2,0.5,0.4,1,0.6,1.6c-1.9-0.7-3.5-1.8-4.6-3.1
		c-1.3-1.6-2-3.7-1.7-5.5c0.3-1.9,1.6-3.6,3.3-4.2C-54.7,17.5-54.6,17.8-54.6,18.1z M-54.7,16.9c-0.9,0.3-1.6,0.9-2.3,1.6
		c-0.6,0.8-1.1,1.8-1.2,2.8c-0.3,1.9,0.4,4,1.8,5.7c1.2,1.4,2.8,2.5,4.8,3.2c0.1,0.3,0.3,0.7,0.4,1c-0.1,0.1-0.2,0.1-0.3,0.2
		c-2.7-1-4.7-2.3-6.2-4c-1.8-2.1-2.6-4.7-2.2-7.1c0.5-2.6,2.7-4.6,5-4.8C-54.8,16-54.8,16.5-54.7,16.9z M-54.9,15.4
		c-2.5,0.2-4.7,2.3-5.2,5c-0.5,2.4,0.3,5.1,2.2,7.3c1.4,1.7,3.5,3,6.1,4c-0.3,0.2-0.6,0.5-0.9,0.7c0,0,0,0,0,0
		c-2.9-1-5.3-2.7-6.8-4.9c-1.7-2.4-2.2-5.5-1.4-8.1c0.9-2.7,3.4-4.8,6-5C-54.9,14.7-54.9,15-54.9,15.4z M-54.9,14.1
		c-1.3,0.1-2.6,0.6-3.8,1.6c-1.1,0.9-2,2.2-2.5,3.6c-0.4,1.3-0.5,2.8-0.2,4.3c0.3,1.4,0.8,2.8,1.7,4c1.5,2.2,4,3.9,6.9,4.9
		c-0.5,0.4-1,0.8-1.5,1.3c-2.2-1.1-4-2.6-6.1-5.2c-2-2.3-2.9-5.3-2.4-7.8c0.4-2.4,2-4.3,3.2-5.5c1.4-1.3,2.9-2.3,4.5-3.2
		c0.1-0.1,0.2-0.1,0.3-0.2C-55,12.6-55,13.3-54.9,14.1z M-55,11.6c-0.1,0.1-0.3,0.2-0.4,0.2c-1.6,1-3.1,1.9-4.5,3.3
		c-1.2,1.2-2.8,3.1-3.2,5.6c-0.2,1.4-0.1,2.8,0.4,4.2c0.4,1.3,1.2,2.6,2.1,3.7c2.1,2.5,3.9,4,6.1,5.2c-0.4,0.4-0.8,0.7-1.2,1.1
		c-2.4-1.4-4.3-3.3-6.3-6.1c-1.9-2.7-2.7-5.9-2.2-8.7c0.4-2.2,1.7-4.4,3.6-6.4c1.7-1.7,3.7-3,5.6-4.3C-55,10.2-55,10.9-55,11.6z
		 M-60.7,13.7c-2,2-3.3,4.2-3.7,6.5c-0.5,2.9,0.3,6.1,2.2,8.9c2,2.8,3.9,4.7,6.3,6.1c-0.5,0.5-0.9,0.9-1.3,1.4
		c-3.3-2.9-5.5-5.6-6.9-8.8c-1.8-3.9-1.9-8-0.5-11.3c1.6-3.6,4.7-5.9,8.3-8.3c0.4,0.4,0.8,0.8,1.2,1.2C-57.1,10.7-59,12-60.7,13.7z"
		/>
	
		<linearGradient id="SVGID_00000075883012231479912670000004066831087836857524_" gradientUnits="userSpaceOnUse" x1="34.4612" y1="110.3844" x2="36.9667" y2="107.8788" gradientTransform="matrix(0 -1 1 0 -130.418 85.8503)">
		<stop  offset="0" style="stop-color:#A69557"/>
		<stop  offset="0.2079" style="stop-color:#BB9D64"/>
		<stop  offset="0.5398" style="stop-color:#D8A975"/>
		<stop  offset="0.8158" style="stop-color:#ECB181"/>
		<stop  offset="1" style="stop-color:#F5B585"/>
	</linearGradient>
	<path style="fill:url(#SVGID_00000075883012231479912670000004066831087836857524_);" d="M-21.5,49.7c0,1,0,2,0.2,3v-5
		C-21.4,48.3-21.5,49-21.5,49.7z"/>
	
		<linearGradient id="SVGID_00000073700051679958997920000007559802366326827943_" gradientUnits="userSpaceOnUse" x1="31.8842" y1="113.6746" x2="40.9701" y2="104.5886" gradientTransform="matrix(0 -1 1 0 -130.418 85.8503)">
		<stop  offset="0" style="stop-color:#A69557"/>
		<stop  offset="0.2079" style="stop-color:#BB9D64"/>
		<stop  offset="0.5398" style="stop-color:#D8A975"/>
		<stop  offset="0.8158" style="stop-color:#ECB181"/>
		<stop  offset="1" style="stop-color:#F5B585"/>
	</linearGradient>
	<path style="fill:url(#SVGID_00000073700051679958997920000007559802366326827943_);" d="M-22.7,43.4c-1.3,3.9-1.2,8.5,0.4,12.8
		c0.3,0.8,0.6,1.5,1,2.3V58c-0.3-0.6-0.5-1.2-0.8-1.9c-1.6-4.3-1.7-8.8-0.4-12.7c0.3-0.9,0.7-1.8,1.2-2.7v-0.4
		C-21.9,41.3-22.3,42.3-22.7,43.4z"/>
	
		<linearGradient id="SVGID_00000081629016886465876160000012595995955596535997_" gradientUnits="userSpaceOnUse" x1="24.7532" y1="118.9097" x2="44.3094" y2="99.3535" gradientTransform="matrix(0 -1 1 0 -130.418 85.8503)">
		<stop  offset="0" style="stop-color:#A69557"/>
		<stop  offset="0.2079" style="stop-color:#BB9D64"/>
		<stop  offset="0.5398" style="stop-color:#D8A975"/>
		<stop  offset="0.8158" style="stop-color:#ECB181"/>
		<stop  offset="1" style="stop-color:#F5B585"/>
	</linearGradient>
	<path style="fill:url(#SVGID_00000081629016886465876160000012595995955596535997_);" d="M-28.9,50.9c0,0.1,0,0.1,0,0.2
		c0,3.4,0.6,6.7,1.7,9.9c1.3,3.6,3.3,7,5.9,9.9v-0.3c-2.5-2.9-4.4-6.2-5.7-9.7c-2.3-6.3-2.3-13.4-0.1-19.6c1.3-3.5,3.3-6.6,5.8-9.2
		v-0.3c-2.6,2.7-4.7,5.9-6,9.5C-28.4,44.3-28.9,47.5-28.9,50.9z"/>
	
		<linearGradient id="SVGID_00000018212221592140409140000011319005856165087146_" gradientUnits="userSpaceOnUse" x1="19.9018" y1="123.6704" x2="49.259" y2="94.3131" gradientTransform="matrix(0 -1 1 0 -130.418 85.8503)">
		<stop  offset="0" style="stop-color:#A69557"/>
		<stop  offset="0.2079" style="stop-color:#BB9D64"/>
		<stop  offset="0.5398" style="stop-color:#D8A975"/>
		<stop  offset="0.8158" style="stop-color:#ECB181"/>
		<stop  offset="1" style="stop-color:#F5B585"/>
	</linearGradient>
	<path style="fill:url(#SVGID_00000018212221592140409140000011319005856165087146_);" d="M-22.7,23.3c-2.6,2.1-4.8,4.9-6.7,8.2
		c-2.5,4.3-4.2,9.3-4.9,14.4c-0.7,5.1-0.4,10.3,0.9,15.2c1.3,4.8,3.6,9.6,6.7,13.6c1.6,2.1,3.4,4,5.3,5.7v-0.3
		c-5.7-5.1-9.9-11.7-11.9-19.1c-2.6-9.9-1.2-20.6,3.9-29.4c1.9-3.3,4.2-6.1,6.7-8.2c0.4-0.3,0.8-0.7,1.3-1v-0.3
		C-21.8,22.6-22.2,22.9-22.7,23.3z"/>
	
		<linearGradient id="SVGID_00000031177997685987639060000008154329588709190801_" gradientUnits="userSpaceOnUse" x1="21.1713" y1="121.8741" x2="46.7878" y2="96.2575" gradientTransform="matrix(0 -1 1 0 -130.418 85.8503)">
		<stop  offset="0" style="stop-color:#A69557"/>
		<stop  offset="0.2079" style="stop-color:#BB9D64"/>
		<stop  offset="0.5398" style="stop-color:#D8A975"/>
		<stop  offset="0.8158" style="stop-color:#ECB181"/>
		<stop  offset="1" style="stop-color:#F5B585"/>
	</linearGradient>
	<path style="fill:url(#SVGID_00000031177997685987639060000008154329588709190801_);" d="M-30.7,39.2c-2.9,7.6-2.9,16.5,0.2,24.4
		c2,5.1,5.1,9.8,9.2,13.8v-0.3c-4-3.9-7.1-8.6-9-13.6c-3-7.9-3.1-16.7-0.2-24.2c1.9-4.9,5.1-9.3,9.2-12.6v-0.3
		C-25.4,29.7-28.7,34.2-30.7,39.2z"/>
	
		<linearGradient id="SVGID_00000054227652138324625840000009334921625779752610_" gradientUnits="userSpaceOnUse" x1="22.4337" y1="120.3536" x2="44.9326" y2="97.8548" gradientTransform="matrix(0 -1 1 0 -130.418 85.8503)">
		<stop  offset="0" style="stop-color:#A69557"/>
		<stop  offset="0.2079" style="stop-color:#BB9D64"/>
		<stop  offset="0.5398" style="stop-color:#D8A975"/>
		<stop  offset="0.8158" style="stop-color:#ECB181"/>
		<stop  offset="1" style="stop-color:#F5B585"/>
	</linearGradient>
	<path style="fill:url(#SVGID_00000054227652138324625840000009334921625779752610_);" d="M-23.2,31.5c-2.6,2.7-4.6,5.9-5.9,9.4
		C-30.4,44.3-31,48-31,51.8c0.1,3.7,0.8,7.4,2.1,10.9c1.7,4.3,4.3,8.4,7.6,11.9v-0.3c-3.3-3.4-5.8-7.4-7.4-11.6
		c-2.7-7.1-2.8-15-0.2-21.7c1.6-4.2,4.3-8,7.6-11v-0.3C-21.9,30.3-22.6,30.9-23.2,31.5z"/>
</g>
<g>
	
		<linearGradient id="SVGID_00000182520596281315257890000007122273341238900115_" gradientUnits="userSpaceOnUse" x1="-275.8552" y1="71.8117" x2="-254.5413" y2="71.8117">
		<stop  offset="0" style="stop-color:#BF9F65"/>
		<stop  offset="0.6085" style="stop-color:#E1AD7A"/>
		<stop  offset="1" style="stop-color:#F5B585"/>
	</linearGradient>
	<path style="fill:url(#SVGID_00000182520596281315257890000007122273341238900115_);" d="M-268.7,69.4c4-2.3,9.1-1.1,11.7,2.7
		l2.4-1.4c-3.3-5.2-10.2-6.8-15.5-3.7c-4.1,2.4-6.2,6.8-5.7,11.2l2.8-1.6C-272.9,73.7-271.3,71-268.7,69.4"/>
	
		<linearGradient id="SVGID_00000003809846158005302590000005665826885342250632_" gradientUnits="userSpaceOnUse" x1="-273.8446" y1="82.4203" x2="-252.6601" y2="82.4203">
		<stop  offset="0" style="stop-color:#BF9F65"/>
		<stop  offset="0.6085" style="stop-color:#E1AD7A"/>
		<stop  offset="1" style="stop-color:#F5B585"/>
	</linearGradient>
	<path style="fill:url(#SVGID_00000003809846158005302590000005665826885342250632_);" d="M-259.9,84.7c-4,2.3-8.9,1.1-11.6-2.5
		l-2.4,1.4c3.4,5,10.1,6.6,15.4,3.5c4-2.3,6.1-6.7,5.8-11l-2.8,1.6C-255.7,80.6-257.3,83.2-259.9,84.7"/>
	
		<linearGradient id="SVGID_00000033348483125480336270000016271293299138535051_" gradientUnits="userSpaceOnUse" x1="-275.5325" y1="76.6267" x2="-258.2744" y2="76.6267">
		<stop  offset="0" style="stop-color:#BF9F65"/>
		<stop  offset="0.6085" style="stop-color:#E1AD7A"/>
		<stop  offset="1" style="stop-color:#F5B585"/>
	</linearGradient>
	<path style="fill:url(#SVGID_00000033348483125480336270000016271293299138535051_);" d="M-260.3,71l-15.2,8.8
		c0.2,0.9,0.5,1.7,0.9,2.5l16.3-9.5C-258.8,72-259.5,71.4-260.3,71"/>
	
		<linearGradient id="SVGID_00000054981187114026936040000015639637225427917478_" gradientUnits="userSpaceOnUse" x1="-270.1131" y1="77.6493" x2="-253.1072" y2="77.6493">
		<stop  offset="0" style="stop-color:#BF9F65"/>
		<stop  offset="0.6085" style="stop-color:#E1AD7A"/>
		<stop  offset="1" style="stop-color:#F5B585"/>
	</linearGradient>
	<path style="fill:url(#SVGID_00000054981187114026936040000015639637225427917478_);" d="M-253.1,74.6l-15,8.7
		c-0.8-0.5-1.5-1.1-2-1.9l16.3-9.5C-253.4,72.8-253.2,73.7-253.1,74.6"/>
</g>
<g>
	
		<linearGradient id="SVGID_00000168103745150573478720000006416711496194974601_" gradientUnits="userSpaceOnUse" x1="-221.0556" y1="76.0061" x2="-189.8749" y2="76.0061">
		<stop  offset="0" style="stop-color:#BF9F65"/>
		<stop  offset="0.6085" style="stop-color:#E1AD7A"/>
		<stop  offset="1" style="stop-color:#F5B585"/>
	</linearGradient>
	<path style="fill:url(#SVGID_00000168103745150573478720000006416711496194974601_);" d="M-220.9,79.1c0.4,0.3,0.8,0.2,1.8-0.3
		c1.4-0.6,2.7-1.2,2.7-1.2c0,0,0,0.1,0,0.1c-0.1,0.2-0.1,0.6,0,0.8c0.1,0.2,0.6,0.4,1,0.4c0.6,0,1.1-0.2,2-0.6
		c0.9-0.4,1.8-1.1,2.3-1.5l0.2-0.2l0,0.2c0,0.1-0.1,0.7-0.1,1.2c-0.1,1.2,0,1.3,0.5,1.3c0.4,0,0.5-0.1,0.9-0.8l0.2-0.4l0.3,0.3
		c0.5,0.5,1.2,0.6,2.1,0.5c0.3-0.1,0.4,0,0.4,0.1c0.1,0.2,0.5,0.4,0.9,0.3c0.2,0,0.6-0.2,1-0.5c0.4-0.2,0.7-0.4,0.8-0.4
		s0.2,0.1,0.3,0.2c0.5,0.5,1.6,0.6,2.9,0.3l0.7-0.2l0.2,0.2c0.3,0.3,0.7,0.4,1.1,0.4c1.7,0,4.8-1.6,6.7-3.5l0.4-0.4l-0.1,0.5
		c0,0.3-0.1,1-0.1,1.5c0,1.7,0.3,2.6,0.8,2.9l0,0c0.3,0.2,0.4,0.2,0.5,0c0.2-0.1,0.1-0.3-0.1-0.3c-0.1,0-0.2,0-0.3-0.1
		c-0.3-0.4-0.4-1.8-0.3-3.2c0.1-1.4,0.4-2.5,0.8-3.3c0.4-0.9,0.5-1.1,0.1-1.2c-0.2-0.1-0.2-0.1-0.4,0c-0.2,0.2-0.6,1.1-0.8,1.8
		c-0.2,0.7-0.5,1.1-1.5,2c-1.1,0.9-3,2.1-4.3,2.5c-0.8,0.3-1.7,0.4-1.9,0.3c-0.2-0.1-0.2-0.1,0.1-0.1c0.4,0,1.2-0.4,1.3-0.8
		c0.3-0.7-0.8-1.1-1.6-0.5c-0.2,0.1-0.4,0.4-0.5,0.5c-0.2,0.4-0.4,0.5-1.3,0.6c-0.8,0.2-1.5,0.1-1.8,0c-0.1-0.1-0.3-0.2-0.3-0.3
		c0-0.1-0.2-0.2-0.4-0.3c-0.2-0.1-0.3-0.2-0.3-0.3c0-0.1-0.3-0.3-0.6-0.4c-0.4-0.1-0.8,0.1-1.2,0.4c-0.7,0.5-1.8,0.8-2.2,0.6
		c-0.1-0.1-0.3-0.3-0.4-0.5c-0.4-0.7-1-0.8-1.5-0.2l-0.3,0.3l0-0.5c0-0.3,0.1-0.8,0.2-1.1c0.1-0.6,0.2-0.7,0.6-1.3
		c1-1.3,1.5-2.8,1.2-3.1c-0.2-0.2-0.5-0.1-0.8,0.2c-0.5,0.5-1,1.7-1.4,3.1c-0.1,0.5-0.3,0.9-0.4,0.9c-1.5,1.3-3.5,2.4-4.4,2.4
		c-0.5,0-0.5-0.4,0-0.9l0.2-0.2l0.1,0.2c0.1,0.2,0.1,0.2,0.3,0c0.4-0.3,0.1-0.7-0.4-0.7c-0.3,0-0.8,0.2-3.2,1.1
		c-1,0.4-1.8,0.7-1.9,0.7c-0.1,0,0-0.7,0-1c0-0.1-0.2-0.3-0.4-0.2c-0.2,0-0.2,0-0.4,0.6C-221.1,78.7-221.1,78.9-220.9,79.1
		L-220.9,79.1z M-199,77.9c0.2-0.2,0.5-0.4,0.7-0.4c0.2,0,0.1,0.2-0.3,0.4C-199.1,78.2-199.3,78.2-199,77.9L-199,77.9z M-205.3,78.2
		c0.2-0.2,0.8-0.5,0.9-0.5c0,0-0.2,0.2-0.5,0.3C-205.4,78.3-205.4,78.3-205.3,78.2L-205.3,78.2z M-208.9,72.7
		c0.3-0.6,0.4-0.7,0.4-0.3c-0.1,0.5-0.3,1.1-0.7,1.7c-0.3,0.4-0.4,0.5-0.4,0.4C-209.6,74.4-209.1,73.1-208.9,72.7z"/>
	
		<linearGradient id="SVGID_00000180363846063588829510000015612757416376181140_" gradientUnits="userSpaceOnUse" x1="-197.5257" y1="75.451" x2="-121.5042" y2="75.451">
		<stop  offset="0" style="stop-color:#BF9F65"/>
		<stop  offset="0.6085" style="stop-color:#E1AD7A"/>
		<stop  offset="1" style="stop-color:#F5B585"/>
	</linearGradient>
	<path style="fill:url(#SVGID_00000180363846063588829510000015612757416376181140_);" d="M-195.5,73.7c0.5,0.1,2.2,0.3,3.9,0.6
		c1.6,0.2,3.7,0.5,4.5,0.6c5.6,0.8,10.2,2,11.2,2.8c0.1,0.1,0.1,0.1,0.1,0.1c0,0-0.5,0.1-1,0.2c-1.5,0.3-4.1,0.9-8,1.6
		c-0.6,0.1-2.3,0.4-3.8,0.7c-5.5,1.1-6.8,1.6-6.1,2.3c0.2,0.2,0.3,0.2,0.7,0.3l0,0c0.3,0,1.5,0,2.5-0.1c3.5-0.3,7.8-1.1,10.9-1.9
		c3.7-0.9,5.6-1.8,5.6-2.6c0-0.1,0.1-0.2,0.3-0.2c3.4-0.9,5-1.5,6.7-2.3l0.6-0.3l0,0.4c0,0.5,0.4,1.3,0.8,1.7
		c0.2,0.2,0.5,0.4,0.8,0.5l0.5,0.2l1.4,0c1.2,0,2.1-0.1,2.9-0.3c0.1,0,0.2,0,0.2,0.1c0,0.1,0.2,0.2,0.5,0.3c0.3,0.2,0.5,0.2,0.8,0.2
		c0.6-0.1,1.3-0.3,2.2-0.9c0.4-0.2,0.8-0.4,0.8-0.4c0,0,0,0.2,0,0.3c-0.2,0.7,0,1,0.5,1c0.2,0,0.3-0.1,0.5-0.3
		c0.3-0.3,0.3-0.3,0.4-0.1c0.1,0.2,0.5,0.4,0.7,0.4s0.7-0.4,0.9-0.8c0.1-0.3,0.2-0.3,0.3-0.2c0.3,0.1,1.2,0.1,1.8-0.1
		c0.3-0.1,0.6-0.1,0.6-0.1s0,0.3-0.1,0.6l-0.1,0.5l0.2,0.2c0.3,0.3,0.5,0.2,0.9-0.3c0.4-0.5,0.4-0.5,0.5-0.3
		c0.1,0.2,0.4,0.4,0.7,0.4c0.1,0,0.4-0.2,0.6-0.4l0.5-0.4l0,0.2c0.1,0.5,0.7,0.8,1.4,0.7c0.2,0,0.6-0.1,0.9-0.2l0.5-0.2l0.1,0.2
		c0.1,0.1,0.2,0.2,0.4,0.3c0.4,0.1,0.8,0,1.6-0.5c0.4-0.3,0.4-0.3,0.6-0.1c0.5,0.4,1.5,0.3,2.7-0.4c0.2-0.1,0.4-0.2,0.4-0.2
		s0,0.1,0,0.2c0,0.4,0.1,0.5,0.4,0.6c0.1,0.1,0.3,0.1,0.3,0.1c0,0,0.4-0.2,0.8-0.4c0.4-0.2,0.7-0.4,0.8-0.4c0,0,0.2,0.1,0.3,0.3
		c0.3,0.3,0.8,0.6,1.4,0.7c1.4,0.3,9.6,0.1,12.8-0.3c0.7-0.1,0.8-0.1,0.6-0.4c-0.2-0.2,0-0.2-2.9,0c-2.3,0.1-6.7,0.2-8.1,0.2
		c-2.5-0.1-3-0.2-3.7-0.7c-0.4-0.3-0.7-0.3-1.4,0.1l-0.6,0.3v-0.4c0-0.4-0.1-0.5-0.4-0.6c-0.1,0-0.3,0-0.8,0.3
		c-0.8,0.5-1.5,0.7-2,0.7c-0.3,0-0.3,0-0.4-0.2c-0.1-0.3-0.4-0.4-0.6-0.3c-0.1,0.1-0.2,0-0.3-0.1c-0.4-0.4-0.9-0.3-1.5,0.1
		c-0.5,0.4-1.5,0.7-2.1,0.8l-0.4,0l-0.1-0.3c-0.1-0.4-0.2-0.5-0.4-0.6c-0.3-0.1-0.5-0.1-1,0.4l-0.4,0.3l-0.1-0.3
		c0-0.2-0.1-0.3-0.3-0.4c-0.3-0.2-0.4-0.2-0.7,0l-0.2,0.2v-0.2c0-0.3-0.3-0.4-0.6-0.2c-0.3,0.2-1.1,0.3-1.8,0.3
		c-0.6,0-0.7,0-0.8-0.2c-0.1-0.1-0.2-0.2-0.4-0.2c-0.2,0-0.2,0-0.2,0.2c0,0.4-0.5,0.9-0.7,0.9c0,0,0-0.1,0-0.3
		c0-0.4-0.2-0.6-0.5-0.6c-0.2,0-0.3,0.1-0.5,0.4c-0.4,0.5-0.4,0.5-0.4,0.1c0-0.2,0-0.3-0.1-0.4c-0.2-0.2-0.3-0.2-1.1,0.2
		c-1.5,0.8-2.6,1.1-3,0.9c-0.2-0.2-0.3-0.4,0-0.4c0.4,0,1.1-0.5,1.1-0.8c0-0.2-0.4-0.6-0.7-0.6c-0.5-0.1-1,0.4-1.2,0.9
		c0,0.2-0.1,0.2-0.5,0.3c-0.8,0.1-1.9,0.2-2.7,0.2c-1.7,0-2.5-0.7-2.5-1.9c0-0.7,0.1-0.9,0.8-1.4l0.6-0.4l1,0c3-0.1,4.5-0.2,6.2-0.2
		c1.7,0,1.9,0,1.9-0.1c0-0.4,0.1-0.4-4.3-0.3l-4.1,0l0.3-0.4c0.4-0.5,0.5-0.9,0.5-1.2c0-0.6-0.4-0.8-0.9-0.5
		c-0.4,0.2-1.5,1.2-1.9,1.8l-0.3,0.5h-0.4c-0.5,0-4.9,0.3-5.5,0.4c-0.4,0.1-0.5,0.2-0.3,0.4c0.2,0.2,0.2,0.2,1.5,0.1
		c0.7,0,2-0.1,2.8-0.2c0.8-0.1,1.5-0.1,1.5-0.1c0,0,0,0.1,0,0.3c-0.1,0.2-0.2,0.3-1.1,0.7c-1.1,0.6-1.9,0.8-3.4,1.3
		c-0.9,0.3-2.6,0.8-3.4,1c-0.2,0-0.2,0-0.4-0.2c-0.8-1.1-6.4-2.4-15.1-3.5c-3.6-0.5-4.9-0.7-5.8-1c-0.5-0.2-0.6-0.2-0.4-0.4
		c0.6-0.7,4.8-1.9,9-2.7c5.2-0.9,10.9-1.1,14.3-0.5c0.5,0.1,1,0.2,1.2,0.3c0.4,0.1,0.4,0.2,0.4,0.4c0,0.1,0,0.3,0.1,0.4l0.1,0.2
		l0.2-0.2c0.4-0.7-0.1-1.2-1.4-1.5c-2.4-0.6-6.7-0.8-11.1-0.3c-5.5,0.5-11.8,2.2-13.1,3.4c-0.3,0.2-0.3,0.3-0.3,0.6
		C-197.5,73-196.9,73.4-195.5,73.7L-195.5,73.7z M-178.4,79.3c-2.5,0.8-5.7,1.5-9.9,2.2c-2.3,0.4-2.7,0.4-3.8,0.5
		c-1.7,0.2-1.8,0.1-0.5-0.2c0.9-0.3,4.6-1.1,6-1.3c1.5-0.3,9.2-1.8,10-2c0.2-0.1,0.4-0.1,0.4-0.1C-176.2,78.5-177.4,79-178.4,79.3
		L-178.4,79.3z M-144,77.9c0.3-0.4,0.8-0.6,0.8-0.4c0,0.1-0.2,0.2-0.5,0.3l-0.5,0.2L-144,77.9z M-160.1,77c0.1-0.1,0.2-0.1,0.2-0.1
		c0,0-0.1,0.2-0.2,0.2c-0.1,0.1-0.2,0.1-0.2,0.1C-160.3,77.2-160.2,77.1-160.1,77z M-164.9,72.6c0.3-0.3,0.3-0.3,0.2-0.1
		c-0.1,0.1-0.3,0.4-0.5,0.6s-0.4,0.4-0.4,0.4C-165.7,73.5-165.3,73-164.9,72.6L-164.9,72.6z"/>
	
		<linearGradient id="SVGID_00000170250917999112948710000006134795075861461693_" gradientUnits="userSpaceOnUse" x1="-220.3849" y1="76.5133" x2="-219.4034" y2="76.5133">
		<stop  offset="0" style="stop-color:#BF9F65"/>
		<stop  offset="0.6085" style="stop-color:#E1AD7A"/>
		<stop  offset="1" style="stop-color:#F5B585"/>
	</linearGradient>
	<path style="fill:url(#SVGID_00000170250917999112948710000006134795075861461693_);" d="M-220,76.8c0.3,0.1,0.5,0.1,0.6-0.1
		c0.1-0.2-0.1-0.4-0.4-0.4C-220.5,76.1-220.6,76.6-220,76.8L-220,76.8z"/>
	
		<linearGradient id="SVGID_00000093161913441993900570000004471034226476940458_" gradientUnits="userSpaceOnUse" x1="-248.1671" y1="75.2555" x2="-206.9821" y2="75.2555">
		<stop  offset="0" style="stop-color:#BF9F65"/>
		<stop  offset="0.6085" style="stop-color:#E1AD7A"/>
		<stop  offset="1" style="stop-color:#F5B585"/>
	</linearGradient>
	<path style="fill:url(#SVGID_00000093161913441993900570000004471034226476940458_);" d="M-247.4,83.3c0.1,0,1-0.9,2.1-2
		c2.6-2.6,4.3-4,6.2-5.1c0.8-0.5,1.6-0.8,1.9-0.7c0.2,0.1,0.4,0.5,0.6,1.5c0.7,2.8,1.2,4,2.1,4.2c0.5,0.1,0.7,0,1.2-0.4
		c0.4-0.4,1.1-1.4,2.7-3.9c1.2-2,5.9-9,6.2-9.4l0.2-0.3l0,0.6c0,0.3-0.2,1.2-0.3,2c-0.6,3.2-0.8,4.6-0.8,6.5
		c-0.1,4.3,1.2,6.6,4.2,7.6c0.5,0.2,0.9,0.2,1.9,0.4l0,0c0.4,0.1,2.2,0,3.1-0.2c2.1-0.3,5.2-1,6.8-1.6c0.8-0.3,1.8-0.8,2.1-1.1
		l0.2-0.2l-0.2-0.1c-0.2-0.1-0.2-0.1-0.4,0c-1.9,1.2-7.1,2.4-10.4,2.4c-4.1,0-5.8-1.6-6-5.8c-0.1-1.9,0-3.4,0.7-7.8
		c0.2-1.3,0.2-2.6,0-3c-0.1-0.3-0.5-0.6-0.8-0.6c-0.3,0-0.6,0.3-1.6,1.9c-0.5,0.8-1.7,2.6-2.7,4.1c-1,1.5-2.3,3.5-3,4.5
		c-1.3,2-2.1,3-2.5,3.4c-0.3,0.3-0.3,0.3-0.4,0.2c-0.1-0.2-0.4-1-0.8-2.4c-0.5-1.9-0.9-2.6-1.6-2.9c-0.5-0.3-1.1-0.2-1.9,0.2
		c-2,1-4.5,2.9-6.9,5.2c-0.4,0.4-0.7,0.7-0.7,0.7s0-0.1,0.1-0.2c0.4-0.7,1.9-3.4,2.5-4.6c1-2,2-4.3,2-4.7c0-0.2-0.2-0.4-0.4-0.4
		c-0.1,0-0.2,0.1-0.2,0.1c-0.2,0.2-0.6,1-0.8,1.5c-0.3,0.8-1.7,3.5-3.1,6.1c-1.8,3.4-2,3.8-1.8,4.1C-248,83.3-247.5,83.4-247.4,83.3
		L-247.4,83.3z"/>
</g>
<image style="overflow:visible;" width="1084" height="687" xlink:href="A92038AB.png"  transform="matrix(0.24 0 0 0.24 -8.58 -7.02)">
</image>
<g>
	<defs>
		
			<rect id="SVGID_00000053539331024842797910000013926901750057366190_" x="-2.2" y="0.9" transform="matrix(-1 -1.224647e-16 1.224647e-16 -1 246.1884 154.9512)" width="250.5" height="153.2"/>
	</defs>
	<clipPath id="SVGID_00000033327153966089867000000010948710953410010788_">
		<use xlink:href="#SVGID_00000053539331024842797910000013926901750057366190_"  style="overflow:visible;"/>
	</clipPath>
	<g style="opacity:0.55;clip-path:url(#SVGID_00000033327153966089867000000010948710953410010788_);">
		
			<image style="overflow:visible;" width="1241" height="878" xlink:href="A92038AD.png"  transform="matrix(0.24 0 0 0.24 -25.86 -27.9)">
		</image>
	</g>
</g>
<g>
	<g>
		
			<linearGradient id="SVGID_00000166652456318129832850000013006286125906274454_" gradientUnits="userSpaceOnUse" x1="65.8801" y1="41.6254" x2="69.0937" y2="41.6254">
			<stop  offset="0" style="stop-color:#BF9F65"/>
			<stop  offset="0.4154" style="stop-color:#DBAA76"/>
			<stop  offset="0.7659" style="stop-color:#EDB281"/>
			<stop  offset="1" style="stop-color:#F5B585"/>
		</linearGradient>
		<path style="fill:url(#SVGID_00000166652456318129832850000013006286125906274454_);" d="M65.9,41.4C66.1,41.8,67,42,67,42l2.1,0
			l0-0.7L65.9,41.4z"/>
		
			<linearGradient id="SVGID_00000094618875350949666620000006047915718391938233_" gradientUnits="userSpaceOnUse" x1="70.2724" y1="41.5934" x2="75.7674" y2="41.5934">
			<stop  offset="0" style="stop-color:#BF9F65"/>
			<stop  offset="0.4154" style="stop-color:#DBAA76"/>
			<stop  offset="0.7659" style="stop-color:#EDB281"/>
			<stop  offset="1" style="stop-color:#F5B585"/>
		</linearGradient>
		<path style="fill:url(#SVGID_00000094618875350949666620000006047915718391938233_);" d="M75.4,40.3l-0.1,0.8l-5.1,0.1l0,0.7
			l0.1,0l4.7,0.2c0.7,0,0.6,0.7,0.6,0.7C76.1,41.1,75.4,40.3,75.4,40.3z"/>
		
			<linearGradient id="SVGID_00000014619434544797853670000013810319228819916716_" gradientUnits="userSpaceOnUse" x1="63.5185" y1="40.424" x2="69.0402" y2="40.424">
			<stop  offset="0" style="stop-color:#BF9F65"/>
			<stop  offset="0.4154" style="stop-color:#DBAA76"/>
			<stop  offset="0.7659" style="stop-color:#EDB281"/>
			<stop  offset="1" style="stop-color:#F5B585"/>
		</linearGradient>
		<path style="fill:url(#SVGID_00000014619434544797853670000013810319228819916716_);" d="M64,39.9l-0.1-0.8c0,0-0.7,0.8-0.2,2.5
			c0,0-0.1-0.7,0.6-0.7l4.7-0.2l0.1,0l0-0.7L64,39.9z"/>
		
			<linearGradient id="SVGID_00000116949976338749604060000012442798481362834060_" gradientUnits="userSpaceOnUse" x1="70.2808" y1="40.4567" x2="73.4058" y2="40.4567">
			<stop  offset="0" style="stop-color:#BF9F65"/>
			<stop  offset="0.4154" style="stop-color:#DBAA76"/>
			<stop  offset="0.7659" style="stop-color:#EDB281"/>
			<stop  offset="1" style="stop-color:#F5B585"/>
		</linearGradient>
		<path style="fill:url(#SVGID_00000116949976338749604060000012442798481362834060_);" d="M72.3,40.8c0,0,0.9-0.2,1.1-0.6l-3.1-0.1
			l0,0.7L72.3,40.8z"/>
		
			<linearGradient id="SVGID_00000087382091351160998940000005630183594645378958_" gradientUnits="userSpaceOnUse" x1="69.0937" y1="47.4707" x2="70.2724" y2="47.4707">
			<stop  offset="0" style="stop-color:#BF9F65"/>
			<stop  offset="0.4154" style="stop-color:#DBAA76"/>
			<stop  offset="0.7659" style="stop-color:#EDB281"/>
			<stop  offset="1" style="stop-color:#F5B585"/>
		</linearGradient>
		<path style="fill:url(#SVGID_00000087382091351160998940000005630183594645378958_);" d="M69.2,45.3l0.1,5.8c0,0,0.2,1.6,0.8,1.9
			l0.1-11l-1.2,0L69.2,45.3z"/>
		
			<linearGradient id="SVGID_00000055690501024404086980000011447769400459576736_" gradientUnits="userSpaceOnUse" x1="67.8939" y1="38.0535" x2="71.3921" y2="38.0535">
			<stop  offset="0" style="stop-color:#BF9F65"/>
			<stop  offset="0.4154" style="stop-color:#DBAA76"/>
			<stop  offset="0.7659" style="stop-color:#EDB281"/>
			<stop  offset="1" style="stop-color:#F5B585"/>
		</linearGradient>
		<path style="fill:url(#SVGID_00000055690501024404086980000011447769400459576736_);" d="M70.3,36.7l1.1-0.1c0,0-1.1-1.2-3.5-0.3
			c0,0,1-0.2,1,0.9l0.1,2.8l1.3,0L70.3,36.7z"/>
		
			<linearGradient id="SVGID_00000058583423094456224210000001366797755522595772_" gradientUnits="userSpaceOnUse" x1="69.0626" y1="41.612" x2="70.2775" y2="41.612">
			<stop  offset="0" style="stop-color:#BF9F65"/>
			<stop  offset="0.4154" style="stop-color:#DBAA76"/>
			<stop  offset="0.7659" style="stop-color:#EDB281"/>
			<stop  offset="1" style="stop-color:#F5B585"/>
		</linearGradient>
		<polygon style="fill:url(#SVGID_00000058583423094456224210000001366797755522595772_);" points="69.1,41.3 69.1,42 70.3,42 
			70.3,41.3 		"/>
		
			<linearGradient id="SVGID_00000088127021575143069230000016834823192703747464_" gradientUnits="userSpaceOnUse" x1="69.0074" y1="40.4426" x2="70.2857" y2="40.4426">
			<stop  offset="0" style="stop-color:#BF9F65"/>
			<stop  offset="0.4154" style="stop-color:#DBAA76"/>
			<stop  offset="0.7659" style="stop-color:#EDB281"/>
			<stop  offset="1" style="stop-color:#F5B585"/>
		</linearGradient>
		<polygon style="fill:url(#SVGID_00000088127021575143069230000016834823192703747464_);" points="70.3,40.1 69,40.1 69,40.8 
			70.3,40.8 		"/>
	</g>
	<g>
		<path class="st36" d="M46,74.5V49.8h7.5l2.1,15.1l2.1-15.1h7.6v24.8h-4.5V56.7l-2.8,17.8h-4.4l-3-17.8v17.8H46z"/>
		<path class="st36" d="M67.3,74.5V49.8h4.8v24.8H67.3z"/>
		<path class="st36" d="M79.9,74.8c-1.8,0-3.2-0.6-4.3-1.7c-1.1-1.1-1.6-2.7-1.6-4.7V57c0-2.4,0.5-4.2,1.4-5.5
			c1-1.3,2.5-1.9,4.6-1.9c1.2,0,2.2,0.2,3.1,0.6c0.9,0.4,1.6,1.1,2.2,1.9c0.5,0.9,0.8,1.9,0.8,3.2v4.3h-4.9V56
			c0-0.7-0.1-1.2-0.3-1.5c-0.2-0.3-0.5-0.4-0.9-0.4c-0.5,0-0.8,0.2-0.9,0.5c-0.2,0.3-0.2,0.8-0.2,1.3v12.4c0,0.7,0.1,1.2,0.3,1.4
			c0.2,0.3,0.5,0.4,0.9,0.4c0.4,0,0.7-0.2,0.9-0.5c0.2-0.3,0.3-0.8,0.3-1.4v-4.5h5v4.7c0,2.2-0.5,3.8-1.6,4.7
			C83.4,74.3,81.8,74.8,79.9,74.8z"/>
		<path class="st36" d="M87.8,74.5V49.8h4.9v8.8H95v-8.8h4.9v24.8H95V63.3h-2.3v11.2H87.8z"/>
		<path class="st36" d="M101.5,74.5l2.4-24.8h8.4l2.3,24.8H110l-0.4-4h-3l-0.3,4H101.5z M107,66.6h2.3L108.1,54h-0.2L107,66.6z"/>
		<path class="st36" d="M116.2,74.5V49.8h9.9v4.8h-4.9v4.8h4.7v4.7h-4.7v5.7h5.2v4.8H116.2z"/>
		<path class="st36" d="M128.1,74.5V49.8h5v20.5h5.1v4.2H128.1z"/>
		<path class="st36" d="M51.9,102.7c-2.3,0-3.9-0.6-4.9-1.7c-1-1.1-1.5-2.9-1.5-5.4v-2.4h4.9v3.1c0,0.6,0.1,1,0.3,1.3
			c0.2,0.3,0.5,0.5,0.9,0.5c0.5,0,0.8-0.1,0.9-0.4c0.2-0.3,0.3-0.7,0.3-1.3c0-0.8-0.1-1.4-0.2-1.9c-0.1-0.5-0.4-1-0.8-1.5
			c-0.4-0.5-0.9-1-1.5-1.6L48,89.3c-1.7-1.6-2.5-3.4-2.5-5.4c0-2.1,0.5-3.7,1.5-4.8c1-1.1,2.4-1.7,4.3-1.7c2.3,0,3.9,0.6,4.8,1.8
			c1,1.2,1.4,3,1.4,5.5h-5v-1.7c0-0.3-0.1-0.6-0.3-0.8C52,82.1,51.7,82,51.4,82c-0.4,0-0.7,0.1-0.9,0.3c-0.2,0.2-0.3,0.5-0.3,0.9
			s0.1,0.7,0.3,1.1c0.2,0.4,0.6,0.9,1.1,1.4l2.9,2.7c0.6,0.5,1.1,1.1,1.6,1.7c0.5,0.6,0.9,1.3,1.2,2.1c0.3,0.8,0.4,1.8,0.4,2.9
			c0,2.3-0.4,4.1-1.3,5.5C55.5,102,54,102.7,51.9,102.7z"/>
		<path class="st36" d="M61.5,102.4v-20h-2.9v-4.8h10.8v4.8h-2.9v20H61.5z"/>
		<path class="st36" d="M70.8,102.4V77.7h9.9v4.8h-4.9v4.8h4.7v4.7h-4.7v5.7H81v4.8H70.8z"/>
		<path class="st36" d="M84.6,102.4l-2.7-24.8h4.8l1.4,15.6l1.4-15.6h4.6l1.3,15.6l1.3-15.6h4.9L99,102.4H93l-1.2-11.9l-1.2,11.9
			H84.6z"/>
		<path class="st36" d="M103.2,102.4V77.7h7.5l2.1,15.1l2.1-15.1h7.6v24.8h-4.5V84.6l-2.8,17.8h-4.4l-3-17.8v17.8H103.2z"/>
		<path class="st36" d="M124,102.4l2.4-24.8h8.4l2.3,24.8h-4.7l-0.4-4h-3l-0.3,4H124z M129.5,94.5h2.3l-1.1-12.6h-0.2L129.5,94.5z"
			/>
		<path class="st36" d="M138.7,102.4V77.7h5.1l2.3,11.9V77.7h4.8v24.8H146L143.6,90v12.4H138.7z"/>
	</g>
	<g>
		
			<linearGradient id="SVGID_00000089545920537826639320000002781084365583917741_" gradientUnits="userSpaceOnUse" x1="158.1886" y1="64.4738" x2="205.5189" y2="64.4738">
			<stop  offset="0" style="stop-color:#BF9F65"/>
			<stop  offset="0.4154" style="stop-color:#DBAA76"/>
			<stop  offset="0.7659" style="stop-color:#EDB281"/>
			<stop  offset="1" style="stop-color:#F5B585"/>
		</linearGradient>
		<path style="fill:url(#SVGID_00000089545920537826639320000002781084365583917741_);" d="M174.2,59.1c8.9-5.2,20.3-2.5,25.9,6
			l5.4-3.1c-7.4-11.4-22.5-15.2-34.5-8.3c-9,5.2-13.7,15.2-12.7,25l6.1-3.5C164.8,68.7,168.2,62.6,174.2,59.1"/>
		
			<linearGradient id="SVGID_00000070818522045120513100000005671058406383909541_" gradientUnits="userSpaceOnUse" x1="162.6534" y1="88.0317" x2="209.6963" y2="88.0317">
			<stop  offset="0" style="stop-color:#BF9F65"/>
			<stop  offset="0.4154" style="stop-color:#DBAA76"/>
			<stop  offset="0.7659" style="stop-color:#EDB281"/>
			<stop  offset="1" style="stop-color:#F5B585"/>
		</linearGradient>
		<path style="fill:url(#SVGID_00000070818522045120513100000005671058406383909541_);" d="M193.7,93.1c-8.8,5.1-19.9,2.6-25.7-5.6
			l-5.4,3.1c7.5,11.1,22.4,14.7,34.2,7.8c8.9-5.1,13.5-14.8,12.8-24.4l-6.2,3.6C202.9,83.9,199.5,89.7,193.7,93.1"/>
		
			<linearGradient id="SVGID_00000077295597627719539140000005146986098297049774_" gradientUnits="userSpaceOnUse" x1="158.9051" y1="75.1662" x2="197.229" y2="75.1662">
			<stop  offset="0" style="stop-color:#BF9F65"/>
			<stop  offset="0.4154" style="stop-color:#DBAA76"/>
			<stop  offset="0.7659" style="stop-color:#EDB281"/>
			<stop  offset="1" style="stop-color:#F5B585"/>
		</linearGradient>
		<path style="fill:url(#SVGID_00000077295597627719539140000005146986098297049774_);" d="M192.7,62.6l-33.8,19.6
			c0.5,1.9,1.1,3.8,2,5.6l36.3-21C196,65,194.6,63.6,192.7,62.6"/>
		
			<linearGradient id="SVGID_00000072962475305069522850000008726464434640996235_" gradientUnits="userSpaceOnUse" x1="170.9396" y1="77.437" x2="208.7035" y2="77.437">
			<stop  offset="0" style="stop-color:#BF9F65"/>
			<stop  offset="0.4154" style="stop-color:#DBAA76"/>
			<stop  offset="0.7659" style="stop-color:#EDB281"/>
			<stop  offset="1" style="stop-color:#F5B585"/>
		</linearGradient>
		<path style="fill:url(#SVGID_00000072962475305069522850000008726464434640996235_);" d="M208.7,70.7l-33.4,19.3
			c-1.8-1.2-3.3-2.5-4.4-4.2l36.3-21C208.1,66.7,208.6,68.7,208.7,70.7"/>
	</g>
	<g>
		<path class="st41" d="M40.9,103h-7.5v-2c0-0.4,0.1-0.7,0.3-1c0.2-0.2,0.5-0.4,0.8-0.5s0.8-0.2,1.2-0.2c0.5,0,0.9,0,1.2,0.1
			c0.3,0.1,0.6,0.2,0.8,0.5c0.2,0.2,0.3,0.5,0.3,1v0.6h3V103z M36.6,101.5L36.6,101.5c0-0.4-0.1-0.5-0.2-0.6
			c-0.2-0.1-0.4-0.1-0.7-0.1c-0.3,0-0.5,0-0.7,0.1c-0.2,0.1-0.2,0.2-0.2,0.4v0.2H36.6z"/>
		<path class="st41" d="M40.9,98.9h-7.5v-2.3c0-0.4,0.1-0.7,0.3-0.9c0.2-0.2,0.4-0.3,0.7-0.4c0.3-0.1,0.7-0.1,1.1-0.1
			c0.4,0,0.7,0.1,1,0.2c0.2,0.1,0.4,0.3,0.5,0.6c0-0.2,0.2-0.4,0.4-0.5c0.2-0.1,0.4-0.1,0.7-0.1h2.9v1.5h-3c-0.2,0-0.4,0-0.4,0.1
			c-0.1,0.1-0.1,0.2-0.1,0.4h3.4V98.9z M36.2,97.3V97c0-0.2-0.2-0.3-0.7-0.3c-0.3,0-0.5,0-0.6,0.1s-0.1,0.1-0.1,0.3v0.4H36.2z"/>
		<path class="st41" d="M41,92.9c0,0.6-0.2,1.1-0.5,1.4c-0.4,0.3-0.9,0.5-1.6,0.5h-3.6c-0.6,0-1.1-0.2-1.5-0.5
			c-0.3-0.3-0.5-0.8-0.5-1.4s0.2-1.1,0.5-1.4c0.3-0.3,0.8-0.5,1.5-0.5h3.6c0.7,0,1.2,0.2,1.6,0.5C40.8,91.8,41,92.3,41,92.9z
			 M39.6,92.9c0-0.2-0.2-0.3-0.7-0.3h-3.7c-0.4,0-0.6,0.1-0.6,0.3c0,0.3,0.2,0.4,0.6,0.4h3.7c0.2,0,0.4,0,0.5-0.1
			C39.5,93.1,39.6,93,39.6,92.9z"/>
		<path class="st41" d="M40.9,90.4h-7.5v-2.1c0-0.5,0.2-1,0.5-1.2c0.3-0.3,0.7-0.4,1.3-0.4h3.5c0.7,0,1.3,0.1,1.7,0.4
			c0.4,0.3,0.6,0.7,0.6,1.3V90.4z M39.6,88.9v-0.3c0-0.3-0.1-0.4-0.4-0.4h-3.9c-0.3,0-0.4,0-0.5,0.1c-0.1,0.1-0.1,0.2-0.1,0.4v0.2
			H39.6z"/>
		<path class="st41" d="M41,84.3c0,0.6-0.2,1.1-0.5,1.4c-0.4,0.3-0.9,0.4-1.6,0.4h-5.5v-1.5h5.5c0.1,0,0.2,0,0.4,0
			c0.1,0,0.2,0,0.3-0.1c0.1-0.1,0.1-0.1,0.1-0.2c0-0.1,0-0.2-0.1-0.3C39.4,84,39.3,84,39.2,84c-0.1,0-0.2,0-0.4,0h-5.5v-1.5h5.5
			c0.7,0,1.2,0.1,1.6,0.4C40.8,83.2,41,83.7,41,84.3z"/>
		<path class="st41" d="M41,80.2c0,0.5-0.2,1-0.5,1.3c-0.3,0.3-0.8,0.5-1.4,0.5h-3.5c-0.7,0-1.3-0.1-1.7-0.4
			c-0.4-0.3-0.6-0.8-0.6-1.4c0-0.4,0.1-0.7,0.2-1c0.1-0.3,0.3-0.5,0.6-0.7c0.3-0.2,0.6-0.2,1-0.2h1.3v1.5h-1.1c-0.2,0-0.4,0-0.5,0.1
			c-0.1,0.1-0.1,0.1-0.1,0.3c0,0.1,0.1,0.2,0.2,0.3c0.1,0,0.2,0.1,0.4,0.1H39c0.2,0,0.4,0,0.4-0.1c0.1-0.1,0.1-0.1,0.1-0.3
			c0-0.1-0.1-0.2-0.2-0.3c-0.1-0.1-0.2-0.1-0.4-0.1h-1.4v-1.5h1.4c0.7,0,1.1,0.2,1.4,0.5C40.8,79.1,41,79.6,41,80.2z"/>
		<path class="st41" d="M40.9,77.1h-6.1V78h-1.4v-3.3h1.4v0.9h6.1V77.1z"/>
		<path class="st41" d="M40.9,72.2h-7.5v-1.5h6.3v-1.6h1.3V72.2z"/>
		<path class="st41" d="M40.9,68.7h-7.5v-3h1.5v1.5h1.5v-1.4h1.4v1.4h1.7v-1.6h1.5V68.7z"/>
		<path class="st41" d="M40.9,65.3l-7.5-0.7V62l7.5-0.7v1.4l-1.2,0.1v0.9l1.2,0.1V65.3z M38.5,63.6V63l-3.8,0.3v0.1L38.5,63.6z"/>
		<path class="st41" d="M40.9,60.8h-7.5v-2.1c0-0.5,0.2-1,0.5-1.2c0.3-0.3,0.7-0.4,1.3-0.4h3.5c0.7,0,1.3,0.1,1.7,0.4
			c0.4,0.3,0.6,0.7,0.6,1.3V60.8z M39.6,59.3v-0.3c0-0.3-0.1-0.4-0.4-0.4h-3.9c-0.3,0-0.4,0-0.5,0.1c-0.1,0.1-0.1,0.2-0.1,0.4v0.2
			H39.6z"/>
		<path class="st41" d="M40.9,56.5h-7.5v-3h1.5V55h1.5v-1.4h1.4V55h1.7v-1.6h1.5V56.5z"/>
		<path class="st41" d="M40.9,52.9h-7.5v-2.3c0-0.4,0.1-0.7,0.3-0.9c0.2-0.2,0.4-0.3,0.7-0.4c0.3-0.1,0.7-0.1,1.1-0.1
			c0.4,0,0.7,0.1,1,0.2c0.2,0.1,0.4,0.3,0.5,0.6c0-0.2,0.2-0.4,0.4-0.5c0.2-0.1,0.4-0.1,0.7-0.1h2.9v1.5h-3c-0.2,0-0.4,0-0.4,0.1
			c-0.1,0.1-0.1,0.2-0.1,0.4h3.4V52.9z M36.2,51.4V51c0-0.2-0.2-0.3-0.7-0.3c-0.3,0-0.5,0-0.6,0.1c-0.1,0-0.1,0.1-0.1,0.3v0.4H36.2z
			"/>
	</g>
</g>
<g>
	<g>
		<path class="st42" d="M160.6,121.6c0.4,0,0.7,0.1,0.9,0.3c0.2,0.2,0.3,0.4,0.3,0.8c0,0.2-0.1,0.4-0.2,0.6s-0.3,0.3-0.6,0.5
			c0.4,0.2,0.6,0.3,0.8,0.5c0.1,0.2,0.2,0.4,0.2,0.6c0,0.4-0.1,0.7-0.4,0.9c-0.3,0.2-0.6,0.3-1,0.3c-0.5,0-0.8-0.1-1.1-0.3
			c-0.3-0.2-0.4-0.5-0.4-0.9c0-0.5,0.3-0.9,0.9-1.2c-0.3-0.2-0.5-0.3-0.6-0.5c-0.1-0.2-0.2-0.4-0.2-0.6c0-0.3,0.1-0.6,0.4-0.8
			C159.9,121.7,160.2,121.6,160.6,121.6z M159.6,124.9c0,0.2,0.1,0.4,0.2,0.6c0.2,0.1,0.4,0.2,0.7,0.2c0.3,0,0.5-0.1,0.7-0.2
			s0.2-0.3,0.2-0.6c0-0.2-0.1-0.4-0.2-0.5c-0.2-0.2-0.4-0.3-0.8-0.4c-0.3,0.1-0.5,0.3-0.6,0.4C159.7,124.5,159.6,124.7,159.6,124.9z
			 M160.6,122c-0.2,0-0.4,0.1-0.6,0.2c-0.1,0.1-0.2,0.3-0.2,0.5c0,0.2,0.1,0.3,0.2,0.5c0.1,0.1,0.3,0.3,0.7,0.4
			c0.3-0.1,0.5-0.2,0.6-0.4c0.1-0.1,0.2-0.3,0.2-0.5c0-0.2-0.1-0.4-0.2-0.5C161,122.1,160.8,122,160.6,122z"/>
		<path class="st42" d="M166.6,122.7c0,0.3-0.1,0.5-0.2,0.7c-0.2,0.2-0.4,0.3-0.7,0.4v0c0.4,0,0.6,0.2,0.8,0.3s0.3,0.4,0.3,0.7
			c0,0.4-0.1,0.7-0.4,1c-0.3,0.2-0.7,0.3-1.2,0.3c-0.2,0-0.4,0-0.6-0.1c-0.2,0-0.4-0.1-0.6-0.2v-0.5c0.2,0.1,0.4,0.2,0.6,0.2
			c0.2,0,0.4,0.1,0.6,0.1c0.8,0,1.1-0.3,1.1-0.9c0-0.5-0.4-0.8-1.2-0.8h-0.4v-0.4h0.4c0.3,0,0.6-0.1,0.8-0.2
			c0.2-0.2,0.3-0.4,0.3-0.6c0-0.2-0.1-0.4-0.2-0.5c-0.1-0.1-0.3-0.2-0.6-0.2c-0.2,0-0.4,0-0.5,0.1c-0.2,0.1-0.4,0.1-0.6,0.3
			l-0.3-0.3c0.2-0.1,0.4-0.3,0.6-0.3c0.2-0.1,0.5-0.1,0.7-0.1c0.4,0,0.8,0.1,1,0.3C166.5,122.1,166.6,122.4,166.6,122.7z"/>
		<path class="st42" d="M170.4,126h-0.5v-3.1c0-0.3,0-0.5,0-0.7c0,0-0.1,0.1-0.1,0.1c-0.1,0-0.3,0.2-0.7,0.6l-0.3-0.3l1.2-0.9h0.4
			V126z"/>
		<path class="st42" d="M173.5,125.7c0-0.1,0-0.2,0.1-0.3c0.1-0.1,0.1-0.1,0.3-0.1c0.1,0,0.2,0,0.3,0.1c0.1,0.1,0.1,0.2,0.1,0.3
			c0,0.1,0,0.2-0.1,0.3c-0.1,0.1-0.2,0.1-0.3,0.1c-0.1,0-0.2,0-0.3-0.1C173.5,126,173.5,125.9,173.5,125.7z"/>
		<path class="st42" d="M177.6,121.6c0.4,0,0.7,0.1,0.9,0.3c0.2,0.2,0.3,0.4,0.3,0.8c0,0.2-0.1,0.4-0.2,0.6s-0.3,0.3-0.6,0.5
			c0.4,0.2,0.6,0.3,0.8,0.5c0.1,0.2,0.2,0.4,0.2,0.6c0,0.4-0.1,0.7-0.4,0.9c-0.3,0.2-0.6,0.3-1,0.3c-0.5,0-0.8-0.1-1.1-0.3
			c-0.3-0.2-0.4-0.5-0.4-0.9c0-0.5,0.3-0.9,0.9-1.2c-0.3-0.2-0.5-0.3-0.6-0.5c-0.1-0.2-0.2-0.4-0.2-0.6c0-0.3,0.1-0.6,0.4-0.8
			C176.9,121.7,177.2,121.6,177.6,121.6z M176.7,124.9c0,0.2,0.1,0.4,0.2,0.6c0.2,0.1,0.4,0.2,0.7,0.2c0.3,0,0.5-0.1,0.7-0.2
			s0.2-0.3,0.2-0.6c0-0.2-0.1-0.4-0.2-0.5c-0.2-0.2-0.4-0.3-0.8-0.4c-0.3,0.1-0.5,0.3-0.6,0.4C176.7,124.5,176.7,124.7,176.7,124.9z
			 M177.6,122c-0.2,0-0.4,0.1-0.6,0.2c-0.1,0.1-0.2,0.3-0.2,0.5c0,0.2,0.1,0.3,0.2,0.5c0.1,0.1,0.3,0.3,0.7,0.4
			c0.3-0.1,0.5-0.2,0.6-0.4c0.1-0.1,0.2-0.3,0.2-0.5c0-0.2-0.1-0.4-0.2-0.5C178.1,122.1,177.9,122,177.6,122z"/>
		<path class="st42" d="M182.7,126h-0.5v-3.1c0-0.3,0-0.5,0-0.7c0,0-0.1,0.1-0.1,0.1c-0.1,0-0.3,0.2-0.7,0.6l-0.3-0.3l1.2-0.9h0.4
			V126z"/>
		<path class="st42" d="M187.1,121.6c0.4,0,0.7,0.1,0.9,0.3c0.2,0.2,0.3,0.4,0.3,0.8c0,0.2-0.1,0.4-0.2,0.6s-0.3,0.3-0.6,0.5
			c0.4,0.2,0.6,0.3,0.8,0.5c0.1,0.2,0.2,0.4,0.2,0.6c0,0.4-0.1,0.7-0.4,0.9c-0.3,0.2-0.6,0.3-1,0.3c-0.5,0-0.8-0.1-1.1-0.3
			c-0.3-0.2-0.4-0.5-0.4-0.9c0-0.5,0.3-0.9,0.9-1.2c-0.3-0.2-0.5-0.3-0.6-0.5c-0.1-0.2-0.2-0.4-0.2-0.6c0-0.3,0.1-0.6,0.4-0.8
			C186.4,121.7,186.7,121.6,187.1,121.6z M186.1,124.9c0,0.2,0.1,0.4,0.2,0.6c0.2,0.1,0.4,0.2,0.7,0.2c0.3,0,0.5-0.1,0.7-0.2
			s0.2-0.3,0.2-0.6c0-0.2-0.1-0.4-0.2-0.5c-0.2-0.2-0.4-0.3-0.8-0.4c-0.3,0.1-0.5,0.3-0.6,0.4C186.2,124.5,186.1,124.7,186.1,124.9z
			 M187.1,122c-0.2,0-0.4,0.1-0.6,0.2c-0.1,0.1-0.2,0.3-0.2,0.5c0,0.2,0.1,0.3,0.2,0.5c0.1,0.1,0.3,0.3,0.7,0.4
			c0.3-0.1,0.5-0.2,0.6-0.4c0.1-0.1,0.2-0.3,0.2-0.5c0-0.2-0.1-0.4-0.2-0.5C187.5,122.1,187.3,122,187.1,122z"/>
		<path class="st42" d="M190.5,125.7c0-0.1,0-0.2,0.1-0.3c0.1-0.1,0.1-0.1,0.3-0.1c0.1,0,0.2,0,0.3,0.1c0.1,0.1,0.1,0.2,0.1,0.3
			c0,0.1,0,0.2-0.1,0.3c-0.1,0.1-0.2,0.1-0.3,0.1c-0.1,0-0.2,0-0.3-0.1C190.5,126,190.5,125.9,190.5,125.7z"/>
		<path class="st42" d="M193.3,124.2c0-0.9,0.2-1.5,0.5-1.9c0.3-0.4,0.8-0.6,1.5-0.6c0.2,0,0.4,0,0.5,0.1v0.4
			c-0.2,0-0.3-0.1-0.5-0.1c-0.5,0-0.8,0.1-1.1,0.4c-0.2,0.3-0.4,0.8-0.4,1.4h0c0.2-0.3,0.6-0.5,1-0.5c0.4,0,0.7,0.1,0.9,0.4
			c0.2,0.2,0.3,0.6,0.3,1c0,0.5-0.1,0.8-0.4,1.1c-0.2,0.3-0.6,0.4-1,0.4c-0.5,0-0.8-0.2-1.1-0.5
			C193.4,125.3,193.3,124.8,193.3,124.2z M194.7,125.7c0.3,0,0.5-0.1,0.7-0.3c0.2-0.2,0.2-0.4,0.2-0.8c0-0.3-0.1-0.5-0.2-0.7
			c-0.1-0.2-0.4-0.2-0.7-0.2c-0.2,0-0.3,0-0.5,0.1c-0.1,0.1-0.3,0.2-0.4,0.3c-0.1,0.1-0.1,0.3-0.1,0.4c0,0.2,0,0.4,0.1,0.6
			c0.1,0.2,0.2,0.3,0.3,0.4C194.4,125.6,194.5,125.7,194.7,125.7z"/>
		<path class="st42" d="M199.8,126h-0.5v-3.1c0-0.3,0-0.5,0-0.7c0,0-0.1,0.1-0.1,0.1c-0.1,0-0.3,0.2-0.7,0.6l-0.3-0.3l1.2-0.9h0.4
			V126z"/>
		<path class="st42" d="M205.5,123.5c0,1.7-0.7,2.6-2,2.6c-0.2,0-0.4,0-0.6-0.1v-0.4c0.2,0.1,0.3,0.1,0.5,0.1c0.5,0,0.8-0.1,1.1-0.4
			c0.2-0.3,0.4-0.8,0.4-1.4h0c-0.1,0.2-0.3,0.3-0.4,0.4c-0.2,0.1-0.4,0.1-0.6,0.1c-0.4,0-0.7-0.1-0.9-0.3s-0.3-0.6-0.3-1
			c0-0.5,0.1-0.8,0.4-1.1c0.3-0.3,0.6-0.4,1-0.4c0.3,0,0.6,0.1,0.8,0.2c0.2,0.2,0.4,0.4,0.5,0.7
			C205.5,122.8,205.5,123.1,205.5,123.5z M204.1,122c-0.3,0-0.5,0.1-0.7,0.3c-0.2,0.2-0.2,0.4-0.2,0.8c0,0.3,0.1,0.5,0.2,0.7
			c0.1,0.2,0.4,0.2,0.7,0.2c0.2,0,0.3,0,0.5-0.1c0.2-0.1,0.3-0.2,0.4-0.3c0.1-0.1,0.1-0.3,0.1-0.4c0-0.2,0-0.4-0.1-0.6
			c-0.1-0.2-0.2-0.3-0.3-0.4C204.4,122.1,204.2,122,204.1,122z"/>
		<path class="st42" d="M209.2,126h-0.5v-3.1c0-0.3,0-0.5,0-0.7c0,0-0.1,0.1-0.1,0.1c-0.1,0-0.3,0.2-0.7,0.6l-0.3-0.3l1.2-0.9h0.4
			V126z"/>
	</g>
	<g>
		<path class="st36" d="M35.9,126l-1.6-4.1h0c0,0.3,0,0.7,0,1.1v2.9h-0.5v-4.6h0.8l1.5,3.8h0l1.5-3.8h0.8v4.6h-0.5v-3
			c0-0.3,0-0.7,0-1.1h0l-1.6,4.1H35.9z"/>
		<path class="st36" d="M42.2,126v-4.6h0.5v4.6H42.2z"/>
		<path class="st36" d="M48.6,121.9c-0.5,0-0.9,0.2-1.2,0.5c-0.3,0.3-0.4,0.8-0.4,1.4c0,0.6,0.1,1.1,0.4,1.4
			c0.3,0.3,0.7,0.5,1.2,0.5c0.3,0,0.7-0.1,1.1-0.2v0.5c-0.3,0.1-0.7,0.2-1.2,0.2c-0.7,0-1.2-0.2-1.6-0.6c-0.4-0.4-0.6-1-0.6-1.7
			c0-0.5,0.1-0.9,0.3-1.2c0.2-0.4,0.4-0.6,0.8-0.8c0.3-0.2,0.7-0.3,1.2-0.3c0.5,0,0.9,0.1,1.3,0.3l-0.2,0.5
			C49.3,122,48.9,121.9,48.6,121.9z"/>
		<path class="st36" d="M56.7,126h-0.5v-2.2h-2.4v2.2h-0.5v-4.6h0.5v1.9h2.4v-1.9h0.5V126z"/>
		<path class="st36" d="M63.4,126l-0.6-1.5H61l-0.6,1.5h-0.5l1.8-4.6h0.4l1.8,4.6H63.4z M62.7,124.1l-0.5-1.4
			c-0.1-0.2-0.1-0.4-0.2-0.7c0,0.2-0.1,0.4-0.2,0.7l-0.5,1.4H62.7z"/>
		<path class="st36" d="M69.7,126h-2.6v-4.6h2.6v0.5h-2v1.5h1.9v0.5h-1.9v1.7h2V126z"/>
		<path class="st36" d="M73.3,126v-4.6h0.5v4.1h2v0.5H73.3z"/>
		<path class="st36" d="M81.8,124.8c0,0.4-0.1,0.7-0.4,0.9c-0.3,0.2-0.7,0.3-1.2,0.3c-0.5,0-1-0.1-1.3-0.2v-0.5
			c0.2,0.1,0.4,0.1,0.6,0.2c0.2,0,0.4,0.1,0.7,0.1c0.4,0,0.6-0.1,0.8-0.2c0.2-0.1,0.3-0.3,0.3-0.6c0-0.2,0-0.3-0.1-0.4
			c-0.1-0.1-0.2-0.2-0.3-0.3s-0.4-0.2-0.7-0.3c-0.4-0.2-0.7-0.3-0.9-0.5c-0.2-0.2-0.3-0.5-0.3-0.8c0-0.4,0.1-0.6,0.4-0.8
			c0.3-0.2,0.6-0.3,1.1-0.3c0.5,0,0.9,0.1,1.3,0.3l-0.2,0.5c-0.4-0.2-0.7-0.2-1.1-0.2c-0.3,0-0.5,0.1-0.7,0.2
			c-0.2,0.1-0.2,0.3-0.2,0.5c0,0.2,0,0.3,0.1,0.4c0.1,0.1,0.2,0.2,0.3,0.3c0.1,0.1,0.4,0.2,0.6,0.3c0.5,0.2,0.8,0.4,1,0.6
			C81.7,124.3,81.8,124.5,81.8,124.8z"/>
		<path class="st36" d="M86.7,126h-0.5v-4.1h-1.5v-0.5h3.4v0.5h-1.5V126z"/>
		<path class="st36" d="M93.9,126h-2.6v-4.6h2.6v0.5h-2v1.5h1.9v0.5h-1.9v1.7h2V126z"/>
		<path class="st36" d="M101.5,126H101l-0.9-3.1c0-0.1-0.1-0.3-0.1-0.5c-0.1-0.2-0.1-0.3-0.1-0.4c0,0.3-0.1,0.6-0.2,0.9l-0.9,3h-0.5
			l-1.2-4.6h0.6l0.7,2.8c0.1,0.4,0.2,0.8,0.2,1.1c0.1-0.4,0.1-0.8,0.3-1.1l0.8-2.8h0.6l0.9,2.8c0.1,0.3,0.2,0.7,0.3,1.1
			c0-0.3,0.1-0.7,0.2-1.1l0.7-2.8h0.6L101.5,126z"/>
		<path class="st36" d="M108,126l-1.6-4.1h0c0,0.3,0,0.7,0,1.1v2.9H106v-4.6h0.8l1.5,3.8h0l1.5-3.8h0.8v4.6H110v-3
			c0-0.3,0-0.7,0-1.1h0l-1.6,4.1H108z"/>
		<path class="st36" d="M117.3,126l-0.6-1.5h-1.8l-0.6,1.5h-0.5l1.8-4.6h0.4l1.8,4.6H117.3z M116.5,124.1l-0.5-1.4
			c-0.1-0.2-0.1-0.4-0.2-0.7c0,0.2-0.1,0.4-0.2,0.7l-0.5,1.4H116.5z"/>
		<path class="st36" d="M124.6,126H124l-2.5-3.8h0c0,0.5,0.1,0.9,0.1,1.2v2.6H121v-4.6h0.6l2.5,3.8h0c0-0.1,0-0.2,0-0.5
			c0-0.3,0-0.5,0-0.7v-2.6h0.5V126z"/>
		<path class="st36" d="M128.3,125.7c0-0.1,0-0.2,0.1-0.3c0.1-0.1,0.2-0.1,0.3-0.1c0.1,0,0.2,0,0.3,0.1c0.1,0.1,0.1,0.2,0.1,0.3
			c0,0.1,0,0.2-0.1,0.3s-0.2,0.1-0.3,0.1c-0.1,0-0.2,0-0.3-0.1C128.3,126,128.3,125.9,128.3,125.7z"/>
		<path class="st36" d="M134.6,121.9c-0.5,0-0.9,0.2-1.2,0.5c-0.3,0.3-0.4,0.8-0.4,1.4c0,0.6,0.1,1.1,0.4,1.4
			c0.3,0.3,0.7,0.5,1.2,0.5c0.3,0,0.7-0.1,1.1-0.2v0.5c-0.3,0.1-0.7,0.2-1.2,0.2c-0.7,0-1.2-0.2-1.6-0.6c-0.4-0.4-0.6-1-0.6-1.7
			c0-0.5,0.1-0.9,0.3-1.2s0.4-0.6,0.8-0.8c0.3-0.2,0.7-0.3,1.2-0.3c0.5,0,0.9,0.1,1.3,0.3l-0.2,0.5C135.3,122,135,121.9,134.6,121.9
			z"/>
		<path class="st36" d="M143.3,123.7c0,0.7-0.2,1.3-0.6,1.7c-0.4,0.4-0.9,0.6-1.5,0.6c-0.7,0-1.2-0.2-1.6-0.6
			c-0.4-0.4-0.6-1-0.6-1.7c0-0.7,0.2-1.3,0.6-1.7c0.4-0.4,0.9-0.6,1.6-0.6c0.7,0,1.2,0.2,1.5,0.6C143.1,122.4,143.3,123,143.3,123.7
			z M139.6,123.7c0,0.6,0.1,1.1,0.4,1.4c0.3,0.3,0.6,0.5,1.2,0.5c0.5,0,0.9-0.2,1.1-0.5c0.3-0.3,0.4-0.8,0.4-1.4
			c0-0.6-0.1-1.1-0.4-1.4c-0.3-0.3-0.6-0.5-1.1-0.5c-0.5,0-0.9,0.2-1.2,0.5C139.8,122.7,139.6,123.1,139.6,123.7z"/>
		<path class="st36" d="M148.9,126l-1.6-4.1h0c0,0.3,0,0.7,0,1.1v2.9h-0.5v-4.6h0.8l1.5,3.8h0l1.5-3.8h0.8v4.6h-0.5v-3
			c0-0.3,0-0.7,0-1.1h0l-1.6,4.1H148.9z"/>
	</g>
</g>
</svg>
