<?xml version="1.0" encoding="utf-8"?>
<!-- Generator: Adobe Illustrator 27.9.6, SVG Export Plug-In . SVG Version: 9.03 Build 54986)  -->
<svg version="1.1" id="Layer_1" xmlns="http://www.w3.org/2000/svg" xmlns:xlink="http://www.w3.org/1999/xlink" x="0px" y="0px"
	 viewBox="0 0 1843.2 260.1" style="enable-background:new 0 0 1843.2 260.1;" xml:space="preserve"><metadata><c2pa:manifest xmlns:c2pa="http://c2pa.org/manifest">AAA0OGp1bWIAAAAeanVtZGMycGEAEQAQgAAAqgA4m3EDYzJwYQAAADQSanVtYgAAAEdqdW1kYzJtYQARABCAAACqADibcQN1cm46dXVpZDoyY2UwNzViYy1jMTdlLTQzZDMtOTc3YS1iZmU3ZDAxNTdhYTUAAAABqGp1bWIAAAApanVtZGMyYXMAEQAQgAAAqgA4m3EDYzJwYS5hc3NlcnRpb25zAAAAAMpqdW1iAAAAJmp1bWRjYm9yABEAEIAAAKoAOJtxA2MycGEuYWN0aW9ucwAAAACcY2JvcqFnYWN0aW9uc4GjZmFjdGlvbmtjMnBhLmVkaXRlZG1zb2Z0d2FyZUFnZW50bUFkb2JlIEZpcmVmbHlxZGlnaXRhbFNvdXJjZVR5cGV4Rmh0dHA6Ly9jdi5pcHRjLm9yZy9uZXdzY29kZXMvZGlnaXRhbHNvdXJjZXR5cGUvdHJhaW5lZEFsZ29yaXRobWljTWVkaWEAAACtanVtYgAAAChqdW1kY2JvcgARABCAAACqADibcQNjMnBhLmhhc2guZGF0YQAAAAB9Y2JvcqVqZXhjbHVzaW9uc4GiZXN0YXJ0GQGsZmxlbmd0aBlFoGRuYW1lbmp1bWJmIG1hbmlmZXN0Y2FsZ2ZzaGEyNTZkaGFzaFggnuFBhZhncibzl3oYZODoTs8YGDR/co800OMVZzomdZ9jcGFkSQAAAAAAAAAAAAAAAgtqdW1iAAAAJGp1bWRjMmNsABEAEIAAAKoAOJtxA2MycGEuY2xhaW0AAAAB32Nib3KoaGRjOnRpdGxlb0dlbmVyYXRlZCBJbWFnZWlkYzpmb3JtYXRtaW1hZ2Uvc3ZnK3htbGppbnN0YW5jZUlEeCx4bXA6aWlkOjNkNzZmM2EzLWY0OGItNDkzOC1iODYxLTMxNjljMTJjZDAyMG9jbGFpbV9nZW5lcmF0b3J4NkFkb2JlX0lsbHVzdHJhdG9yLzI3LjkgYWRvYmVfYzJwYS8wLjcuNiBjMnBhLXJzLzAuMjUuMnRjbGFpbV9nZW5lcmF0b3JfaW5mb4G/ZG5hbWVxQWRvYmUgSWxsdXN0cmF0b3JndmVyc2lvbmQyNy45/2lzaWduYXR1cmV4GXNlbGYjanVtYmY9YzJwYS5zaWduYXR1cmVqYXNzZXJ0aW9uc4KiY3VybHgnc2VsZiNqdW1iZj1jMnBhLmFzc2VydGlvbnMvYzJwYS5hY3Rpb25zZGhhc2hYIOusZuFqg598YJzpOfX+1iNBgqddK8SSEhBG9CJk0CvBomN1cmx4KXNlbGYjanVtYmY9YzJwYS5hc3NlcnRpb25zL2MycGEuaGFzaC5kYXRhZGhhc2hYINysxVbLmEpT+Rp1r7LLHHGtHEe5kaMQw1DS4Bu1DlyEY2FsZ2ZzaGEyNTYAADAQanVtYgAAAChqdW1kYzJjcwARABCAAACqADibcQNjMnBhLnNpZ25hdHVyZQAAAC/gY2JvctKEWQ0UogE4JBghglkGoDCCBpwwggSEoAMCAQICFElzIGs+dd/JbK9/Vv8tKq2wQAfdMA0GCSqGSIb3DQEBCwUAMHUxCzAJBgNVBAYTAlVTMSMwIQYDVQQKExpBZG9iZSBTeXN0ZW1zIEluY29ycG9yYXRlZDEdMBsGA1UECxMUQWRvYmUgVHJ1c3QgU2VydmljZXMxIjAgBgNVBAMTGUFkb2JlIFByb2R1Y3QgU2VydmljZXMgRzQwHhcNMjUxMDA3MTYzOTA3WhcNMjYxMDA3MTYzOTA3WjCBqzETMBEGA1UEAwwKQWRvYmUgQzJQQTEoMCYGA1UECwwfQ29udGVudCBBdXRoZW50aWNpdHkgSW5pdGlhdGl2ZTETMBEGA1UECgwKQWRvYmUgSW5jLjERMA8GA1UEBwwIU2FuIEpvc2UxEzARBgNVBAgMCkNhbGlmb3JuaWExCzAJBgNVBAYTAlVTMSAwHgYJKoZIhvcNAQkBFhFjYWktb3BzQGFkb2JlLmNvbTCCASIwDQYJKoZIhvcNAQEBBQADggEPADCCAQoCggEBAMMQwYHQfT1y6TFz8OaDYGJBVgzz9Wkn7YfU2TyDTrTkJYadb+IfoTMWVhY5Gd0SUbqEga7EkmAWhH4gzCorIv7DsbhRygVf/5da790q464sQDVyJaoxnSGMnWjGhWv+aLxc/5uPklM9HHGM6sPr0gM7kckhp6YJvBpo/khCXC/xiB86lPW1MtzbIs2NqGNvMo99q25DqngA0jOdTqiCSpaBARRXsczLp86VPitrC6oXqEfBSTGkdHxl2v4Kkc4ZIgRYcFISz0vbOvkwp89PVGTJV23Rv4hSo91DxVA46odMLRYHM9uA61JWlnopbSh6LspgR7oq875jhtFbUj3qcTkCAwEAAaOCAeswggHnMAwGA1UdEwEB/wQCMAAwHQYDVR0OBBYEFFj1A37QZgzhjg5WoZdCSdK7J8L+MB8GA1UdIwQYMBaAFNCtQorwehQHJcaXwEOoI4XotS0jMA4GA1UdDwEB/wQEAwIHgDAqBgNVHSUEIzAhBgkqhkiG9y8BAQwGCisGAQQBg+heAgEGCCsGAQUFBwMEMIGABggrBgEFBQcBAQR0MHIwKAYIKwYBBQUHMAGGHGh0dHA6Ly9vY3NwLm9uZS5kaWdpY2VydC5jb20wRgYIKwYBBQUHMAKGOmh0dHA6Ly9jYWNlcnRzLm9uZS5kaWdpY2VydC5jb20vQWRvYmVQcm9kdWN0U2VydmljZXNHNC5jcnQwRwYDVR0fBEAwPjA8oDqgOIY2aHR0cDovL2NybC5vbmUuZGlnaWNlcnQuY29tL0Fkb2JlUHJvZHVjdFNlcnZpY2VzRzQuY3JsMIGOBgNVHSAEgYYwgYMwgYAGCSqGSIb3LwECAzBzMHEGCCsGAQUFBwICMGUMY1lvdSBhcmUgbm90IHBlcm1pdHRlZCB0byB1c2UgdGhpcyBMaWNlbnNlIENlcnRpZmljYXRlIGV4Y2VwdCBhcyBwZXJtaXR0ZWQgYnkgdGhlIGxpY2Vuc2UgYWdyZWVtZW50LjANBgkqhkiG9w0BAQsFAAOCAgEAmztzxXCtUX5XoUNesR6hNRnPOpEkYBehDsCJXp1pEcdlUk9jY0705Tp1qG1S8X/YBSDDbXprBaCAXzZnPke7fhjQzPoUn7LSyZKhagJUDrU4mjmpIOnNLm0lVqoLHv6Yj2teZP6qy6SLuFQXtwZsrTkklfhxTjyrHe3DtPbCXgzGrZNyuIxzHv2p1xElF5WjfraJb14OqgEPFxNXEm+uUBQYmsFDHo+o0G5DWad456KzgakiXzsSEMO/f1pxTGH8UR/5SNq7GON2KYal3AV4n4yUNI8RTKiRja5tv8jgy+gRlba45/e5KH2VtnChc+aw0k85XBRHClAAdYlu3nnk0ipc0ZFfjpNom/OJUxYDW4vVAZ09yi0uhJGSxCKXQNoeErnp9acB41pmbMVgN4f9/TqHLDnoCyzb6XVUS5bX9uo+9qGkB309EMoc68w1uPBSTd6JSapQgQpNBucKdzuSqRncj6vYQBo0ya76cbJwl0qqOmWc7yZX5CapAGul3/diyussK51M8vGgREBJ8gRe+o6DzN4E1jJyVTwj5dQfRcsPrcqmILTTICcr5bSHJa8eKuwy5bjK2/dgZ6Dep2sPm3c+SDf6KkdShM2K4Q9uKKXZLWPQLK90dyhQ4HT77/6/0ZOL3bWJ5MgHXPM8Z8oZ1B3KQB/RQ7KwCtUb4GuLHrJZBmcwggZjMIIES6ADAgECAhAO4brfrXiubya9USWYB4gvMA0GCSqGSIb3DQEBCwUAMGwxCzAJBgNVBAYTAlVTMSMwIQYDVQQKExpBZG9iZSBTeXN0ZW1zIEluY29ycG9yYXRlZDEdMBsGA1UECxMUQWRvYmUgVHJ1c3QgU2VydmljZXMxGTAXBgNVBAMTEEFkb2JlIFJvb3QgQ0EgRzIwHhcNMjQxMTIwMDAwMDAwWhcNNDQxMTE5MjM1OTU5WjB1MQswCQYDVQQGEwJVUzEjMCEGA1UEChMaQWRvYmUgU3lzdGVtcyBJbmNvcnBvcmF0ZWQxHTAbBgNVBAsTFEFkb2JlIFRydXN0IFNlcnZpY2VzMSIwIAYDVQQDExlBZG9iZSBQcm9kdWN0IFNlcnZpY2VzIEc0MIICIjANBgkqhkiG9w0BAQEFAAOCAg8AMIICCgKCAgEArEX4gLFYSLzO6YKZ4sKJTtqzpEMSSAH/LqcVd5x4wBALlp/ILNd5bJAmiU7sKaLg3Dm+17F0PfNULAbtxQCfeQes1os22QZL6qnuMIbdCm8BKR1H66M6nJaI4H+IGXJZH7x2MWmO/c3fbe1HgOif3N5nbf4Zy2WZ34Pkq8jXMpB1Zgcq0zEUlpEpfCt5s4TiK3iVWg99jzje9703ty4mUXKPZW7c0uuvVGAQX6N1QAATKdOEYpVWhQobVpua6+YurfguW4BxEgwTRMTwS4Yw2+iZMsBgjZzgxJfGGsmpOGVZGj4yxeL4nlL9Viyb6G93gWXC6z6oXhwD7VAQM0yKJ3E9MyOLc5c0CGycVY0UUG3RHNM1IWw5A5sMpOj3RgG8R9PokaqPCSvuER+PzuBw1VeTOglIcQAMniQ2cm7muB5/Yu9inh0bUSlCyQYytlqrnmANxspWbiudjkz3eUewbgMS6x//diKF0851zSwOCYMMmK5BHoaVvV8rhJ7Qn2+iZdJJbWncgK/dNSl4p38ZFvcKEMWkx8cO/RSN8JGH155EFcUYJaQHoNS9IzPq4AcWkO5eJHJ6ZGOOzMlNbDHSnocHIx229FCGED8l+ARwsS1RxvkxOgKv4PAg7hlqg1qS0m8k5Ae0bRNBsCuEiD7/flStNtU9tmDunGZCeNOBs+8CAwEAAaOB9zCB9DASBgNVHRMBAf8ECDAGAQH/AgEAMDUGA1UdHwQuMCwwKqAooCaGJGh0dHA6Ly9jcmwuYWRvYmUuY29tL2Fkb2Jlcm9vdGcyLmNybDAOBgNVHQ8BAf8EBAMCAYYwVwYDVR0gBFAwTjBMBgkqhkiG9y8BAgMwPzA9BggrBgEFBQcCARYxaHR0cHM6Ly93d3cuYWRvYmUuY29tL21pc2MvcGtpL3Byb2Rfc3ZjZV9jcHMuaHRtbDAdBgNVHQ4EFgQU0K1CivB6FAclxpfAQ6gjhei1LSMwHwYDVR0jBBgwFoAUphzhbVQkTKiPSHK/bqmM1eTsMdQwDQYJKoZIhvcNAQELBQADggIBAJGWqENTTs5YuaFrb5im1gQwWve0QT2+EEuWeU3uh4pFb1LxRUQYlQ3AafDgczLYgh4YZzqmfaH6zplXrEnwJ2OAxPxmnk61o017k7+offsQROwPE3v2VQOiVYCc70ZPUufV9PbnPuf6KVI9DkQxTMqxNGyWokxVB5M5hY1hfzT54V6hPz/Szo1kuzGh3DiX6kFF3K8jmDaD++DFNg9CN2MF6ogg8Fl9bk8jpYnB6wlbrm1dqp3UY2aSQM+U7dlxLyqPRM43GkJ+sOyNOb46lf2TZi/KWO7P8YuyybD2GnDA5r2BIg6FWtHWFIKhaSsdDUpZ5p509ESLQB2VDQ1cKU+Z/sDEJk3x7h+Q2i9249fJOcjjec3w8UyxSbJJTFv1G3JY4fzsq4mMFWSBfY9shG8LGdDpGvMSUxvMp/D+gNGzw+yr+abc6pXEYTwmoQfvKXeYtrs5ASTpsAyOoSg5GTG50ZN/Rt7JXvYi7kyWSUhn0vcntcsg5uZRGBWEl/OYF+5svB9EabVppJx97IIv/fxPSMq0qpiSUOLUDdVtY8FIyfywJxLtw6ttEtC2bVjqoRL7MTku+38eexUB4HVxpC7E/4VuVztrjFBvqxGbLoWZVYVurALXLN5dtKj2SLb7N3c57ODJ82ZaCgSPczCVtBcw2L1WryQD0d/itrIuzbx+o2ZzaWdUc3ShaXRzdFRva2Vuc4GhY3ZhbFkOWTCCDlUwAwIBADCCDkwGCSqGSIb3DQEHAqCCDj0wgg45AgEDMQ8wDQYJYIZIAWUDBAIBBQAwgYIGCyqGSIb3DQEJEAEEoHMEcTBvAgEBBglghkgBhv1sBwEwMTANBglghkgBZQMEAgEFAAQg+ycegGEI+rkQ33RIbIFRAVJ4lyHej+rR+mObYOwO8HsCEQDXEZTTgf8zkDWT+bGEDwZKGA8yMDI2MDEyOTE4MDAwOFoCCGApC4lWRPEfoIIL2jCCBR4wggMGoAMCAQICEAkZDcEsnIfbMv0KtVC97UswDQYJKoZIhvcNAQELBQAwaTELMAkGA1UEBhMCVVMxFzAVBgNVBAoTDkRpZ2lDZXJ0LCBJbmMuMUEwPwYDVQQDEzhEaWdpQ2VydCBUcnVzdGVkIEc0IFRpbWVTdGFtcGluZyBSU0E0MDk2IFNIQTI1NiAyMDI1IENBMTAeFw0yNTA2MTEwMDAwMDBaFw0zNjA5MTAyMzU5NTlaMF8xCzAJBgNVBAYTAlVTMRcwFQYDVQQKEw5EaWdpQ2VydCwgSW5jLjE3MDUGA1UEAxMuQWRvYmUgU0hBMjU2IEVDQzI1NiBUaW1lc3RhbXAgUmVzcG9uZGVyIDIwMjUgMTBZMBMGByqGSM49AgEGCCqGSM49AwEHA0IABDqZydXZSO9L84jXxrJwIPPeIspw7/k8jP1iwxb5ZO0PbiN3ijVubsdbzV38sK17hnS0u5hnGOEdH2EnsUwRqfKjggGVMIIBkTAMBgNVHRMBAf8EAjAAMB0GA1UdDgQWBBQgdqGjbnEVj3SVDa6kLKQ2P1gZFTAfBgNVHSMEGDAWgBTvb1NK6eQGfHrK4pBW9i/USezLTjAOBgNVHQ8BAf8EBAMCB4AwFgYDVR0lAQH/BAwwCgYIKwYBBQUHAwgwgZUGCCsGAQUFBwEBBIGIMIGFMCQGCCsGAQUFBzABhhhodHRwOi8vb2NzcC5kaWdpY2VydC5jb20wXQYIKwYBBQUHMAKGUWh0dHA6Ly9jYWNlcnRzLmRpZ2ljZXJ0LmNvbS9EaWdpQ2VydFRydXN0ZWRHNFRpbWVTdGFtcGluZ1JTQTQwOTZTSEEyNTYyMDI1Q0ExLmNydDBfBgNVHR8EWDBWMFSgUqBQhk5odHRwOi8vY3JsMy5kaWdpY2VydC5jb20vRGlnaUNlcnRUcnVzdGVkRzRUaW1lU3RhbXBpbmdSU0E0MDk2U0hBMjU2MjAyNUNBMS5jcmwwIAYDVR0gBBkwFzAIBgZngQwBBAIwCwYJYIZIAYb9bAcBMA0GCSqGSIb3DQEBCwUAA4ICAQBKnP4qzrnk6bae64mNkuAvegVfF4WZ752PCIF1U+QchK/h9ENe079SAU7s66f6zo6g2tgpDobFpEtS7bcOasJ4TK8F0TlFf8IAS0rjvc+wOyjxzW2aSOoNIfODENGzChf8QdYixJGuMkzxFYHsp3co+NrSO5m2QVWknOqOT92on1RqrKIp8qsJGLAiktTUJ0FEWePq7ElN+HTLvHOv6tY48dUwk17MXneImj3CL5BI5fZ57pmtt0oBgdY7ywz4RkbS/M1pZ6pQ3UuVODntDU8qkoLGIKYqCqzEZeZJxaKxk/OMS5Q7KssP04mPK9c7xJ4e9/rE8XCGcITeBzZ52wftAJV2wnc6kpnsky5vAjYbCoj0yDAacokbfmT7y9AT0wvOJUPfSLjLyPI5J0xp95cdi8bHRoYDAI5szZ7MZKad1Vav0M+HVwZqY0CuNNSRxZEXTKjRTMnB0bXhVCo+XmeWP/a0uqTbToNPYWwgxAoJrjZQlsiFLaF0vGcc3xKmSnJ5TraBThVPllFZqqZu/D7hAUiAdChY94w7A2lUep9YChxva/tuyiaC8qgx3nmSMaNudy3rnGKQRpIx7lOUaM2Z+jNurUELw4sX16oDovhlbVmJ5Ekg/RgGL0SJBfmYfQs3I1YD8K6BiB31vHNEcX71GhVfxqvzfcR8GkY+xFIeTDCCBrQwggScoAMCAQICEA3HrFcF/yGZLkBDIgw6SYYwDQYJKoZIhvcNAQELBQAwYjELMAkGA1UEBhMCVVMxFTATBgNVBAoTDERpZ2lDZXJ0IEluYzEZMBcGA1UECxMQd3d3LmRpZ2ljZXJ0LmNvbTEhMB8GA1UEAxMYRGlnaUNlcnQgVHJ1c3RlZCBSb290IEc0MB4XDTI1MDUwNzAwMDAwMFoXDTM4MDExNDIzNTk1OVowaTELMAkGA1UEBhMCVVMxFzAVBgNVBAoTDkRpZ2lDZXJ0LCBJbmMuMUEwPwYDVQQDEzhEaWdpQ2VydCBUcnVzdGVkIEc0IFRpbWVTdGFtcGluZyBSU0E0MDk2IFNIQTI1NiAyMDI1IENBMTCCAiIwDQYJKoZIhvcNAQEBBQADggIPADCCAgoCggIBALR4MdMKmEFyvjxGwBysddujRmh0tFEXnU2tjQ2UtZmWgyxU7UNqEY81FzJsQqr5G7A6c+Gh/qm8Xi4aPCOo2N8S9SLrC6Kbltqn7SWCWgzbNfiR+2fkHUiljNOqnIVD/gG3SYDEAd4dg2dDGpeZGKe+42DFUF0mR/vtLa4+gKPsYfwEu7EEbkC9+0F2w4QJLVSTEG8yAR2CQWIM1iI5PHg62IVwxKSpO0XaF9DPfNBKS7Zazch8NF5vp7eaZ2CVNxpqumzTCNSOxm+SAWSuIr21Qomb+zzQWKhxKTVVgtmUPAW35xUUFREmDrMxSNlr/NsJyUXzdtFUUt4aS4CEeIY8y9IaaGBpPNXKFifinT7zL2gdFpBP9qh8SdLnEut/GcalNeJQ55IuwnKCgs+nrpuQNfVmUB5KlCX3ZA4x5HHKS+rqBvKWxdCyQEEGcbLe1b8Aw4wJkhU1JrPsFfxW1gaou30yZ46t4Y9F20HHfIY4/6vHespYMQmUiote8ladjS/nJ0+k6MvqzfpzPDOy5y6gqztiT96Fv/9bH7mQyogxG9QEPHrPV6/7umw052AkyiLA6tQbZl1KhBtTasySkuJDpsZGKdlsjg4u70EwgWbVRSX1Wd4+zoFpp4Ra+MlKM2baoD6x0VR4RjSpWM8o5a6D8bpfm4CLKczsG7ZrIGNTAgMBAAGjggFdMIIBWTASBgNVHRMBAf8ECDAGAQH/AgEAMB0GA1UdDgQWBBTvb1NK6eQGfHrK4pBW9i/USezLTjAfBgNVHSMEGDAWgBTs1+OC0nFdZEzfLmc/57qYrhwPTzAOBgNVHQ8BAf8EBAMCAYYwEwYDVR0lBAwwCgYIKwYBBQUHAwgwdwYIKwYBBQUHAQEEazBpMCQGCCsGAQUFBzABhhhodHRwOi8vb2NzcC5kaWdpY2VydC5jb20wQQYIKwYBBQUHMAKGNWh0dHA6Ly9jYWNlcnRzLmRpZ2ljZXJ0LmNvbS9EaWdpQ2VydFRydXN0ZWRSb290RzQuY3J0MEMGA1UdHwQ8MDowOKA2oDSGMmh0dHA6Ly9jcmwzLmRpZ2ljZXJ0LmNvbS9EaWdpQ2VydFRydXN0ZWRSb290RzQuY3JsMCAGA1UdIAQZMBcwCAYGZ4EMAQQCMAsGCWCGSAGG/WwHATANBgkqhkiG9w0BAQsFAAOCAgEAF877FoAc/gc9EXZxML2+C8i1NKZ/zdCHxYgaMH9Pw5tcBnPw6O6FTGNpoV2V4wzSUGvI9NAzaoQk97frPBtIj+ZLzdp+yXdhOP4hCFATuNT+ReOPK0mCefSG+tXqGpYZ3essBS3q8nL2UwM+NMvEuBd/2vmdYxDCvwzJv2sRUoKEfJ+nN57mQfQXwcAEGCvRR2qKtntujB71WPYAgwPyWLKu6RnaID/B0ba2H3LUiwDRAXx1Neq9ydOal95CHfmTnM4I+ZI2rVQfjXQA1WSjjf4J2a7jLzWGNqNX+DF0SQzHU0pTi4dBwp9nEC8EAqoxW6q17r0z0noDjs6+BFo+z7bKSBwZXTRNivYuve3L2oiKNqetRHdqfMTCW/NmKLJ9M+MtucVGyOxiDf06VXxyKkOirv6o02OoXN4bFzK0vlNMsvhlqgF2puE6FndlENSmE+9JGYxOGLS/D284NHNboDGcmWXfwXRy4kbu4QFhOm0xJuF2EZAOk5eCkhSxZON3rGlHqhpB/8MluDezooIs8CVnrpHMiD2wL40mm53+/j7tFaxYKIqL0Q4ssd8xHZnIn/7GELH3IdvG2XlM9q7WP/UwgOkw/HQtyRN62JK4S1C8uw3PdBunvAZapsiI5YKdvlarEvf8EA+8hcpSM9LHJmyrxaFtoza2zNaQ9k+5t1wxggG+MIIBugIBATB9MGkxCzAJBgNVBAYTAlVTMRcwFQYDVQQKEw5EaWdpQ2VydCwgSW5jLjFBMD8GA1UEAxM4RGlnaUNlcnQgVHJ1c3RlZCBHNCBUaW1lU3RhbXBpbmcgUlNBNDA5NiBTSEEyNTYgMjAyNSBDQTECEAkZDcEsnIfbMv0KtVC97UswDQYJYIZIAWUDBAIBBQCggdEwGgYJKoZIhvcNAQkDMQ0GCyqGSIb3DQEJEAEEMBwGCSqGSIb3DQEJBTEPFw0yNjAxMjkxODAwMDhaMCsGCyqGSIb3DQEJEAIMMRwwGjAYMBYEFNeHunkpY5+4wS9KphZRdMvgpYDzMC8GCSqGSIb3DQEJBDEiBCBabz4QaJZ4lj8EurvoyfVf98AmsbJMgGlR3PF4GAbZOTA3BgsqhkiG9w0BCRACLzEoMCYwJDAiBCDTI6/iX909FvJvLyWefOSJ24bS2aqweyb1mDcIYIlWeDAKBggqhkjOPQQDAgRHMEUCIQD2B2cCNYaWwtb6XGkYdUZKpyZ+KvFMIWZj0eoLmP8yvgIgWcD+sGaPeoUjiayb+lgpsdYsUWfzhfpMyL2ezE6LrthlclZhbHOhaG9jc3BWYWxzgVkC2zCCAtcKAQCgggLQMIICzAYJKwYBBQUHMAEBBIICvTCCArkwgaKiFgQU0K1CivB6FAclxpfAQ6gjhei1LSMYDzIwMjYwMTI4MTcyMDQ4WjB3MHUwTTAJBgUrDgMCGgUABBSK77IBEG9rZRVNwaO3UamLc5LLFgQU0K1CivB6FAclxpfAQ6gjhei1LSMCFElzIGs+dd/JbK9/Vv8tKq2wQAfdgAAYDzIwMjYwMTI4MTcyMDQ4WqARGA8yMDI2MDIwNDE3MjA0OFowDQYJKoZIhvcNAQELBQADggIBAGqQ+RM6IHbsuSQCs7E6VH5R4ap5Qp+PKBfM9ZjM2LTZnMhCQgnrtF6g7E3QZKuBMqJ+siKQI7Zj+l09Ll6q6d/lFiQck8Zfu3FEi5wKF5r+21vD8XAOUnYQc3xt3hMwyA7crG2SX+qEAG1cVdJ2pSkzVZRWx/cC5F0ub8czYEQ+8OlpO3OriICPR6Z70lHpQkp0uAk82j1YbdvOwMB3WJJHpORx3qxw6J2A3rga/e1XPw/E4ljgNobNMRGlho36NO1nH2Q31OAieTSq6srJexqEGeqw9GIhbMFmaNbaVe87a+LXiByYzGCRdz9mBWNaFuUtdqNRDpBfgmU5RhY2t74ABsaMwr2T33Yv33TozmMgttlEPrgzADoAvK67u/6s+rRu0Ptp1/57K1NLsnmU4HAcs4g1fOEFVu28O3E5bt9W7ypVtrlB/YuY1v9l08s/NtrN1JW2e2eIEGIEGfwoERm9s0ERVFwZNNwWM9MW21NUDQ/oF3xiWeOUkKHojqVaRAjEOQlJrHoKYVcrFS1EsaA0t+7TNriZpT0RJ1pGR5AGx4W6vmOQ8SLDhTB+/Xpx+OFHssliOBzADOo3n6Cd5UjOHZm7bWfGcZ3ySkQc3NQBYv7GFwdqmRlacZhfFtYaSx/Ou2t+yAjH0kCLVm67cAylOSiptCOms8+5PGmXZtxCY3BhZFkQUAAAAAAAAAAAAAAAAAAAAAAAAAAAAAAAAAAAAAAAAAAAAAAAAAAAAAAAAAAAAAAAAAAAAAAAAAAAAAAAAAAAAAAAAAAAAAAAAAAAAAAAAAAAAAAAAAAAAAAAAAAAAAAAAAAAAAAAAAAAAAAAAAAAAAAAAAAAAAAAAAAAAAAAAAAAAAAAAAAAAAAAAAAAAAAAAAAAAAAAAAAAAAAAAAAAAAAAAAAAAAAAAAAAAAAAAAAAAAAAAAAAAAAAAAAAAAAAAAAAAAAAAAAAAAAAAAAAAAAAAAAAAAAAAAAAAAAAAAAAAAAAAAAAAAAAAAAAAAAAAAAAAAAAAAAAAAAAAAAAAAAAAAAAAAAAAAAAAAAAAAAAAAAAAAAAAAAAAAAAAAAAAAAAAAAAAAAAAAAAAAAAAAAAAAAAAAAAAAAAAAAAAAAAAAAAAAAAAAAAAAAAAAAAAAAAAAAAAAAAAAAAAAAAAAAAAAAAAAAAAAAAAAAAAAAAAAAAAAAAAAAAAAAAAAAAAAAAAAAAAAAAAAAAAAAAAAAAAAAAAAAAAAAAAAAAAAAAAAAAAAAAAAAAAAAAAAAAAAAAAAAAAAAAAAAAAAAAAAAAAAAAAAAAAAAAAAAAAAAAAAAAAAAAAAAAAAAAAAAAAAAAAAAAAAAAAAAAAAAAAAAAAAAAAAAAAAAAAAAAAAAAAAAAAAAAAAAAAAAAAAAAAAAAAAAAAAAAAAAAAAAAAAAAAAAAAAAAAAAAAAAAAAAAAAAAAAAAAAAAAAAAAAAAAAAAAAAAAAAAAAAAAAAAAAAAAAAAAAAAAAAAAAAAAAAAAAAAAAAAAAAAAAAAAAAAAAAAAAAAAAAAAAAAAAAAAAAAAAAAAAAAAAAAAAAAAAAAAAAAAAAAAAAAAAAAAAAAAAAAAAAAAAAAAAAAAAAAAAAAAAAAAAAAAAAAAAAAAAAAAAAAAAAAAAAAAAAAAAAAAAAAAAAAAAAAAAAAAAAAAAAAAAAAAAAAAAAAAAAAAAAAAAAAAAAAAAAAAAAAAAAAAAAAAAAAAAAAAAAAAAAAAAAAAAAAAAAAAAAAAAAAAAAAAAAAAAAAAAAAAAAAAAAAAAAAAAAAAAAAAAAAAAAAAAAAAAAAAAAAAAAAAAAAAAAAAAAAAAAAAAAAAAAAAAAAAAAAAAAAAAAAAAAAAAAAAAAAAAAAAAAAAAAAAAAAAAAAAAAAAAAAAAAAAAAAAAAAAAAAAAAAAAAAAAAAAAAAAAAAAAAAAAAAAAAAAAAAAAAAAAAAAAAAAAAAAAAAAAAAAAAAAAAAAAAAAAAAAAAAAAAAAAAAAAAAAAAAAAAAAAAAAAAAAAAAAAAAAAAAAAAAAAAAAAAAAAAAAAAAAAAAAAAAAAAAAAAAAAAAAAAAAAAAAAAAAAAAAAAAAAAAAAAAAAAAAAAAAAAAAAAAAAAAAAAAAAAAAAAAAAAAAAAAAAAAAAAAAAAAAAAAAAAAAAAAAAAAAAAAAAAAAAAAAAAAAAAAAAAAAAAAAAAAAAAAAAAAAAAAAAAAAAAAAAAAAAAAAAAAAAAAAAAAAAAAAAAAAAAAAAAAAAAAAAAAAAAAAAAAAAAAAAAAAAAAAAAAAAAAAAAAAAAAAAAAAAAAAAAAAAAAAAAAAAAAAAAAAAAAAAAAAAAAAAAAAAAAAAAAAAAAAAAAAAAAAAAAAAAAAAAAAAAAAAAAAAAAAAAAAAAAAAAAAAAAAAAAAAAAAAAAAAAAAAAAAAAAAAAAAAAAAAAAAAAAAAAAAAAAAAAAAAAAAAAAAAAAAAAAAAAAAAAAAAAAAAAAAAAAAAAAAAAAAAAAAAAAAAAAAAAAAAAAAAAAAAAAAAAAAAAAAAAAAAAAAAAAAAAAAAAAAAAAAAAAAAAAAAAAAAAAAAAAAAAAAAAAAAAAAAAAAAAAAAAAAAAAAAAAAAAAAAAAAAAAAAAAAAAAAAAAAAAAAAAAAAAAAAAAAAAAAAAAAAAAAAAAAAAAAAAAAAAAAAAAAAAAAAAAAAAAAAAAAAAAAAAAAAAAAAAAAAAAAAAAAAAAAAAAAAAAAAAAAAAAAAAAAAAAAAAAAAAAAAAAAAAAAAAAAAAAAAAAAAAAAAAAAAAAAAAAAAAAAAAAAAAAAAAAAAAAAAAAAAAAAAAAAAAAAAAAAAAAAAAAAAAAAAAAAAAAAAAAAAAAAAAAAAAAAAAAAAAAAAAAAAAAAAAAAAAAAAAAAAAAAAAAAAAAAAAAAAAAAAAAAAAAAAAAAAAAAAAAAAAAAAAAAAAAAAAAAAAAAAAAAAAAAAAAAAAAAAAAAAAAAAAAAAAAAAAAAAAAAAAAAAAAAAAAAAAAAAAAAAAAAAAAAAAAAAAAAAAAAAAAAAAAAAAAAAAAAAAAAAAAAAAAAAAAAAAAAAAAAAAAAAAAAAAAAAAAAAAAAAAAAAAAAAAAAAAAAAAAAAAAAAAAAAAAAAAAAAAAAAAAAAAAAAAAAAAAAAAAAAAAAAAAAAAAAAAAAAAAAAAAAAAAAAAAAAAAAAAAAAAAAAAAAAAAAAAAAAAAAAAAAAAAAAAAAAAAAAAAAAAAAAAAAAAAAAAAAAAAAAAAAAAAAAAAAAAAAAAAAAAAAAAAAAAAAAAAAAAAAAAAAAAAAAAAAAAAAAAAAAAAAAAAAAAAAAAAAAAAAAAAAAAAAAAAAAAAAAAAAAAAAAAAAAAAAAAAAAAAAAAAAAAAAAAAAAAAAAAAAAAAAAAAAAAAAAAAAAAAAAAAAAAAAAAAAAAAAAAAAAAAAAAAAAAAAAAAAAAAAAAAAAAAAAAAAAAAAAAAAAAAAAAAAAAAAAAAAAAAAAAAAAAAAAAAAAAAAAAAAAAAAAAAAAAAAAAAAAAAAAAAAAAAAAAAAAAAAAAAAAAAAAAAAAAAAAAAAAAAAAAAAAAAAAAAAAAAAAAAAAAAAAAAAAAAAAAAAAAAAAAAAAAAAAAAAAAAAAAAAAAAAAAAAAAAAAAAAAAAAAAAAAAAAAAAAAAAAAAAAAAAAAAAAAAAAAAAAAAAAAAAAAAAAAAAAAAAAAAAAAAAAAAAAAAAAAAAAAAAAAAAAAAAAAAAAAAAAAAAAAAAAAAAAAAAAAAAAAAAAAAAAAAAAAAAAAAAAAAAAAAAAAAAAAAAAAAAAAAAAAAAAAAAAAAAAAAAAAAAAAAAAAAAAAAAAAAAAAAAAAAAAAAAAAAAAAAAAAAAAAAAAAAAAAAAAAAAAAAAAAAAAAAAAAAAAAAAAAAAAAAAAAAAAAAAAAAAAAAAAAAAAAAAAAAAAAAAAAAAAAAAAAAAAAAAAAAAAAAAAAAAAAAAAAAAAAAAAAAAAAAAAAAAAAAAAAAAAAAAAAAAAAAAAAAAAAAAAAAAAAAAAAAAAAAAAAAAAAAAAAAAAAAAAAAAAAAAAAAAAAAAAAAAAAAAAAAAAAAAAAAAAAAAAAAAAAAAAAAAAAAAAAAAAAAAAAAAAAAAAAAAAAAAAAAAAAAAAAAAAAAAAAAAAAAAAAAAAAAAAAAAAAAAAAAAAAAAAAAAAAAAAAAAAAAAAAAAAAAAAAAAAAAAAAAAAAAAAAAAAAAAAAAAAAAAAAAAAAAAAAAAAAAAAAAAAAAAAAAAAAAAAAAAAAAAAAAAAAAAAAAAAAAAAAAAAAAAAAAAAAAAAAAAAAAAAAAAAAAAAAAAAAAAAAAAAAAAAAAAAAAAAAAAAAAAAAAAAAAAAAAAAAAAAAAAAAAAAAAAAAAAAAAAAAAAAAAAAAAAAAAAAAAAAAAAAAAAAAAAAAAAAAAAAAAAAAAAAAAAAAAAAAAAAAAAAAAAAAAAAAAAAAAAAAAAAAAAAAAAAAAAAAAAAAAAAAAAAAAAAAAAAAAAAAAAAAAAAAAAAAAAAAAAAAAAAAAAAAAAAAAAAAAAAAAAAAAAAAAAAAAAAAAAAAAAAAAAAAAAAAAAAAAAAAAAAAAAAAAAAAAAAAAAAAAAAAAAAAAAAAAAAAAAAAAAAAAAAAAAAAAAAAAAAAAAAAAAAAAAAAAAAAAAAAAAAAAAAAAAAAAAAAAAAAAAAAAAAAAAAAAAAAAAAAAAAAAAAAAAAAAAAAAAAAAAAAAAAAAAAAAAAAAAAAAAAAAAAAAAAAAAAAAAAAAAAAAAAAAAAAAAAAAAAAAAAAAAAAAAAAAAAAAAAAAAAAAAAAAAAAAAAAAAAAAAAAAAAAAAAAAAAAAAAAAAAAAAAAAAAAAAAAAAAAAAAAAAAAAAAAAAAAAAAAAAAAAAAAAAAAAAAAAAAAAAAAAAAAAAAAAAAAAAAAAAAAAAAAAAAAAAAAAAAAAAAAAAAAAAAAAAAAAAAAAAAAAAAAAAAAAAAAAAAAAAAAAAAAAAAAAAAAAAAAAAAAAAAAAAAAAAAAAAAAAAAAAAAAAAAAAAAAAAAAAAAAAAAAAAAAAAAAAAAAAAAAAAAAAAAAAAAAAAAAAAAAAAAAAAAAAAAAAAAAAAAAAAAAAAAAAAAAAAAAAAAAAAAAAAAAAAAAAAAAAAAAAAAAAAAAAAAAAAAAAAAAAAAAAAAAAAAAAAAAAAAAAAAAAAAAAAAAAAAAAAAAAAAAAAAAAAAAAAAAAAAAAAAAAAAAAAAAAAAAAAAAAAAAAAAAAAAAAAAAAAAAAAAAAAAAAAAAAAAAAAAAAAAAAAAAAAAAAAAAAAAAAAAAAAAAAAAAAAAAAAAAAAAAAAAAAAAAAAAAAAAAAAAAAAAAAAAAAAAAAAAAAAAAAAAAAAAAAAAAAAAAAAAAAAAAAAAAAAAAAAAAAAAAAAAAAAAAAAAAAAAAAAAAAAAAAAAAAAAAAAAAAAAAAAAAAAAAAAAAAAAAAAAAAAAAAAAAAAAAAAAAAAAAAAAAAAAAAAAAAAAAAAAAAAAAAAAAAAAAAAAAAAAAAAAAAAAAAAAAAAAAAAAAAAAAAAAAAAAAAAAAAAAAAAAAAAAAAAAAAAAAAAAAAAAAAAAAAAAAAAAAAAAAAAAAAAAAAAAAAAAAAAAAAAAAAAAAAAAAAAAAAAAAAAAAAAAAAAAAAAAAAAAAAAAAAAAAAAAAAAAAAAAAAAAAAAAAAAAAAAAAAAAAAAAAAAAAAAAAAAAAAAAAAAAAAAAAAAAAAAAAAAAAAAAAAAAAAAAAAAAAAAAAAAAAAAAAAAAAAAAAAAAAAAAAAAAAAAAAAAAAAAAAAAAAAAAAAAAAAAAAAAAAAAAAAAAAAAAAAAAAAAAAAAAAAAAAAAAAAAAAAAAAAAAAAAAAAAAAAAAAAAAAAAAAAAAAAAAAAAAAAAAAAAAAAAAAAAAAAAAAAAAAAAAAAAAAAAAAAAAAAAAAAAAAAAAAAAAAAAAAAAAAAAAAAAAAAAAAAAAAAAAAAAAAAAAAAAAAAAAAAAAAAAAAAAAAAAAAAAAAAAAAAAAAAAAAAAAAAAAAAAAAAAAAAAAAAAAAAAAAAAAAAAAAAAAAAAAAAAAAAAAAAAAAAAAAAAAAAAAAAAAAAAAAAAAAAAAAAAAAAAAAAAAAAAAAAAAAAAAAAAAAAAAAAAAAAAAAAAAAAAAAAAAAAAAAAAAAAAAAAAAAAAAAAAAAAAAAAAAAAAAAAAAAAAAAAAAAAAAAAAAAAAAPZZAQB4BjWD0o8KidnPiiOFk3tl2bahQ7CxJcZArSLEhgbFZnyb47aPhtTNhM5SXO/6LIAw2vZSdf5f70ajVGWqnBcvkkef1lyUEiLKs/khFfz7rOoV+TMHNHMtCFsFSldpgZjrDpUayaVUUPTdSPEHepmklhBwL+t3nJ/FhYrFajNUcHppB0SQPJyMeACzxyvXreL7NheIQoENNH4J5Xl9gIgsiyxVHhoytMwjy3hsh+eJeYorhbDixEVS36UixGTsD/3QQHEB7GQtIHqf/bOio2iQluy/8eyz3NJ31i0JGdyW4iVl4IA4lC6u+Oe8e3rEbClvOTm7/TcuDpOw+bPbqApY</c2pa:manifest></metadata>
<style type="text/css">
	.st0{fill:none;}
	.st1{fill:#FFFFFF;}
</style>
<rect class="st0" width="1843.2" height="260.1"/>
<g>
	<path class="st1" d="M1841.9,168.3c-2.3-2.6,0.2-2.6-42.9,0c-33.2,2-96.8,3.5-117.5,2.8c-36.9-1.3-43.3-2.6-53.5-10.8
		c-6.2-5-9.5-4.9-21,0.9l-9.2,4.6v-5.6c0-5.7-0.8-7.2-5.1-8.5c-1.8-0.5-4.9,0.7-12.1,4.8c-11.8,6.8-22.1,10.7-28.6,10.7
		c-4.4,0-4.9-0.3-5.9-3.1c-1.3-3.7-6.2-6.2-9.2-4.6c-1.5,0.8-2.6,0.5-5-1.5c-6.2-5.2-12.8-4.7-21.3,1.7c-7.3,5.5-22,10.8-30.4,11.1
		l-6.4,0.2l-1.6-4.8c-2.1-6.3-2.8-7.2-6.5-9.1c-4.1-2.1-7.2-0.9-14.3,5.5l-5.5,4.9l-0.9-4c-0.7-2.7-2-4.6-4.3-6
		c-4.5-2.7-6.3-2.6-10.2,0.7l-3.3,2.8v-3.3c0-4.2-3.7-5.4-8.9-3c-4.9,2.3-15.7,3.9-26.8,3.9c-8,0-9.6-0.3-11.4-2.2
		c-1.1-1.2-3.4-2.3-5.1-2.4c-2.7-0.2-3.1,0.2-3.4,2.9c-0.6,5.4-6.8,13.5-10.3,13.5c-0.3,0-0.6-2.2-0.6-4.8c0-6-2.7-9.1-7.8-9.1
		c-3,0-4.2,0.8-7.6,5.4c-5.4,7.1-6.2,7.5-5.3,2.2c0.6-3.4,0.3-4.9-1.2-6.5c-2.8-3.1-4.7-2.7-15.4,3.1
		c-22.4,12.2-37.5,16.5-43.6,12.6c-3.5-2.3-3.7-6-0.3-6.1c6.4-0.1,15.8-7.2,15.8-12c0-3.1-5.6-8.1-9.9-8.9
		c-6.8-1.3-15.2,5.6-16.8,13.7c-0.7,3.3-1,3.5-8,4.8c-11.6,2.1-27.2,3.3-39.3,3c-24.4-0.6-36.1-9.7-35.9-27.9
		c0.1-10.7,1.7-13.3,12.1-20.7l8.9-6.4l15.2-0.7c44.3-2.1,66.1-2.8,90.6-2.8c25.1,0,27.1-0.2,27.1-1.9c-0.1-5.3,2.2-5.1-62-5
		l-60,0.1l4.2-6c5.3-7.5,7.4-12.4,7.5-17.3c0.1-8.4-5.1-11.5-12.7-7.4c-6.1,3.2-21.2,18-27.1,26.6l-4.7,6.7h-6
		c-6.6,0-71.5,5.1-80,6.2c-6.1,0.9-7.1,2.3-3.8,5.7c2.3,2.3,2.7,2.4,21.3,1.7c10.4-0.4,28.7-1.5,40.7-2.4c12-0.9,22-1.5,22.3-1.2
		c0.2,0.2-0.1,1.9-0.7,3.7c-1,2.8-3.2,4.2-15.8,10.3c-16.6,8-27.4,12.2-49.1,19.3c-12.6,4.1-38.2,11.4-49,14
		c-2.3,0.6-3.3,0.1-5.6-2.9c-12.2-16-91.9-34.6-218.6-50.9c1-2.5,2-4.8,3.1-7.1c6.3-12.6,6.7-16,2-17.9c-2.8-1.2-3.5-1.1-5.5,0.7
		c-2.8,2.4-7.7,12.9-10.9,22.8c-45.2-5.9-62.7-9-74.2-12.8c-7.8-2.6-8.8-3.6-6.3-6.3c9.2-10.2,69.9-28.1,130.5-38.6
		c76.2-13.1,158.7-16.1,207.9-7.5c6.6,1.2,14.7,3.1,17.9,4.3c5.6,2.1,5.9,2.4,5.3,5.3c-0.4,1.9,0,4,1,5.4l1.7,2.4l2.2-3.6
		c6-9.8-0.7-16.9-20.9-22.2c-35-9.3-97.2-11.2-162.1-4.9c-80.3,7.7-171.3,31.4-190.5,49.7c-3.7,3.5-4.4,4.8-4.4,8.4
		c0,10,8.8,16,29.7,20.2l0,0c7,1.4,32.3,5,56.2,8c1,0.1,2.1,0.3,3.2,0.4c-3.1,7.6-8.5,13.9-19.9,24c-15.5,13.7-43.8,29.9-63.1,36.1
		c-11.5,3.7-24.3,5.5-28.3,4.1c-3.1-1.1-3-1.1,1.7-1.2c6.3-0.1,17.5-6.5,19.4-11c4.2-10-12.2-15.5-23.7-8c-2.4,1.6-5.8,5.2-7.6,8
		c-3.6,5.6-6.1,6.9-19,9.4c-11.5,2.2-22.4,2-26.7-0.5c-1.9-1.2-3.9-3-4.5-4.2c-0.6-1.1-3.3-3.1-6-4.4c-2.7-1.3-4.9-3-4.9-3.9
		c0-2.1-3.9-4.5-8.7-5.4c-5.4-1-11.8,1-17.8,5.6c-10.3,7.9-25.8,11.7-32.7,8.1c-1.4-0.8-4-4-5.6-7.2c-5.5-10.5-14.3-11.9-21.7-3.5
		l-3.9,4.5l0.7-7c0.4-3.8,1.5-11,2.4-16c1.6-8.3,2.3-9.8,8.6-18.2c14-18.8,22.3-40.9,17-44.8c-3.6-2.6-8-1.8-11.8,2.2
		c-6.8,7.2-15.2,25.3-21,45.2c-2.1,7.3-4.3,12.6-5.7,13.8c-21.4,19.1-50.7,35-64.6,35c-6.7,0-6.8-5.7-0.3-12.6l3.3-3.4l1.9,2.3
		c1.8,2.2,2,2.2,4.7,0.5c6-3.9,2.2-10.2-6.4-10.5c-5.1-0.2-12.3,2.3-46.3,16.3c-14.3,5.9-26.5,10.7-27.2,10.7
		c-1.1,0-0.7-10.7,0.5-14.7c0.6-2.1-2.3-3.7-6-3.4c-3.3,0.3-3.5,0.7-6,8.9c-3.2,10.8-3.2,12.8,0.3,15.5l0,0c5.1,4,10.9,3.1,26.7-4.3
		c20.1-9.4,39.3-18.1,39.8-18.1c0.3,0,0,0.9-0.6,2.1c-1.4,2.7-1.4,8.2,0,11c1.6,3,9.2,6.2,14.6,6.2c8.1,0,15.3-2.2,28.6-9
		c12.5-6.3,26.1-15.4,33.8-22.5l3.6-3.4l-0.7,3.2c-0.4,1.8-1,9.6-1.4,17.4c-0.8,16.8-0.1,18.5,7.7,18.5c5.1,0,6.8-1.6,13-12.1
		l3.5-5.8l4.7,4.5c6.9,6.6,17.1,8.9,30,6.7c4.8-0.8,5.2-0.7,6.3,1.8c1.5,3.4,7.2,5.4,12.9,4.6c2.5-0.3,8.1-3,13.8-6.6
		c5.3-3.3,10.3-6,11.1-6s2.6,1.3,4,2.8c7,7.5,22.9,9.1,42.4,4.2l10.5-2.7l2.7,2.6c3.9,3.7,9.9,6,15.8,5.9
		c25.4-0.1,69.8-23.2,96.8-50.3l5.8-5.8l-0.8,7c-0.4,3.9-0.8,14-0.7,22.4c0,24.3,3.9,37.9,12,42c4.5,2.3,5.4,2.3,8,0.4
		c2.4-1.8,1.3-3.9-2-3.9c-1.4,0-3.1-0.7-3.8-1.6c-4.4-5.3-6.3-26.2-4.4-46.8c1.2-13.1,3.2-24.1,6-33.5c20.2,2.6,41.1,5.4,50.6,6.8
		c81.5,12,148.1,28.4,163.2,40.1c1.2,0.9,1.8,1.7,1.5,1.7c-0.4,0-6.9,1.4-14.6,3.2c-22.3,5-59.1,12.4-116.8,23.2
		c-8.3,1.5-33.1,6.4-55.1,10.8c-80.7,16.1-98.9,23.1-88.8,34c2.5,2.7,4.1,3.4,10.3,4.3c3.9,0.6,22.4-0.1,36-1.5
		c50.5-4.9,113.3-15.6,158.9-27c53.4-13.4,81-26.4,81-38.3c0-1.7,1-2.5,4-3.3c49.2-13.4,72.3-21.2,98.1-33.1l9.2-4.3l0.6,6.3
		c0.7,7.7,5.5,18.4,11,24.4c2.2,2.5,7.2,6,11.1,7.9l7.1,3.5l19.9-0.1c18.2,0,30.3-1.3,42.6-4.4c1.7-0.4,2.5,0,3,1.6
		c0.4,1.2,3.2,3.4,6.6,5.1c5,2.5,6.7,2.8,11.8,2.2c8.1-1,18.3-5,31.9-12.7c6.4-3.6,11.8-6.3,12.2-5.9s0.1,2.4-0.6,4.7
		c-2.7,9.7-0.4,14.3,7.1,14.3c2.6,0,4.5-1.1,7.7-4.4c4.1-4.2,4.3-4.3,5.5-2.2c1.6,2.9,6.6,5.5,10.7,5.5s10.8-5.8,13.4-11.8
		c1.7-3.9,2.2-4.2,4.7-3.5c4.2,1.2,17.8,0.8,26.8-0.8c4.3-0.7,8.1-1.1,8.3-0.9c0.3,0.3-0.3,4.1-1.2,8.4l-1.7,7.9l2.9,2.5
		c4.4,3.8,7.6,2.8,13.2-4.1c5.6-7,6.2-7.3,7.2-4.2c0.8,2.4,6.3,5.3,10.1,5.3c1.2,0,5.2-2.9,9-6.4l6.9-6.4l0.7,3.2
		c1.4,7.1,10.1,11.5,19.8,10.1c2.8-0.4,8.4-1.9,12.6-3.3l7.5-2.6l1.9,2.6c1.1,1.5,3.6,3.2,5.6,3.9c6,2,11.8,0.1,23.1-7.5
		c5.9-4,6-4,8.4-2c7.7,6.2,22.4,4.1,39.4-5.6c3-1.7,5.8-3.1,6.1-3.1s0.6,1.3,0.5,3c-0.2,5.1,1.3,7.8,5.3,9.4
		c2.1,0.9,4.4,1.6,5.1,1.6s5.9-2.7,11.6-5.9c5.7-3.2,10.9-5.9,11.5-5.9s2.8,1.8,4.8,4.1c4.5,5,11.2,8.4,20.7,10.6
		c20.1,4.6,139,2,186.6-4C1843.4,172.4,1844.7,171.6,1841.9,168.3z M1281.7,155.6c1.5-1.4,2.7-2,2.7-1.5c0,0.6-1.2,2.2-2.7,3.6
		c-1.5,1.4-2.7,2-2.7,1.4C1279,158.6,1280.2,156.9,1281.7,155.6z M1212,91.2L1212,91.2c4.9-4.7,5-4.7,2.6-1.1
		c-1.4,2.1-4.7,6.1-7.4,8.9s-5.3,5.1-5.8,5.1C1200.1,104,1205.9,96.9,1212,91.2z M715.3,168.9c2.7-2.9,7.5-5.8,9.5-5.8
		c2.5,0,0.8,2.4-3.9,5.4C714.6,172.5,711.7,172.8,715.3,168.9L715.3,168.9z M572.1,93.1c4.6-9.1,6.4-10.5,5.4-4
		c-1.1,6.7-5.1,16-10.3,24.1c-4.1,6.3-5.4,7.8-5.4,6.5C561.8,117.9,569.1,99,572.1,93.1z M629.6,171c-7.3,3.6-8,3.8-5.9,1.5v0
		c3.2-3.5,12-7.8,13.2-6.5C637.6,166.5,634.6,168.6,629.6,171z M1015.1,188.9L1015.1,188.9c-36.1,12-83.7,22.5-143.5,31.5
		c-33.9,5.1-38.6,5.8-55.6,7.6c-25.2,2.7-26.6,2-7.1-3.6c13.7-3.9,66.6-15.6,86.9-19.1c22.1-3.9,133.2-25.8,145.2-28.7
		c3.4-0.8,6.2-1.3,6.2-1C1047.1,176.8,1029.4,184.1,1015.1,188.9z M1520.9,168.2l-7.1,3.5l2.2-3.1c3.9-5.5,11.9-9,11.9-5.2
		C1528,164.1,1524.8,166.3,1520.9,168.2z"/>
	<path class="st1" d="M409.4,151.9L409.4,151.9c4.4,1.5,7.2,0.8,8.7-2c1.6-2.9-0.8-5.1-6.2-5.8C403.3,143,401.3,149.2,409.4,151.9z"
		/>
	<path class="st1" d="M590.3,215.4c-27.5,17.7-103.6,35.3-152,35.3c-59.8,0-84.3-23.5-87.9-84.1c-1.7-28.4,0.1-50.1,9.6-114.2
		c2.8-18.7,3.1-38.4,0.7-44.1C358.8,3.9,353.4,0,349,0c-4.3,0-8.3,4.8-22.9,27.4c-7.2,11.2-25.1,38.2-39.6,60
		c-14.5,21.8-34.1,51.2-43.5,65.3c-19.3,29-29.9,43.6-36.5,49.9c-4.2,4-4.6,4.2-5.9,2.4c-2.1-2.8-6.2-15.1-12-35.4
		c-7.9-27.9-12.9-37.2-22.6-42c-7.6-3.8-16-3-27.1,2.7c-28.4,14.4-65.5,42.5-100.6,76.3c-5.5,5.2-10.2,9.5-10.6,9.5s0.3-1.6,1.5-3.5
		c6-9.7,27.4-49.1,36.3-66.7c14.8-29.2,28.7-62.5,28.7-68.5c0-2.7-3-6.1-5.4-6.1c-1,0-2.6,0.8-3.5,1.9c-2.8,3.2-8.9,14.5-12.2,22.4
		c-4.6,11.1-25.3,51.5-45.8,89.2C0.7,233.9-2.3,240.6,1.1,244.7c1.7,2,8,3.2,10.2,2c1-0.5,14.5-13.6,30.1-29.1
		c38.4-38.1,62.3-57.6,90.7-74c11.6-6.7,23.5-11.2,27-10.1c3.1,1,5.9,7.6,9,21.1c9.5,41.4,17.9,58,30.8,61.5
		c6.8,1.8,10.5,0.5,17.3-6.4c6.4-6.5,15.5-19.9,38.9-57.4c17.9-28.7,86-131,90.7-136.2l3.4-3.8l-0.6,8.7c-0.3,4.8-2.3,17.9-4.5,29.2
		c-8.8,45.9-11.4,66.3-11.9,94c-1.2,63.2,17.1,96.4,60.6,110c7.5,2.3,13.2,3.5,28.1,5.5c5.7,0.8,31.8-0.5,45.3-2.2
		c30.6-3.9,75.4-14.4,98.6-23.1c12.3-4.6,26.2-11.5,31.2-15.5l3.2-2.6l-3-1.4C593.7,213.8,592.8,213.8,590.3,215.4z"/>
</g>
</svg>
